<?xml version="1.0" encoding="UTF-8" standalone="no"?>
<!-- Created with Inkscape (http://www.inkscape.org/) -->

<svg
   xmlns:dc="http://purl.org/dc/elements/1.1/"
   xmlns:cc="http://creativecommons.org/ns#"
   xmlns:rdf="http://www.w3.org/1999/02/22-rdf-syntax-ns#"
   xmlns:svg="http://www.w3.org/2000/svg"
   xmlns="http://www.w3.org/2000/svg"
   xmlns:sodipodi="http://sodipodi.sourceforge.net/DTD/sodipodi-0.dtd"
   xmlns:inkscape="http://www.inkscape.org/namespaces/inkscape"
   width="23.118999mm"
   height="23.118999mm"
   viewBox="0 0 23.118999 23.119"
   version="1.1"
   id="svg8"
   inkscape:version="0.92.4 (5da689c313, 2019-01-14)"
   sodipodi:docname="HDL_libs.svg"
   inkscape:export-filename="C:\Users\silvan.zahno\Workspace\HESSO\10_Course\01_Admin\logo\HDL_libs.png"
   inkscape:export-xdpi="549.33173"
   inkscape:export-ydpi="549.33173">
  <defs
     id="defs2" />
  <sodipodi:namedview
     id="base"
     pagecolor="#ffffff"
     bordercolor="#666666"
     borderopacity="1.0"
     inkscape:pageopacity="0.0"
     inkscape:pageshadow="2"
     inkscape:zoom="4.0000001"
     inkscape:cx="159.52577"
     inkscape:cy="76.854259"
     inkscape:document-units="mm"
     inkscape:current-layer="layer1"
     showgrid="false"
     inkscape:window-width="1920"
     inkscape:window-height="1017"
     inkscape:window-x="-8"
     inkscape:window-y="32"
     inkscape:window-maximized="1"
     fit-margin-top="0"
     fit-margin-left="0"
     fit-margin-right="0"
     fit-margin-bottom="0" />
  <metadata
     id="metadata5">
    <rdf:RDF>
      <cc:Work
         rdf:about="">
        <dc:format>image/svg+xml</dc:format>
        <dc:type
           rdf:resource="http://purl.org/dc/dcmitype/StillImage" />
        <dc:title />
      </cc:Work>
    </rdf:RDF>
  </metadata>
  <g
     inkscape:label="Layer 1"
     inkscape:groupmode="layer"
     id="layer1"
     style="opacity:1"
     transform="translate(-59.839396,-122.06852)">
    <circle
       inkscape:export-ydpi="549.33002"
       inkscape:export-xdpi="549.33002"
       r="11.5595"
       style="fill:#c8306f;fill-opacity:1;stroke-width:0.19988333"
       cy="133.62802"
       cx="71.398895"
       id="circle832" />
    <path
       style="fill:#000000;fill-opacity:0.34901962;stroke-width:0.75546455"
       d="M 65.603516 28.3125 L 65.011719 56.800781 L 54.210938 62.992188 L 41.068359 66.597656 L 40.130859 68.806641 L 63.261719 82.734375 A 43.689448 43.689448 0 0 0 87.378906 43.689453 A 43.689448 43.689448 0 0 0 87.277344 40.826172 L 65.603516 28.3125 z "
       transform="matrix(0.26458333,0,0,0.26458333,59.839396,122.06852)"
       id="path59" />
    <g
       id="g66"
       transform="matrix(0.55021306,0,0,0.55021306,64.796338,-438.81366)"
       inkscape:export-xdpi="549.33002"
       inkscape:export-ydpi="549.33002"
       style="fill:#cccccc">
      <path
         inkscape:connector-curvature="0"
         id="path830"
         d="m 12.238683,1053.2363 c -1.282413,-0.1874 -2.5033331,-0.9483 -2.9610381,-1.8455 -0.214142,-0.4198 -0.223457,-0.7295 -0.218614,-7.2704 0.0055,-7.4342 -0.007,-7.2817 0.669209,-8.1355 0.3073781,-0.3881 5.9293021,-4.4072 6.7793071,-4.8465 0.40424,-0.2089 0.832158,-0.1514 1.136308,0.1528 0.260977,0.261 0.282838,0.3682 0.282838,1.388 0,1.0197 -0.02185,1.127 -0.282838,1.388 -0.378339,0.3783 -0.970134,0.3812 -1.344828,0.01 l -0.276332,-0.2764 -2.104493,1.4636 c -2.658091,1.8487 -2.905316,2.0759 -2.905316,2.6706 0,0.8149 0.578727,1.1392 1.640091,0.9188 1.285787,-0.2669 2.318525,-0.9438 7.274543,-4.7679 0.878635,-0.6779 1.715671,-1.2623 1.860077,-1.2985 0.388449,-0.098 0.933812,0.2343 1.081498,0.6579 0.187927,0.5391 0.167947,13.1806 -0.02152,13.6104 -0.07636,0.1733 -0.553671,0.6345 -1.060682,1.025 -3.365879,2.5922 -6.090555,4.5623 -6.683347,4.8324 -0.789343,0.3597 -1.827959,0.4782 -2.864873,0.3267 z m 6.321776,-11.1667 c 1.26753,-0.9736 2.327571,-1.788 2.355648,-1.8096 0.02808,-0.022 0.06278,-0.4816 0.07712,-1.0222 0.01848,-0.6968 -0.01234,-0.9702 -0.105852,-0.939 -0.07256,0.024 -1.20602,0.8698 -2.518801,1.879 l -2.386871,1.835 -0.0069,1.0224 c -0.0054,0.7999 0.02438,0.9987 0.137078,0.9136 0.07922,-0.06 1.181108,-0.9055 2.44864,-1.8792 z m -14.7781301,7.0933 c -1.49118,-0.3399 -2.45264,-1.1239 -2.684121,-2.1887 -0.08627,-0.3968 -0.11487899,-2.645 -0.0897,-7.0473 l 0.03697,-6.4648 0.403986,-0.7933 c 0.459581,-0.9025 0.159986,-0.6723 4.427239,-3.4007 3.053102,-1.952 3.307401,-2.0481 3.825966,-1.4452 0.243719,0.2833 0.273143,0.4295 0.273143,1.3571 0,1.0044 -0.01184,1.0513 -0.350307,1.3898 -0.292905,0.2929 -0.410916,0.3387 -0.720187,0.2793 -0.203436,-0.039 -0.47869,-0.1944 -0.611678,-0.3453 l -0.241797,-0.2743 -2.377505,1.5129 c -2.354417,1.4982 -2.54878,1.6696 -2.630214,2.3196 -0.167097,1.3335 1.23119,1.2888 3.474784,-0.1109 0.285194,-0.1779 2.000015,-1.3017 3.8107101,-2.4974 2.562029,-1.6917 3.374592,-2.1738 3.663794,-2.1738 0.871504,0 1.275506,1.1397 0.620411,1.7502 -0.174285,0.1624 -1.409363,1.022 -2.744618,1.9102 -1.494585,0.9942 -2.6096121,1.8216 -2.9009091,2.1525 -0.895165,1.017 -0.879122,0.8911 -0.947892,7.4386 -0.04488,4.273 -0.0985,5.8843 -0.201796,6.0645 -0.07737,0.135 -0.362565,0.3346 -0.633764,0.4437 -0.673256,0.2708 -2.470015,0.3359 -3.402518,0.1233 z"
         style="fill:#cccccc;fill-opacity:1;stroke-width:0.11523011" />
    </g>
    <path
       style="opacity:1;fill:#ffffff;fill-opacity:1;stroke-width:0.06340112"
       d="m 71.232566,140.49229 c -0.705601,-0.10311 -1.377367,-0.52177 -1.629202,-1.01542 -0.117824,-0.23098 -0.122949,-0.40138 -0.120284,-4.00027 0.003,-4.09039 -0.0039,-4.00648 0.368207,-4.47626 0.169124,-0.21353 3.26238,-2.4249 3.730063,-2.6666 0.222419,-0.11494 0.457865,-0.0833 0.625212,0.0841 0.143593,0.1436 0.155621,0.20259 0.155621,0.76369 0,0.56106 -0.01202,0.62009 -0.155621,0.7637 -0.208167,0.20815 -0.53378,0.20974 -0.739942,0.005 l -0.152041,-0.15208 -1.15792,0.80529 c -1.462516,1.01718 -1.598543,1.14219 -1.598543,1.4694 0,0.44837 0.318424,0.62681 0.9024,0.50554 0.707457,-0.14685 1.275682,-0.51929 4.002548,-2.62336 0.483437,-0.37299 0.943981,-0.69454 1.023441,-0.71445 0.21373,-0.0539 0.51379,0.12891 0.59505,0.36198 0.1034,0.29662 0.0924,7.25214 -0.0118,7.48862 -0.042,0.0953 -0.30464,0.34911 -0.5836,0.56397 -1.85195,1.42626 -3.351102,2.51024 -3.677264,2.65885 -0.434307,0.19791 -1.005767,0.26311 -1.57629,0.17975 z m 3.478323,-6.14406 c 0.697412,-0.53569 1.28066,-0.98379 1.296109,-0.99567 0.01545,-0.0121 0.03454,-0.26498 0.04243,-0.56243 0.01017,-0.38339 -0.0068,-0.53382 -0.05824,-0.51665 -0.03992,0.0132 -0.663568,0.47858 -1.385877,1.03385 l -1.313288,1.00964 -0.0038,0.56254 c -0.003,0.44012 0.01341,0.5495 0.07542,0.50268 0.04359,-0.033 0.649861,-0.49822 1.347273,-1.03396 z m -8.13112,3.90282 c -0.820466,-0.18702 -1.349474,-0.61838 -1.476838,-1.20425 -0.04747,-0.21832 -0.06321,-1.45531 -0.04935,-3.87752 l 0.02034,-3.55701 0.222279,-0.43649 c 0.252867,-0.49657 0.08803,-0.36991 2.435924,-1.87111 1.679857,-1.07401 1.819775,-1.12689 2.105097,-0.79517 0.134097,0.15588 0.150287,0.23632 0.150287,0.7467 0,0.55263 -0.0065,0.57844 -0.192744,0.76468 -0.16116,0.16116 -0.226091,0.18636 -0.396256,0.15368 -0.111933,-0.0215 -0.263382,-0.10696 -0.336553,-0.18999 l -0.13304,-0.15092 -1.308135,0.83241 c -1.29543,0.82433 -1.402372,0.91864 -1.447178,1.27628 -0.09194,0.73371 0.677417,0.70911 1.911872,-0.061 0.156917,-0.0979 1.100434,-0.71621 2.096702,-1.3741 1.409662,-0.9308 1.856745,-1.19605 2.015868,-1.19605 0.479513,0 0.7018,0.62707 0.341358,0.96298 -0.09589,0.0893 -0.77545,0.56232 -1.510125,1.05101 -0.82234,0.54703 -1.435842,1.00227 -1.596118,1.18434 -0.492531,0.55957 -0.483704,0.49029 -0.521542,4.09281 -0.02469,2.35106 -0.0542,3.23762 -0.111031,3.33677 -0.04257,0.0743 -0.199488,0.1841 -0.348705,0.24413 -0.370435,0.149 -1.359035,0.18482 -1.87211,0.0678 z"
       id="path828"
       inkscape:connector-curvature="0" />
  </g>
</svg>
