G04*
G04 #@! TF.GenerationSoftware,Altium Limited,Altium Designer,22.0.2 (36)*
G04*
G04 Layer_Color=128*
%FSLAX44Y44*%
%MOMM*%
G71*
G04*
G04 #@! TF.SameCoordinates,BB817302-6D05-45A6-82D7-9B19CF937CD1*
G04*
G04*
G04 #@! TF.FilePolarity,Positive*
G04*
G01*
G75*
%ADD11C,0.1500*%
%ADD21R,2.4000X5.8000*%
G04:AMPARAMS|DCode=23|XSize=0.6mm|YSize=0.6mm|CornerRadius=0.075mm|HoleSize=0mm|Usage=FLASHONLY|Rotation=90.000|XOffset=0mm|YOffset=0mm|HoleType=Round|Shape=RoundedRectangle|*
%AMROUNDEDRECTD23*
21,1,0.6000,0.4500,0,0,90.0*
21,1,0.4500,0.6000,0,0,90.0*
1,1,0.1500,0.2250,0.2250*
1,1,0.1500,0.2250,-0.2250*
1,1,0.1500,-0.2250,-0.2250*
1,1,0.1500,-0.2250,0.2250*
%
%ADD23ROUNDEDRECTD23*%
G04:AMPARAMS|DCode=30|XSize=0.6mm|YSize=0.6mm|CornerRadius=0.075mm|HoleSize=0mm|Usage=FLASHONLY|Rotation=180.000|XOffset=0mm|YOffset=0mm|HoleType=Round|Shape=RoundedRectangle|*
%AMROUNDEDRECTD30*
21,1,0.6000,0.4500,0,0,180.0*
21,1,0.4500,0.6000,0,0,180.0*
1,1,0.1500,-0.2250,0.2250*
1,1,0.1500,0.2250,0.2250*
1,1,0.1500,0.2250,-0.2250*
1,1,0.1500,-0.2250,-0.2250*
%
%ADD30ROUNDEDRECTD30*%
G04:AMPARAMS|DCode=133|XSize=0.875mm|YSize=0.775mm|CornerRadius=0.0969mm|HoleSize=0mm|Usage=FLASHONLY|Rotation=90.000|XOffset=0mm|YOffset=0mm|HoleType=Round|Shape=RoundedRectangle|*
%AMROUNDEDRECTD133*
21,1,0.8750,0.5813,0,0,90.0*
21,1,0.6813,0.7750,0,0,90.0*
1,1,0.1938,0.2906,0.3406*
1,1,0.1938,0.2906,-0.3406*
1,1,0.1938,-0.2906,-0.3406*
1,1,0.1938,-0.2906,0.3406*
%
%ADD133ROUNDEDRECTD133*%
G04:AMPARAMS|DCode=134|XSize=1.2mm|YSize=1.9mm|CornerRadius=0.15mm|HoleSize=0mm|Usage=FLASHONLY|Rotation=90.000|XOffset=0mm|YOffset=0mm|HoleType=Round|Shape=RoundedRectangle|*
%AMROUNDEDRECTD134*
21,1,1.2000,1.6000,0,0,90.0*
21,1,0.9000,1.9000,0,0,90.0*
1,1,0.3000,0.8000,0.4500*
1,1,0.3000,0.8000,-0.4500*
1,1,0.3000,-0.8000,-0.4500*
1,1,0.3000,-0.8000,0.4500*
%
%ADD134ROUNDEDRECTD134*%
D11*
X896000Y244000D02*
G03*
X896000Y234000I0J-5000D01*
G01*
Y161600D02*
G03*
X896000Y151600I0J-5000D01*
G01*
X749800Y921000D02*
X818800D01*
X547000Y921000D02*
X616000D01*
X343400Y921000D02*
X412400D01*
X140200D02*
X209200D01*
X961000Y141600D02*
Y151600D01*
X896000D02*
X961000D01*
X961000Y0D02*
X961000Y141600D01*
X0Y0D02*
X961000D01*
X961000Y254000D02*
X961000Y920000D01*
X896000Y244000D02*
X961000D01*
Y254000D01*
X896000Y161600D02*
Y234000D01*
X0Y920000D02*
X0Y0D01*
X0Y920000D02*
X961000D01*
D21*
X828600Y892000D02*
D03*
X741300D02*
D03*
X625800Y892000D02*
D03*
X538500D02*
D03*
X422200Y892000D02*
D03*
X334900D02*
D03*
X219000D02*
D03*
X131700D02*
D03*
D23*
X819000Y234000D02*
D03*
Y224000D02*
D03*
X809000D02*
D03*
Y234000D02*
D03*
X36000Y346000D02*
D03*
X36000Y356000D02*
D03*
X760000Y550000D02*
D03*
Y560000D02*
D03*
X630000Y572000D02*
D03*
Y582000D02*
D03*
X643000Y307000D02*
D03*
Y297000D02*
D03*
X653000D02*
D03*
Y307000D02*
D03*
X654000Y268000D02*
D03*
X654000Y258000D02*
D03*
X644000Y268000D02*
D03*
X644000Y258000D02*
D03*
X697000Y299000D02*
D03*
X697000Y309000D02*
D03*
X470000Y505000D02*
D03*
X470000Y495000D02*
D03*
X480000Y475000D02*
D03*
Y485000D02*
D03*
X495000Y505000D02*
D03*
X495000Y495000D02*
D03*
X480000Y505000D02*
D03*
X480000Y495000D02*
D03*
X490000Y569000D02*
D03*
X490000Y579000D02*
D03*
X460000Y495000D02*
D03*
X460000Y505000D02*
D03*
X512000Y569000D02*
D03*
X512000Y579000D02*
D03*
D30*
X41000Y318000D02*
D03*
X51000D02*
D03*
X37000Y307000D02*
D03*
X47000D02*
D03*
X37000Y329000D02*
D03*
X47000D02*
D03*
X151000Y362000D02*
D03*
X161000D02*
D03*
X37000Y373000D02*
D03*
X47000D02*
D03*
X37000Y384000D02*
D03*
X47000D02*
D03*
X750000Y560000D02*
D03*
X740000D02*
D03*
X620000Y582000D02*
D03*
X610000D02*
D03*
X521875Y304625D02*
D03*
X531875Y304625D02*
D03*
X531875Y266625D02*
D03*
X521875Y266625D02*
D03*
X548000Y335000D02*
D03*
X558000Y335000D02*
D03*
X548000Y279000D02*
D03*
X558000Y279000D02*
D03*
X623000Y231000D02*
D03*
X633000Y231000D02*
D03*
X688000Y231000D02*
D03*
X698000Y231000D02*
D03*
X629000Y300000D02*
D03*
X619000Y300000D02*
D03*
X629000Y310000D02*
D03*
X619000Y310000D02*
D03*
X450000Y520000D02*
D03*
X440000Y520000D02*
D03*
X450000Y509000D02*
D03*
X440000Y509000D02*
D03*
D133*
X531750Y279250D02*
D03*
X522000Y292000D02*
D03*
Y279250D02*
D03*
X531750Y292000D02*
D03*
D134*
X551000Y293000D02*
D03*
Y321000D02*
D03*
M02*
