G04*
G04 #@! TF.GenerationSoftware,Altium Limited,Altium Designer,22.0.2 (36)*
G04*
G04 Layer_Color=16711935*
%FSLAX44Y44*%
%MOMM*%
G71*
G04*
G04 #@! TF.SameCoordinates,BB817302-6D05-45A6-82D7-9B19CF937CD1*
G04*
G04*
G04 #@! TF.FilePolarity,Negative*
G04*
G01*
G75*
%ADD11C,0.1500*%
%ADD55R,2.6032X6.0032*%
G04:AMPARAMS|DCode=58|XSize=0.8032mm|YSize=0.8032mm|CornerRadius=0.1766mm|HoleSize=0mm|Usage=FLASHONLY|Rotation=90.000|XOffset=0mm|YOffset=0mm|HoleType=Round|Shape=RoundedRectangle|*
%AMROUNDEDRECTD58*
21,1,0.8032,0.4500,0,0,90.0*
21,1,0.4500,0.8032,0,0,90.0*
1,1,0.3532,0.2250,0.2250*
1,1,0.3532,0.2250,-0.2250*
1,1,0.3532,-0.2250,-0.2250*
1,1,0.3532,-0.2250,0.2250*
%
%ADD58ROUNDEDRECTD58*%
G04:AMPARAMS|DCode=65|XSize=0.8032mm|YSize=0.8032mm|CornerRadius=0.1766mm|HoleSize=0mm|Usage=FLASHONLY|Rotation=180.000|XOffset=0mm|YOffset=0mm|HoleType=Round|Shape=RoundedRectangle|*
%AMROUNDEDRECTD65*
21,1,0.8032,0.4500,0,0,180.0*
21,1,0.4500,0.8032,0,0,180.0*
1,1,0.3532,-0.2250,0.2250*
1,1,0.3532,0.2250,0.2250*
1,1,0.3532,0.2250,-0.2250*
1,1,0.3532,-0.2250,-0.2250*
%
%ADD65ROUNDEDRECTD65*%
%ADD88C,1.2032*%
%ADD89P,2.4194X8X202.5*%
G04:AMPARAMS|DCode=90|XSize=2.2352mm|YSize=2.2352mm|CornerRadius=0.6096mm|HoleSize=0mm|Usage=FLASHONLY|Rotation=180.000|XOffset=0mm|YOffset=0mm|HoleType=Round|Shape=RoundedRectangle|*
%AMROUNDEDRECTD90*
21,1,2.2352,1.0160,0,0,180.0*
21,1,1.0160,2.2352,0,0,180.0*
1,1,1.2192,-0.5080,0.5080*
1,1,1.2192,0.5080,0.5080*
1,1,1.2192,0.5080,-0.5080*
1,1,1.2192,-0.5080,-0.5080*
%
%ADD90ROUNDEDRECTD90*%
G04:AMPARAMS|DCode=91|XSize=1.4224mm|YSize=1.9304mm|CornerRadius=0.4064mm|HoleSize=0mm|Usage=FLASHONLY|Rotation=0.000|XOffset=0mm|YOffset=0mm|HoleType=Round|Shape=RoundedRectangle|*
%AMROUNDEDRECTD91*
21,1,1.4224,1.1176,0,0,0.0*
21,1,0.6096,1.9304,0,0,0.0*
1,1,0.8128,0.3048,-0.5588*
1,1,0.8128,-0.3048,-0.5588*
1,1,0.8128,-0.3048,0.5588*
1,1,0.8128,0.3048,0.5588*
%
%ADD91ROUNDEDRECTD91*%
G04:AMPARAMS|DCode=92|XSize=1.4224mm|YSize=1.9304mm|CornerRadius=0mm|HoleSize=0mm|Usage=FLASHONLY|Rotation=0.000|XOffset=0mm|YOffset=0mm|HoleType=Round|Shape=Octagon|*
%AMOCTAGOND92*
4,1,8,-0.3556,0.9652,0.3556,0.9652,0.7112,0.6096,0.7112,-0.6096,0.3556,-0.9652,-0.3556,-0.9652,-0.7112,-0.6096,-0.7112,0.6096,-0.3556,0.9652,0.0*
%
%ADD92OCTAGOND92*%

%ADD93P,2.4194X8X112.5*%
G04:AMPARAMS|DCode=94|XSize=2.2352mm|YSize=2.2352mm|CornerRadius=0.6096mm|HoleSize=0mm|Usage=FLASHONLY|Rotation=90.000|XOffset=0mm|YOffset=0mm|HoleType=Round|Shape=RoundedRectangle|*
%AMROUNDEDRECTD94*
21,1,2.2352,1.0160,0,0,90.0*
21,1,1.0160,2.2352,0,0,90.0*
1,1,1.2192,0.5080,0.5080*
1,1,1.2192,0.5080,-0.5080*
1,1,1.2192,-0.5080,-0.5080*
1,1,1.2192,-0.5080,0.5080*
%
%ADD94ROUNDEDRECTD94*%
%ADD95C,1.0032*%
G04:AMPARAMS|DCode=96|XSize=2.2032mm|YSize=2.2032mm|CornerRadius=0.6016mm|HoleSize=0mm|Usage=FLASHONLY|Rotation=90.000|XOffset=0mm|YOffset=0mm|HoleType=Round|Shape=RoundedRectangle|*
%AMROUNDEDRECTD96*
21,1,2.2032,1.0000,0,0,90.0*
21,1,1.0000,2.2032,0,0,90.0*
1,1,1.2032,0.5000,0.5000*
1,1,1.2032,0.5000,-0.5000*
1,1,1.2032,-0.5000,-0.5000*
1,1,1.2032,-0.5000,0.5000*
%
%ADD96ROUNDEDRECTD96*%
%ADD97P,2.3848X8X112.5*%
%ADD98C,2.2032*%
%ADD99O,2.4032X1.2032*%
%ADD100O,2.0032X1.2032*%
%ADD101C,2.7032*%
%ADD102C,2.9032*%
%ADD103C,0.7032*%
G04:AMPARAMS|DCode=135|XSize=1.0782mm|YSize=0.9782mm|CornerRadius=0.1985mm|HoleSize=0mm|Usage=FLASHONLY|Rotation=90.000|XOffset=0mm|YOffset=0mm|HoleType=Round|Shape=RoundedRectangle|*
%AMROUNDEDRECTD135*
21,1,1.0782,0.5813,0,0,90.0*
21,1,0.6813,0.9782,0,0,90.0*
1,1,0.3970,0.2906,0.3406*
1,1,0.3970,0.2906,-0.3406*
1,1,0.3970,-0.2906,-0.3406*
1,1,0.3970,-0.2906,0.3406*
%
%ADD135ROUNDEDRECTD135*%
G04:AMPARAMS|DCode=136|XSize=1.4032mm|YSize=2.1032mm|CornerRadius=0.2516mm|HoleSize=0mm|Usage=FLASHONLY|Rotation=90.000|XOffset=0mm|YOffset=0mm|HoleType=Round|Shape=RoundedRectangle|*
%AMROUNDEDRECTD136*
21,1,1.4032,1.6000,0,0,90.0*
21,1,0.9000,2.1032,0,0,90.0*
1,1,0.5032,0.8000,0.4500*
1,1,0.5032,0.8000,-0.4500*
1,1,0.5032,-0.8000,-0.4500*
1,1,0.5032,-0.8000,0.4500*
%
%ADD136ROUNDEDRECTD136*%
G36*
X114444Y111800D02*
X114667Y110103D01*
X115322Y108522D01*
X116364Y107164D01*
X117722Y106122D01*
X119303Y105467D01*
X121000Y105244D01*
X122697Y105467D01*
X124278Y106122D01*
X125636Y107164D01*
X126678Y108522D01*
X127333Y110103D01*
X127556Y111800D01*
D01*
X127333Y113497D01*
X126678Y115078D01*
X125636Y116436D01*
X124278Y117478D01*
X122697Y118133D01*
X121000Y118356D01*
X119303Y118133D01*
X117722Y117478D01*
X116364Y116436D01*
X115322Y115078D01*
X114667Y113497D01*
X114444Y111800D01*
D01*
D02*
G37*
G36*
X204444D02*
X204667Y110103D01*
X205322Y108522D01*
X206364Y107164D01*
X207722Y106122D01*
X209303Y105467D01*
X211000Y105244D01*
X212697Y105467D01*
X214278Y106122D01*
X215636Y107164D01*
X216678Y108522D01*
X217333Y110103D01*
X217556Y111800D01*
D01*
X217333Y113497D01*
X216678Y115078D01*
X215636Y116436D01*
X214278Y117478D01*
X212697Y118133D01*
X211000Y118356D01*
X209303Y118133D01*
X207722Y117478D01*
X206364Y116436D01*
X205322Y115078D01*
X204667Y113497D01*
X204444Y111800D01*
D01*
D02*
G37*
G36*
X243444D02*
X243667Y110103D01*
X244322Y108522D01*
X245364Y107164D01*
X246722Y106122D01*
X248303Y105467D01*
X250000Y105244D01*
X251697Y105467D01*
X253278Y106122D01*
X254636Y107164D01*
X255678Y108522D01*
X256333Y110103D01*
X256556Y111800D01*
D01*
X256333Y113497D01*
X255678Y115078D01*
X254636Y116436D01*
X253278Y117478D01*
X251697Y118133D01*
X250000Y118356D01*
X248303Y118133D01*
X246722Y117478D01*
X245364Y116436D01*
X244322Y115078D01*
X243667Y113497D01*
X243444Y111800D01*
D01*
D02*
G37*
G36*
X333444D02*
X333667Y110103D01*
X334322Y108522D01*
X335364Y107164D01*
X336722Y106122D01*
X338303Y105467D01*
X340000Y105244D01*
X341697Y105467D01*
X343278Y106122D01*
X344636Y107164D01*
X345678Y108522D01*
X346333Y110103D01*
X346556Y111800D01*
D01*
X346333Y113497D01*
X345678Y115078D01*
X344636Y116436D01*
X343278Y117478D01*
X341697Y118133D01*
X340000Y118356D01*
X338303Y118133D01*
X336722Y117478D01*
X335364Y116436D01*
X334322Y115078D01*
X333667Y113497D01*
X333444Y111800D01*
D01*
D02*
G37*
G36*
X714500Y33602D02*
X716451Y33990D01*
X718105Y35095D01*
X719210Y36749D01*
X719598Y38700D01*
X719210Y40651D01*
X718105Y42305D01*
X716451Y43410D01*
X714500Y43798D01*
D01*
X712549Y43410D01*
X710895Y42305D01*
X709790Y40651D01*
X709402Y38700D01*
X709790Y36749D01*
X710895Y35095D01*
X712549Y33990D01*
X714500Y33602D01*
D01*
D02*
G37*
G36*
X804500D02*
X806451Y33990D01*
X808105Y35095D01*
X809210Y36749D01*
X809598Y38700D01*
X809210Y40651D01*
X808105Y42305D01*
X806451Y43410D01*
X804500Y43798D01*
D01*
X802549Y43410D01*
X800895Y42305D01*
X799790Y40651D01*
X799402Y38700D01*
X799790Y36749D01*
X800895Y35095D01*
X802549Y33990D01*
X804500Y33602D01*
D01*
D02*
G37*
G36*
X877400Y547444D02*
X879097Y547667D01*
X880678Y548322D01*
X882036Y549364D01*
X883078Y550722D01*
X883733Y552303D01*
X883956Y554000D01*
X883733Y555697D01*
X883078Y557278D01*
X882036Y558636D01*
X880678Y559678D01*
X879097Y560333D01*
X877400Y560556D01*
D01*
X875703Y560333D01*
X874122Y559678D01*
X872764Y558636D01*
X871722Y557278D01*
X871067Y555697D01*
X870844Y554000D01*
X871067Y552303D01*
X871722Y550722D01*
X872764Y549364D01*
X874122Y548322D01*
X875703Y547667D01*
X877400Y547444D01*
D01*
D02*
G37*
G36*
Y637444D02*
X879097Y637667D01*
X880678Y638322D01*
X882036Y639364D01*
X883078Y640722D01*
X883733Y642303D01*
X883956Y644000D01*
X883733Y645697D01*
X883078Y647278D01*
X882036Y648636D01*
X880678Y649678D01*
X879097Y650333D01*
X877400Y650556D01*
D01*
X875703Y650333D01*
X874122Y649678D01*
X872764Y648636D01*
X871722Y647278D01*
X871067Y645697D01*
X870844Y644000D01*
X871067Y642303D01*
X871722Y640722D01*
X872764Y639364D01*
X874122Y638322D01*
X875703Y637667D01*
X877400Y637444D01*
D01*
D02*
G37*
D11*
X896000Y244000D02*
G03*
X896000Y234000I0J-5000D01*
G01*
Y161600D02*
G03*
X896000Y151600I0J-5000D01*
G01*
X749800Y921000D02*
X818800D01*
X547000Y921000D02*
X616000D01*
X343400Y921000D02*
X412400D01*
X140200D02*
X209200D01*
X961000Y141600D02*
Y151600D01*
X896000D02*
X961000D01*
X961000Y0D02*
X961000Y141600D01*
X0Y0D02*
X961000D01*
X961000Y254000D02*
X961000Y920000D01*
X896000Y244000D02*
X961000D01*
Y254000D01*
X896000Y161600D02*
Y234000D01*
X0Y920000D02*
X0Y0D01*
X0Y920000D02*
X961000D01*
D55*
X828600Y892000D02*
D03*
X741300D02*
D03*
X625800Y892000D02*
D03*
X538500D02*
D03*
X422200Y892000D02*
D03*
X334900D02*
D03*
X219000D02*
D03*
X131700D02*
D03*
D58*
X819000Y234000D02*
D03*
Y224000D02*
D03*
X809000D02*
D03*
Y234000D02*
D03*
X36000Y346000D02*
D03*
X36000Y356000D02*
D03*
X760000Y550000D02*
D03*
Y560000D02*
D03*
X630000Y572000D02*
D03*
Y582000D02*
D03*
X643000Y307000D02*
D03*
Y297000D02*
D03*
X653000D02*
D03*
Y307000D02*
D03*
X654000Y268000D02*
D03*
X654000Y258000D02*
D03*
X644000Y268000D02*
D03*
X644000Y258000D02*
D03*
X697000Y299000D02*
D03*
X697000Y309000D02*
D03*
X470000Y505000D02*
D03*
X470000Y495000D02*
D03*
X480000Y475000D02*
D03*
Y485000D02*
D03*
X495000Y505000D02*
D03*
X495000Y495000D02*
D03*
X480000Y505000D02*
D03*
X480000Y495000D02*
D03*
X490000Y569000D02*
D03*
X490000Y579000D02*
D03*
X460000Y495000D02*
D03*
X460000Y505000D02*
D03*
X512000Y569000D02*
D03*
X512000Y579000D02*
D03*
D65*
X41000Y318000D02*
D03*
X51000D02*
D03*
X37000Y307000D02*
D03*
X47000D02*
D03*
X37000Y329000D02*
D03*
X47000D02*
D03*
X151000Y362000D02*
D03*
X161000D02*
D03*
X37000Y373000D02*
D03*
X47000D02*
D03*
X37000Y384000D02*
D03*
X47000D02*
D03*
X750000Y560000D02*
D03*
X740000D02*
D03*
X620000Y582000D02*
D03*
X610000D02*
D03*
X521875Y304625D02*
D03*
X531875Y304625D02*
D03*
X531875Y266625D02*
D03*
X521875Y266625D02*
D03*
X548000Y335000D02*
D03*
X558000Y335000D02*
D03*
X548000Y279000D02*
D03*
X558000Y279000D02*
D03*
X623000Y231000D02*
D03*
X633000Y231000D02*
D03*
X688000Y231000D02*
D03*
X698000Y231000D02*
D03*
X629000Y300000D02*
D03*
X619000Y300000D02*
D03*
X629000Y310000D02*
D03*
X619000Y310000D02*
D03*
X450000Y520000D02*
D03*
X440000Y520000D02*
D03*
X450000Y509000D02*
D03*
X440000Y509000D02*
D03*
D88*
X657701Y409002D02*
D03*
X670401Y421702D02*
D03*
X657701D02*
D03*
X670401Y409002D02*
D03*
X619601Y421702D02*
D03*
X645001D02*
D03*
X632301D02*
D03*
X619601Y409002D02*
D03*
X645001D02*
D03*
X632301D02*
D03*
X606899D02*
D03*
Y421702D02*
D03*
X683101D02*
D03*
Y409002D02*
D03*
X556352Y491001D02*
D03*
X543652D02*
D03*
D89*
X897000Y584000D02*
D03*
X744500Y78200D02*
D03*
D90*
X897000Y614000D02*
D03*
X744500Y48200D02*
D03*
X774500Y78200D02*
D03*
Y48200D02*
D03*
D91*
X557000Y62000D02*
D03*
X517000D02*
D03*
X537000D02*
D03*
X477000D02*
D03*
X437000D02*
D03*
X457000D02*
D03*
X517000Y82000D02*
D03*
X537000D02*
D03*
X477000D02*
D03*
X437000D02*
D03*
X457000D02*
D03*
X497000Y62000D02*
D03*
Y82000D02*
D03*
D92*
X557000D02*
D03*
D93*
X151000Y92200D02*
D03*
X280000D02*
D03*
D94*
X181000D02*
D03*
X310000D02*
D03*
D95*
X145000Y501000D02*
D03*
Y473000D02*
D03*
X108000Y538333D02*
D03*
Y549222D02*
D03*
X145000Y487000D02*
D03*
X169500Y493500D02*
D03*
X145000Y543000D02*
D03*
Y557000D02*
D03*
Y529000D02*
D03*
Y515000D02*
D03*
Y571000D02*
D03*
X108000Y560111D02*
D03*
Y527444D02*
D03*
Y516555D02*
D03*
Y505667D02*
D03*
Y494778D02*
D03*
Y571000D02*
D03*
X218000Y478000D02*
D03*
X108000Y473000D02*
D03*
Y483889D02*
D03*
X844942Y296389D02*
D03*
D96*
X59700Y572800D02*
D03*
Y522000D02*
D03*
Y547400D02*
D03*
Y471200D02*
D03*
X34300Y522000D02*
D03*
Y547400D02*
D03*
Y471200D02*
D03*
X59700Y496600D02*
D03*
X34300D02*
D03*
D97*
Y572800D02*
D03*
D98*
X743700Y513000D02*
D03*
X718300D02*
D03*
X178600Y452700D02*
D03*
X204000Y452700D02*
D03*
X229400Y452700D02*
D03*
Y427300D02*
D03*
X204000Y427300D02*
D03*
X178600Y427300D02*
D03*
D99*
X940000Y254000D02*
D03*
Y141600D02*
D03*
D100*
X900000Y254000D02*
D03*
Y141600D02*
D03*
D101*
X844942Y397389D02*
D03*
X845942Y343389D02*
D03*
X844942Y504389D02*
D03*
X845942Y450389D02*
D03*
D102*
X124800Y892000D02*
D03*
X937600D02*
D03*
X886800D02*
D03*
X836000D02*
D03*
X785200D02*
D03*
X734400D02*
D03*
X632800D02*
D03*
X683600D02*
D03*
X582000D02*
D03*
X531200D02*
D03*
X277200D02*
D03*
X74000Y892000D02*
D03*
X23200Y892000D02*
D03*
X226400D02*
D03*
X175600D02*
D03*
X429600D02*
D03*
X480400D02*
D03*
X378800D02*
D03*
X328000D02*
D03*
D103*
X833000Y202000D02*
D03*
Y208000D02*
D03*
X791000Y237000D02*
D03*
X819000Y224000D02*
D03*
X809001Y224000D02*
D03*
X158000Y521000D02*
D03*
X203000Y576000D02*
D03*
X153000Y451000D02*
D03*
X267000Y478000D02*
D03*
X180000Y575000D02*
D03*
X153000Y614000D02*
D03*
X145999Y602000D02*
D03*
X146000Y627000D02*
D03*
X642000Y505000D02*
D03*
X663000Y530000D02*
D03*
X545798Y524798D02*
D03*
X728000Y210000D02*
D03*
X713000Y185000D02*
D03*
X698000Y231000D02*
D03*
X680000Y190000D02*
D03*
X620000Y181000D02*
D03*
X658000Y187000D02*
D03*
X587000Y175000D02*
D03*
X487000Y269000D02*
D03*
X477000Y270000D02*
D03*
X476000Y284000D02*
D03*
X512000Y306000D02*
D03*
X542000Y100000D02*
D03*
X534000Y130000D02*
D03*
X514000Y257000D02*
D03*
X512000Y294000D02*
D03*
X430000Y345000D02*
D03*
X688964Y187036D02*
D03*
X620000Y195000D02*
D03*
X650000Y230000D02*
D03*
X656000Y236000D02*
D03*
X640000Y200000D02*
D03*
X738000Y277000D02*
D03*
X741000Y304000D02*
D03*
X774000Y281000D02*
D03*
X734000Y319000D02*
D03*
X719000Y350000D02*
D03*
X715000Y356000D02*
D03*
X767000Y286000D02*
D03*
X728000Y396000D02*
D03*
X735000Y390000D02*
D03*
X712000Y317000D02*
D03*
X705000Y325000D02*
D03*
X682036Y299965D02*
D03*
X675000Y300000D02*
D03*
X689000Y364000D02*
D03*
X644000Y258000D02*
D03*
X654000Y268000D02*
D03*
X644000Y268000D02*
D03*
X623000Y231000D02*
D03*
X562000Y256000D02*
D03*
X579000Y267000D02*
D03*
Y279000D02*
D03*
X571000Y249000D02*
D03*
X581000Y248000D02*
D03*
X694000Y243000D02*
D03*
X565000Y377000D02*
D03*
X555000D02*
D03*
X560793Y429063D02*
D03*
X595000Y385072D02*
D03*
X619000Y391000D02*
D03*
X587000Y378000D02*
D03*
X531875Y266625D02*
D03*
X523188Y320000D02*
D03*
X570000Y326000D02*
D03*
X575000Y332674D02*
D03*
X560000Y439000D02*
D03*
X409857Y496000D02*
D03*
X548000Y335000D02*
D03*
X381000Y410000D02*
D03*
X583000Y314000D02*
D03*
X620000Y286000D02*
D03*
X595000Y396000D02*
D03*
X638000Y472000D02*
D03*
X632965Y485036D02*
D03*
X527000Y753000D02*
D03*
X697000Y309000D02*
D03*
X682000Y391000D02*
D03*
X738000Y297000D02*
D03*
X690000Y258000D02*
D03*
X660000Y344000D02*
D03*
X666464Y355000D02*
D03*
X150999Y362001D02*
D03*
X36000Y346000D02*
D03*
Y356000D02*
D03*
X36999Y373000D02*
D03*
X36999Y307001D02*
D03*
X37000Y329000D02*
D03*
X40999Y318001D02*
D03*
X46999Y373000D02*
D03*
X46999Y329001D02*
D03*
Y384001D02*
D03*
X47000Y307000D02*
D03*
X50000Y351000D02*
D03*
X51000Y318000D02*
D03*
X161000Y362000D02*
D03*
X743000Y248000D02*
D03*
X864000Y214000D02*
D03*
X866999Y182000D02*
D03*
X737000Y268000D02*
D03*
X855000Y220000D02*
D03*
Y185000D02*
D03*
X873000Y195300D02*
D03*
Y205300D02*
D03*
X865000Y190300D02*
D03*
Y200300D02*
D03*
X629001Y607001D02*
D03*
X760001D02*
D03*
X760000Y550000D02*
D03*
X690000Y532000D02*
D03*
X533000Y550000D02*
D03*
X561000Y569000D02*
D03*
X559000Y562000D02*
D03*
X609999Y582000D02*
D03*
X552000Y586000D02*
D03*
X557000Y544000D02*
D03*
X553000Y529000D02*
D03*
X560000Y464000D02*
D03*
X554034Y479035D02*
D03*
X779571Y160971D02*
D03*
X655000Y376000D02*
D03*
X730000Y263000D02*
D03*
X675000Y356000D02*
D03*
X550000Y463000D02*
D03*
X508929Y458000D02*
D03*
X680000Y346000D02*
D03*
X685000Y340500D02*
D03*
X521875Y304625D02*
D03*
X814000Y438000D02*
D03*
X891625Y380000D02*
D03*
X891250Y346000D02*
D03*
X814000Y403000D02*
D03*
X896000Y532000D02*
D03*
X905300Y507000D02*
D03*
X619000Y309830D02*
D03*
X439965Y449965D02*
D03*
X382000Y518000D02*
D03*
X428000Y551000D02*
D03*
X420000Y514000D02*
D03*
X408000Y587828D02*
D03*
X400000Y546000D02*
D03*
X533000Y759000D02*
D03*
X478000Y770000D02*
D03*
X486000Y613001D02*
D03*
X475998Y613001D02*
D03*
X486001Y603000D02*
D03*
X552000Y596000D02*
D03*
X485750Y623250D02*
D03*
X430000Y632000D02*
D03*
Y640000D02*
D03*
Y648000D02*
D03*
X230000Y674000D02*
D03*
X366571Y645072D02*
D03*
X368036Y636536D02*
D03*
X526000Y545000D02*
D03*
X434000Y555000D02*
D03*
X419999Y524000D02*
D03*
X382000Y584000D02*
D03*
X288000Y603000D02*
D03*
X260000Y440286D02*
D03*
X270000Y555000D02*
D03*
X654000Y258000D02*
D03*
X629000Y300000D02*
D03*
X619000D02*
D03*
X688000Y231000D02*
D03*
X633000Y231000D02*
D03*
X697000Y299000D02*
D03*
X629000Y310000D02*
D03*
X653000Y297000D02*
D03*
X643000Y296999D02*
D03*
Y307000D02*
D03*
X522000Y279250D02*
D03*
X531750Y292000D02*
D03*
X548000Y279000D02*
D03*
X551000Y293000D02*
D03*
Y321000D02*
D03*
X721570Y121971D02*
D03*
X794071Y160971D02*
D03*
Y132971D02*
D03*
X779571D02*
D03*
X734071Y157471D02*
D03*
X700071Y157471D02*
D03*
X666071D02*
D03*
X755570Y121971D02*
D03*
X687571Y121971D02*
D03*
X245750Y676950D02*
D03*
Y702350D02*
D03*
X739999Y560000D02*
D03*
X791000Y607000D02*
D03*
X729000D02*
D03*
X660001Y607001D02*
D03*
X598000Y607000D02*
D03*
X489823Y579177D02*
D03*
X608000Y520000D02*
D03*
X626000Y505000D02*
D03*
X525000Y643000D02*
D03*
X525000Y653000D02*
D03*
X517000Y663000D02*
D03*
Y673000D02*
D03*
X515000Y637000D02*
D03*
X515000Y647000D02*
D03*
X522999Y398000D02*
D03*
X513025Y397975D02*
D03*
X512975Y421000D02*
D03*
X382000Y419000D02*
D03*
X288036Y470965D02*
D03*
X290000Y480000D02*
D03*
X302750Y573650D02*
D03*
X433750Y436050D02*
D03*
X302750Y467050D02*
D03*
X302750Y533050D02*
D03*
X302750Y599050D02*
D03*
X381964Y485036D02*
D03*
X302750Y441650D02*
D03*
X367250Y454350D02*
D03*
X382000Y551001D02*
D03*
X276000Y590000D02*
D03*
X376499Y635001D02*
D03*
X170750Y627050D02*
D03*
X419001Y410000D02*
D03*
X425000Y454000D02*
D03*
X416000D02*
D03*
X367250Y520350D02*
D03*
X419000Y440000D02*
D03*
X475998Y623002D02*
D03*
X468000Y476999D02*
D03*
X458000Y477000D02*
D03*
X438000D02*
D03*
X448000D02*
D03*
X498250Y423350D02*
D03*
X512825Y410825D02*
D03*
X381825Y441825D02*
D03*
X381913Y507913D02*
D03*
X381912Y573913D02*
D03*
X340000Y547000D02*
D03*
X288001Y537000D02*
D03*
X302750Y507650D02*
D03*
X330000Y547000D02*
D03*
X340000Y481000D02*
D03*
X382000Y452000D02*
D03*
X330000Y481000D02*
D03*
X367250Y586350D02*
D03*
X340000Y613000D02*
D03*
X330000Y613000D02*
D03*
X386500Y635000D02*
D03*
X406500D02*
D03*
X376500Y645001D02*
D03*
X386499Y645001D02*
D03*
X396499D02*
D03*
X406500Y645000D02*
D03*
X193000Y641000D02*
D03*
X203000D02*
D03*
X250000Y602000D02*
D03*
Y614000D02*
D03*
X495000Y495000D02*
D03*
X480001Y475001D02*
D03*
X480000Y495000D02*
D03*
X460000Y515000D02*
D03*
Y526000D02*
D03*
Y537000D02*
D03*
Y548000D02*
D03*
Y559000D02*
D03*
X471000Y515000D02*
D03*
Y526000D02*
D03*
Y537000D02*
D03*
Y548000D02*
D03*
Y559000D02*
D03*
X482000Y515000D02*
D03*
Y526000D02*
D03*
Y537000D02*
D03*
Y548000D02*
D03*
Y559000D02*
D03*
X493000Y515000D02*
D03*
Y526000D02*
D03*
Y537000D02*
D03*
Y548000D02*
D03*
Y559000D02*
D03*
X504000Y515000D02*
D03*
Y526000D02*
D03*
Y537000D02*
D03*
Y548000D02*
D03*
Y559000D02*
D03*
X479500Y582000D02*
D03*
X799000Y806250D02*
D03*
X814000Y760000D02*
D03*
X506000Y786000D02*
D03*
X483000Y851000D02*
D03*
X488000Y845000D02*
D03*
X478000D02*
D03*
X393929Y806000D02*
D03*
X440000Y520000D02*
D03*
X516000Y603000D02*
D03*
X446000Y613000D02*
D03*
X446000Y603000D02*
D03*
X475999D02*
D03*
X479000Y590000D02*
D03*
X433750Y410650D02*
D03*
X460000Y450000D02*
D03*
X470000Y450000D02*
D03*
X512000Y579000D02*
D03*
X440000Y509000D02*
D03*
X939000Y667000D02*
D03*
X935000Y738000D02*
D03*
X899000Y738000D02*
D03*
X917000Y738000D02*
D03*
X935000Y774000D02*
D03*
X899000Y774000D02*
D03*
X917000Y774000D02*
D03*
X935000Y756000D02*
D03*
X899000Y756000D02*
D03*
X917000Y756000D02*
D03*
X911000Y667000D02*
D03*
X923000D02*
D03*
X351000Y720001D02*
D03*
X517000Y710000D02*
D03*
X507000Y710000D02*
D03*
X497000Y710000D02*
D03*
X487000Y710000D02*
D03*
X477000D02*
D03*
X497000Y700000D02*
D03*
X457000Y710000D02*
D03*
X447000Y710000D02*
D03*
X212000Y712000D02*
D03*
X349000Y746000D02*
D03*
X387000Y748000D02*
D03*
X387000Y758000D02*
D03*
X329000Y769000D02*
D03*
X184000Y758000D02*
D03*
X591000D02*
D03*
X612000Y760000D02*
D03*
X794000Y758000D02*
D03*
X736001Y769000D02*
D03*
X533001D02*
D03*
X422000Y691000D02*
D03*
X423000Y674000D02*
D03*
X423000Y664000D02*
D03*
X361000Y720000D02*
D03*
X341000Y710000D02*
D03*
X382000Y710000D02*
D03*
X392000Y710000D02*
D03*
X405000Y760000D02*
D03*
X174000Y690000D02*
D03*
X559000Y819250D02*
D03*
X738000Y823999D02*
D03*
X506000Y813000D02*
D03*
X506000Y803000D02*
D03*
X379000Y825000D02*
D03*
X138000Y824000D02*
D03*
X183000Y734000D02*
D03*
X193000D02*
D03*
X483000Y655000D02*
D03*
X467000Y710000D02*
D03*
X517000Y700000D02*
D03*
X507000Y700000D02*
D03*
X487000D02*
D03*
X477000Y700000D02*
D03*
X467000Y700000D02*
D03*
X457000D02*
D03*
X447000Y700000D02*
D03*
X517002Y719998D02*
D03*
X507000Y720000D02*
D03*
X497000D02*
D03*
X487000D02*
D03*
X477002Y719998D02*
D03*
X467002D02*
D03*
X457002D02*
D03*
X447000Y719999D02*
D03*
X359000Y769000D02*
D03*
X596000Y806250D02*
D03*
X804000Y758000D02*
D03*
X601000D02*
D03*
X194000D02*
D03*
X397000D02*
D03*
X738001Y844000D02*
D03*
X736000Y789000D02*
D03*
X766000Y769000D02*
D03*
X794000Y748000D02*
D03*
X822000Y779000D02*
D03*
Y788999D02*
D03*
X820000Y844000D02*
D03*
X810000Y852000D02*
D03*
X800000D02*
D03*
X757999Y852000D02*
D03*
X762000Y819250D02*
D03*
X619001Y789000D02*
D03*
X619000Y778999D02*
D03*
X591000Y748000D02*
D03*
X563000Y769000D02*
D03*
X533000Y789000D02*
D03*
X617000Y843999D02*
D03*
X597000Y852000D02*
D03*
X555000Y852000D02*
D03*
X607000D02*
D03*
X535000Y844000D02*
D03*
X794000Y788000D02*
D03*
X804000Y780000D02*
D03*
X794000D02*
D03*
X799000Y784000D02*
D03*
X591000Y788000D02*
D03*
X601000Y780000D02*
D03*
X591000D02*
D03*
X596000Y784000D02*
D03*
X212000Y791999D02*
D03*
X186750Y805250D02*
D03*
X184000Y788000D02*
D03*
X194000Y780000D02*
D03*
X184000D02*
D03*
X189000Y784000D02*
D03*
X156000Y769000D02*
D03*
X204000Y760000D02*
D03*
X184000Y748000D02*
D03*
X212002Y781998D02*
D03*
X147998Y851999D02*
D03*
X128001Y844000D02*
D03*
X152000Y819250D02*
D03*
X190000Y852000D02*
D03*
X210000Y844000D02*
D03*
X200000Y852000D02*
D03*
X126000Y789000D02*
D03*
X423000Y844000D02*
D03*
X403000Y852000D02*
D03*
X415000Y788999D02*
D03*
Y779000D02*
D03*
X392000Y784000D02*
D03*
X387000Y780000D02*
D03*
X397000D02*
D03*
X387000Y788000D02*
D03*
X329000Y789000D02*
D03*
X393000Y852000D02*
D03*
X355000Y819250D02*
D03*
X350999Y852000D02*
D03*
X331001Y844001D02*
D03*
X943400Y507000D02*
D03*
X930000Y399000D02*
D03*
X918000Y443000D02*
D03*
X918000Y425000D02*
D03*
X918000Y461000D02*
D03*
X923000Y328500D02*
D03*
X930000Y364000D02*
D03*
X892000Y304000D02*
D03*
X891600Y692000D02*
D03*
X940001Y300000D02*
D03*
X940001Y310001D02*
D03*
X940000Y320000D02*
D03*
X892000Y314000D02*
D03*
X913000Y328500D02*
D03*
X907000Y317500D02*
D03*
X950001Y300000D02*
D03*
Y310000D02*
D03*
Y320000D02*
D03*
X892000Y362000D02*
D03*
Y396000D02*
D03*
X900000Y461000D02*
D03*
X936000Y461000D02*
D03*
X936000Y425000D02*
D03*
X900000Y425000D02*
D03*
X900000Y443000D02*
D03*
X936000Y443000D02*
D03*
X924000Y532000D02*
D03*
X911995D02*
D03*
X940000D02*
D03*
X944000Y397000D02*
D03*
Y381005D02*
D03*
Y346000D02*
D03*
Y362000D02*
D03*
D135*
X531750Y279250D02*
D03*
X522000Y292000D02*
D03*
Y279250D02*
D03*
X531750Y292000D02*
D03*
D136*
X551000Y293000D02*
D03*
Y321000D02*
D03*
M02*
