G04*
G04 #@! TF.GenerationSoftware,Altium Limited,Altium Designer,22.0.2 (36)*
G04*
G04 Layer_Physical_Order=2*
G04 Layer_Color=128*
%FSLAX44Y44*%
%MOMM*%
G71*
G04*
G04 #@! TF.SameCoordinates,BB817302-6D05-45A6-82D7-9B19CF937CD1*
G04*
G04*
G04 #@! TF.FilePolarity,Negative*
G04*
G01*
G75*
%ADD11C,0.1500*%
%ADD14C,0.6000*%
%ADD106C,1.3000*%
%ADD122C,1.0160*%
%ADD123C,1.1000*%
%ADD124C,1.8000*%
%ADD125C,1.6000*%
%ADD126C,1.5000*%
%ADD127C,0.7500*%
%ADD128C,3.7000*%
%ADD129C,2.0000*%
%ADD130C,0.6500*%
D11*
X896000Y244000D02*
G03*
X896000Y234000I0J-5000D01*
G01*
Y161600D02*
G03*
X896000Y151600I0J-5000D01*
G01*
X749800Y921000D02*
X818800D01*
X547000Y921000D02*
X616000D01*
X343400Y921000D02*
X412400D01*
X140200D02*
X209200D01*
X961000Y141600D02*
Y151600D01*
X896000D02*
X961000D01*
X961000Y0D02*
X961000Y141600D01*
X0Y0D02*
X961000D01*
X961000Y254000D02*
X961000Y920000D01*
X896000Y244000D02*
X961000D01*
Y254000D01*
X896000Y161600D02*
Y234000D01*
X0Y920000D02*
X0Y0D01*
X0Y920000D02*
X961000D01*
D14*
X489000Y655000D02*
X961000Y655000D01*
X0D02*
X477000D01*
D106*
X557000Y62000D02*
D03*
X517000D02*
D03*
X537000D02*
D03*
X477000D02*
D03*
X457000D02*
D03*
X557000Y82000D02*
D03*
X517000D02*
D03*
X537000D02*
D03*
X477000D02*
D03*
X437000D02*
D03*
X457000D02*
D03*
X497000Y62000D02*
D03*
Y82000D02*
D03*
D122*
X896000Y161600D02*
G03*
X896000Y151600I0J-5000D01*
G01*
Y244000D02*
G03*
X896000Y234000I0J-5000D01*
G01*
Y161600D02*
Y234000D01*
Y151600D02*
X961000D01*
X961000Y141600D01*
X961000Y0D02*
X961000Y141600D01*
X0Y0D02*
X961000D01*
X961000Y254000D02*
X961000Y920000D01*
X961000Y244000D02*
Y254000D01*
X896000Y244000D02*
X961000D01*
X0Y920000D02*
X961000D01*
X0D02*
X0Y0D01*
D123*
X657701Y409002D02*
D03*
X670401Y421702D02*
D03*
Y409002D02*
D03*
X632301Y421702D02*
D03*
X619601Y409002D02*
D03*
X645001D02*
D03*
X632301D02*
D03*
X606899D02*
D03*
Y421702D02*
D03*
X683101D02*
D03*
Y409002D02*
D03*
X556352Y491001D02*
D03*
D124*
X877400Y644000D02*
D03*
Y554000D02*
D03*
X211000Y111800D02*
D03*
X121000D02*
D03*
X340000D02*
D03*
X250000D02*
D03*
D125*
X897000Y614000D02*
D03*
X744500Y78200D02*
D03*
Y48200D02*
D03*
X774500Y78200D02*
D03*
Y48200D02*
D03*
X151000Y92200D02*
D03*
X280000D02*
D03*
D126*
X804500Y38700D02*
D03*
X714500D02*
D03*
X59700Y572800D02*
D03*
Y522000D02*
D03*
Y547400D02*
D03*
Y471200D02*
D03*
X34300Y572800D02*
D03*
Y522000D02*
D03*
Y547400D02*
D03*
Y471200D02*
D03*
X59700Y496600D02*
D03*
X34300D02*
D03*
X718300Y513000D02*
D03*
X844942Y397389D02*
D03*
Y504389D02*
D03*
X845942Y450389D02*
D03*
X178600Y452700D02*
D03*
X204000Y452700D02*
D03*
X229400Y452700D02*
D03*
Y427300D02*
D03*
X204000Y427300D02*
D03*
X178600Y427300D02*
D03*
D127*
X145000Y501000D02*
D03*
Y473000D02*
D03*
X108000Y538333D02*
D03*
Y549222D02*
D03*
X145000Y487000D02*
D03*
X169500Y493500D02*
D03*
X145000Y543000D02*
D03*
Y529000D02*
D03*
Y515000D02*
D03*
Y571000D02*
D03*
X108000Y560111D02*
D03*
Y527444D02*
D03*
Y516555D02*
D03*
Y505667D02*
D03*
Y494778D02*
D03*
Y571000D02*
D03*
X218000Y478000D02*
D03*
X108000Y473000D02*
D03*
Y483889D02*
D03*
X844942Y296389D02*
D03*
D128*
X37000Y833000D02*
D03*
X924000D02*
D03*
X37000Y37020D02*
D03*
X924000Y37000D02*
D03*
D129*
X937600Y892000D02*
D03*
X886800D02*
D03*
X785200D02*
D03*
X683600D02*
D03*
X582000D02*
D03*
X277200D02*
D03*
X74000Y892000D02*
D03*
X23200Y892000D02*
D03*
X175600D02*
D03*
X480400D02*
D03*
X378800D02*
D03*
D130*
X791000Y237000D02*
D03*
X819000Y224000D02*
D03*
X158000Y521000D02*
D03*
X203000Y576000D02*
D03*
X153000Y451000D02*
D03*
X267000Y478000D02*
D03*
X180000Y575000D02*
D03*
X153000Y614000D02*
D03*
X145999Y602000D02*
D03*
X146000Y627000D02*
D03*
X642000Y505000D02*
D03*
X663000Y530000D02*
D03*
X545798Y524798D02*
D03*
X728000Y210000D02*
D03*
X713000Y185000D02*
D03*
X698000Y231000D02*
D03*
X680000Y190000D02*
D03*
X620000Y181000D02*
D03*
X658000Y187000D02*
D03*
X587000Y175000D02*
D03*
X487000Y269000D02*
D03*
X477000Y270000D02*
D03*
X476000Y284000D02*
D03*
X512000Y306000D02*
D03*
X542000Y100000D02*
D03*
X534000Y130000D02*
D03*
X514000Y257000D02*
D03*
X512000Y294000D02*
D03*
X430000Y345000D02*
D03*
X688964Y187036D02*
D03*
X620000Y195000D02*
D03*
X650000Y230000D02*
D03*
X656000Y236000D02*
D03*
X640000Y200000D02*
D03*
X738000Y277000D02*
D03*
X741000Y304000D02*
D03*
X774000Y281000D02*
D03*
X734000Y319000D02*
D03*
X719000Y350000D02*
D03*
X715000Y356000D02*
D03*
X767000Y286000D02*
D03*
X728000Y396000D02*
D03*
X735000Y390000D02*
D03*
X712000Y317000D02*
D03*
X705000Y325000D02*
D03*
X682036Y299965D02*
D03*
X675000Y300000D02*
D03*
X689000Y364000D02*
D03*
X644000Y258000D02*
D03*
X654000Y268000D02*
D03*
X562000Y256000D02*
D03*
X579000Y267000D02*
D03*
Y279000D02*
D03*
X571000Y249000D02*
D03*
X581000Y248000D02*
D03*
X694000Y243000D02*
D03*
X565000Y377000D02*
D03*
X555000D02*
D03*
X560793Y429063D02*
D03*
X595000Y385072D02*
D03*
X619000Y391000D02*
D03*
X587000Y378000D02*
D03*
X523188Y320000D02*
D03*
X570000Y326000D02*
D03*
X575000Y332674D02*
D03*
X560000Y439000D02*
D03*
X409857Y496000D02*
D03*
X381000Y410000D02*
D03*
X583000Y314000D02*
D03*
X620000Y286000D02*
D03*
X595000Y396000D02*
D03*
X638000Y472000D02*
D03*
X632965Y485036D02*
D03*
X527000Y753000D02*
D03*
X697000Y309000D02*
D03*
X682000Y391000D02*
D03*
X738000Y297000D02*
D03*
X690000Y258000D02*
D03*
X660000Y344000D02*
D03*
X666464Y355000D02*
D03*
X150999Y362001D02*
D03*
X36000Y346000D02*
D03*
X36999Y373000D02*
D03*
X36999Y307001D02*
D03*
X37000Y329000D02*
D03*
X40999Y318001D02*
D03*
X46999Y373000D02*
D03*
X46999Y329001D02*
D03*
Y384001D02*
D03*
X47000Y307000D02*
D03*
X50000Y351000D02*
D03*
X51000Y318000D02*
D03*
X161000Y362000D02*
D03*
X743000Y248000D02*
D03*
X737000Y268000D02*
D03*
X855000Y220000D02*
D03*
Y185000D02*
D03*
X873000Y195300D02*
D03*
Y205300D02*
D03*
X865000Y190300D02*
D03*
Y200300D02*
D03*
X629001Y607001D02*
D03*
X760001D02*
D03*
X760000Y550000D02*
D03*
X690000Y532000D02*
D03*
X533000Y550000D02*
D03*
X561000Y569000D02*
D03*
X559000Y562000D02*
D03*
X552000Y586000D02*
D03*
X557000Y544000D02*
D03*
X553000Y529000D02*
D03*
X560000Y464000D02*
D03*
X554034Y479035D02*
D03*
X779571Y160971D02*
D03*
X655000Y376000D02*
D03*
X730000Y263000D02*
D03*
X675000Y356000D02*
D03*
X550000Y463000D02*
D03*
X508929Y458000D02*
D03*
X680000Y346000D02*
D03*
X685000Y340500D02*
D03*
X814000Y438000D02*
D03*
X891625Y380000D02*
D03*
X891250Y346000D02*
D03*
X814000Y403000D02*
D03*
X896000Y532000D02*
D03*
X905300Y507000D02*
D03*
X619000Y309830D02*
D03*
X439965Y449965D02*
D03*
X428000Y551000D02*
D03*
X420000Y514000D02*
D03*
X408000Y587828D02*
D03*
X400000Y546000D02*
D03*
X533000Y759000D02*
D03*
X478000Y770000D02*
D03*
X552000Y596000D02*
D03*
X485750Y623250D02*
D03*
X430000Y632000D02*
D03*
Y640000D02*
D03*
Y648000D02*
D03*
X230000Y674000D02*
D03*
X366571Y645072D02*
D03*
X368036Y636536D02*
D03*
X526000Y545000D02*
D03*
X434000Y555000D02*
D03*
X419999Y524000D02*
D03*
X260000Y440286D02*
D03*
X270000Y555000D02*
D03*
X619000Y300000D02*
D03*
X633000Y231000D02*
D03*
X653000Y297000D02*
D03*
X643000Y307000D02*
D03*
X522000Y279250D02*
D03*
X531750Y292000D02*
D03*
X551000Y293000D02*
D03*
Y321000D02*
D03*
X721570Y121971D02*
D03*
X794071Y160971D02*
D03*
Y132971D02*
D03*
X779571D02*
D03*
X755570Y121971D02*
D03*
X687571Y121971D02*
D03*
X245750Y702350D02*
D03*
X489823Y579177D02*
D03*
X626000Y505000D02*
D03*
X525000Y653000D02*
D03*
X517000Y663000D02*
D03*
X515000Y647000D02*
D03*
X513025Y397975D02*
D03*
X290000Y480000D02*
D03*
X302750Y573650D02*
D03*
X433750Y436050D02*
D03*
X302750Y467050D02*
D03*
X302750Y533050D02*
D03*
X302750Y599050D02*
D03*
Y441650D02*
D03*
X367250Y454350D02*
D03*
X276000Y590000D02*
D03*
X376499Y635001D02*
D03*
X170750Y627050D02*
D03*
X419001Y410000D02*
D03*
X425000Y454000D02*
D03*
X416000D02*
D03*
X367250Y520350D02*
D03*
X475998Y623002D02*
D03*
X468000Y476999D02*
D03*
X458000Y477000D02*
D03*
X438000D02*
D03*
X448000D02*
D03*
X498250Y423350D02*
D03*
X512825Y410825D02*
D03*
X381825Y441825D02*
D03*
X381913Y507913D02*
D03*
X381912Y573913D02*
D03*
X340000Y547000D02*
D03*
X302750Y507650D02*
D03*
X340000Y481000D02*
D03*
X367250Y586350D02*
D03*
X340000Y613000D02*
D03*
X386500Y635000D02*
D03*
X406500D02*
D03*
X376500Y645001D02*
D03*
X386499Y645001D02*
D03*
X396499D02*
D03*
X203000Y641000D02*
D03*
X250000Y602000D02*
D03*
Y614000D02*
D03*
X495000Y495000D02*
D03*
X480001Y475001D02*
D03*
X480000Y495000D02*
D03*
X479500Y582000D02*
D03*
X799000Y806250D02*
D03*
X814000Y760000D02*
D03*
X506000Y786000D02*
D03*
X483000Y851000D02*
D03*
X488000Y845000D02*
D03*
X478000D02*
D03*
X393929Y806000D02*
D03*
X440000Y520000D02*
D03*
X479000Y590000D02*
D03*
X433750Y410650D02*
D03*
X470000Y450000D02*
D03*
X512000Y579000D02*
D03*
X440000Y509000D02*
D03*
X939000Y667000D02*
D03*
X351000Y720001D02*
D03*
X497000Y700000D02*
D03*
X349000Y746000D02*
D03*
X387000Y758000D02*
D03*
X329000Y769000D02*
D03*
X184000Y758000D02*
D03*
X591000D02*
D03*
X612000Y760000D02*
D03*
X794000Y758000D02*
D03*
X736001Y769000D02*
D03*
X533001D02*
D03*
X422000Y691000D02*
D03*
X423000Y674000D02*
D03*
X382000Y710000D02*
D03*
X392000Y710000D02*
D03*
X405000Y760000D02*
D03*
X174000Y690000D02*
D03*
X559000Y819250D02*
D03*
X738000Y823999D02*
D03*
X506000Y813000D02*
D03*
X379000Y825000D02*
D03*
X138000Y824000D02*
D03*
X193000Y734000D02*
D03*
X517000Y700000D02*
D03*
X507000Y700000D02*
D03*
X487000D02*
D03*
X477000Y700000D02*
D03*
X467000Y700000D02*
D03*
X457000D02*
D03*
X447000Y700000D02*
D03*
X517002Y719998D02*
D03*
X507000Y720000D02*
D03*
X497000D02*
D03*
X487000D02*
D03*
X477002Y719998D02*
D03*
X467002D02*
D03*
X457002D02*
D03*
X447000Y719999D02*
D03*
X359000Y769000D02*
D03*
X596000Y806250D02*
D03*
X804000Y758000D02*
D03*
X601000D02*
D03*
X194000D02*
D03*
X397000D02*
D03*
X766000Y769000D02*
D03*
X822000Y779000D02*
D03*
Y788999D02*
D03*
X800000Y852000D02*
D03*
X762000Y819250D02*
D03*
X619001Y789000D02*
D03*
X619000Y778999D02*
D03*
X563000Y769000D02*
D03*
X597000Y852000D02*
D03*
X212000Y791999D02*
D03*
X186750Y805250D02*
D03*
X156000Y769000D02*
D03*
X204000Y760000D02*
D03*
X212002Y781998D02*
D03*
X152000Y819250D02*
D03*
X190000Y852000D02*
D03*
X415000Y788999D02*
D03*
Y779000D02*
D03*
X393000Y852000D02*
D03*
X355000Y819250D02*
D03*
X943400Y507000D02*
D03*
X930000Y399000D02*
D03*
X930000Y364000D02*
D03*
X892000Y304000D02*
D03*
X891600Y692000D02*
D03*
X940001Y300000D02*
D03*
X940001Y310001D02*
D03*
X940000Y320000D02*
D03*
X913000Y328500D02*
D03*
X907000Y317500D02*
D03*
X950001Y300000D02*
D03*
Y310000D02*
D03*
Y320000D02*
D03*
X940000Y532000D02*
D03*
X944000Y381005D02*
D03*
Y346000D02*
D03*
M02*
