M48
;Layer_Color=9474304
;FILE_FORMAT=4:4
METRIC,LZ
;TYPE=PLATED
T1F00S00C0.1500
T2F00S00C0.2500
T3F00S00C0.6000
T5F00S00C0.8000
T6F00S00C1.0000
T7F00S00C1.1000
T8F00S00C1.3000
T9F00S00C1.5000
;TYPE=NON_PLATED
T10F00S00C3.2000
%
T01
X00542Y001
X00534Y0013
X00587Y00175
X0062Y00181
Y00195
X0064Y002
X00658Y00187
X0068Y0019
X00688964Y00187036
X00713Y00185
X00728Y0021
X00698Y00231
X00688Y00231
X00694Y00243
X0069Y00258
X00654Y00258
X00654Y00268
X00644Y00268
Y00258
X0065Y0023
X00656Y00236
X00633Y00231
X00623Y00231
X0062Y00286
X00579Y00279
Y00267
X00581Y00248
X00571Y00249
X00562Y00256
X00548Y00279
X00522Y0027925
X00531875Y00266625
X00514Y00257
X00487Y00269
X0073Y00263
X00737Y00268
X00738Y00277
X00743Y00248
X00791Y00237
X00809001Y00224
X00819Y00224
X00833Y00208
Y00202
X00865Y002003
Y001903
X00866999Y00182
X00855Y00185
X00873Y001953
Y002053
X00864Y00214
X00855Y0022
X00794071Y00160971
X00779571
Y00132971
X00794071
X0075557Y00121971
X0072157Y00121971
X00687571Y00121971
X00700071Y00157471
X00734071Y00157471
X00666071Y00157471
X00767Y00286
X00774Y00281
X00476Y00284
X00477Y0027
X00047Y00307
X00036999Y00307001
X00040999Y00318001
X00051Y00318
X00046999Y00329001
X00037Y00329
X00036Y00346
Y00356
X00036999Y00373
X00046999
X00046999Y00384001
X0005Y00351
X00150999Y00362001
X00161Y00362
X00153Y00451
X00158Y00521
X0018Y00575
X00203Y00576
X00203Y00641
X00193
X0017075Y0062705
X00146Y00627
X00153Y00614
X00145999Y00602
X0025
Y00614
X00288Y00603
X0030275Y0059905
Y0057365
X0030275Y0053305
X00288001Y00537
X0027Y00555
X00276Y0059
X0033Y00613
X0034Y00613
X00368036Y00636536
X00376499Y00635001
X003765Y00645001
X00386499Y00645001
X00396499
X004065Y00645
X004065Y00635
X003865
X00366571Y00645072
X0036725Y0058635
X00382Y00584
X00381912Y00573913
X00382Y00551001
X004Y00546
X00428Y00551
X00434Y00555
X0046Y00559
X00471
Y00548
X0046
Y00537
X00471
Y00526
X0046
Y00515
X00471
X0048Y00495
X00480001Y00475001
X00468Y00476999
X00458Y00477
X00448
X00438
X00439965Y00449965
X00425Y00454
X00416
X00419Y0044
X0043375Y0043605
Y0041065
X00419001Y0041
X00381Y0041
X00382Y00419
X00381825Y00441825
X00382Y00452
X0036725Y0045435
X00381964Y00485036
X00381913Y00507913
X00382Y00518
X0036725Y0052035
X0034Y00547
X0033Y00547
X0033Y00481
X0034
X0029Y0048
X00288036Y00470965
X0030275Y0046705
Y0044165
X0026Y00440286
X00267Y00478
X0030275Y0050765
X00409857Y00496
X0042Y00514
X00419999Y00524
X0044Y0052
X0044Y00509
X0046Y0045
X0047Y0045
X004795Y00582
X00479Y0059
X00475999Y00603
X00475998Y00613001
Y00623002
X00446Y00613
X00446Y00603
X0043Y00632
Y0064
Y00648
X00423Y00664
X00423Y00674
X00408Y00587828
X0024575Y0067695
X0023Y00674
X0043Y00345
X00523188Y0032
X00521875Y00304625
X00512Y00306
Y00294
X0053175Y00292
X00551Y00293
Y00321
X00548Y00335
X00575Y00332674
X0057Y00326
X00583Y00314
X00619Y0030983
X00619Y003
X00629
X00629Y0031
X00643Y00307
Y00296999
X00653Y00297
X00675Y003
X00682036Y00299965
X00697Y00299
X00697Y00309
X00712Y00317
X00705Y00325
X00734Y00319
X00741Y00304
X00738Y00297
X00719Y0035
X00715Y00356
X00689Y00364
X00675Y00356
X00666464Y00355
X0066Y00344
X0068Y00346
X00685Y003405
X00682Y00391
X00655Y00376
X00619Y00391
X00595Y00396
Y00385072
X00587Y00378
X00565Y00377
X00555
X00522999Y00398
X00513025Y00397975
X00512825Y00410825
X00512975Y00421
X0049825Y0042335
X00508929Y00458
X0055Y00463
X0056Y00464
X00554034Y00479035
X0056Y00439
X00560793Y00429063
X00553Y00529
X00545798Y00524798
X00557Y00544
X00559Y00562
X00561Y00569
X00552Y00586
Y00596
X00516Y00603
X00512Y00579
X00489823Y00579177
X00493Y00559
X00482
Y00548
Y00537
Y00526
Y00515
X00493
Y00526
Y00537
Y00548
X00504
Y00537
Y00526
Y00515
X00495Y00495
X00504Y00559
X00526Y00545
X00533Y0055
X00486001Y00603
X00486Y00613001
X0048575Y0062325
X00483Y00655
X00515Y00647
X00515Y00637
X00525Y00643
X00525Y00653
X00517Y00663
Y00673
X00598Y00607
X00629001Y00607001
X00660001Y00607001
X00729Y00607
X00760001Y00607001
X00791Y00607
X0076Y0055
X00739999Y0056
X0069Y00532
X00663Y0053
X00642Y00505
X00626Y00505
X00632965Y00485036
X00638Y00472
X00608Y0052
X00609999Y00582
X00728Y00396
X00735Y0039
X00814Y00403
Y00438
X009Y00443
X00918Y00443
X00918Y00425
X00936Y00425
X00936Y00443
X00936Y00461
X00918Y00461
X009Y00461
X009Y00425
X00892Y00396
X00891625Y0038
X00892Y00362
X0089125Y00346
X00892Y00314
Y00304
X00907Y003175
X00913Y003285
X00923
X0094Y0032
X00940001Y00310001
X00940001Y003
X00950001
Y0031
Y0032
X00944Y00346
Y00362
X0093Y00364
X00944Y00381005
Y00397
X0093Y00399
X009434Y00507
X0094Y00532
X00924
X00911995
X00896
X009053Y00507
X00911Y00667
X00923
X00939
X008916Y00692
X00899Y00738
X00917Y00738
X00935Y00738
X00935Y00756
X00935Y00774
X00917Y00774
X00899Y00774
X00899Y00756
X00917Y00756
X00814Y0076
X00804Y00758
X00794
Y00748
X00794Y0078
Y00788
X00799Y00784
X00804Y0078
X00822Y00779
Y00788999
X00799Y0080625
X008Y00852
X0081
X0082Y00844
X00757999Y00852
X00738001Y00844
X00738Y00823999
X00762Y0081925
X00766Y00769
X00736001Y00769
X00736Y00789
X00619001Y00789
X00619Y00778999
X00601Y0078
X00596Y00784
X00591Y00788
Y0078
X00591Y00758
Y00748
X00601Y00758
X00612Y0076
X00563Y00769
X00533001
X00533Y00759
X00527Y00753
X00533Y00789
X00506Y00786
X00506Y00803
X00506Y00813
X00488Y00845
X00483Y00851
X00535Y00844
X00555Y00852
X00559Y0081925
X00596Y0080625
X00597Y00852
X00607Y00852
X00617Y00843999
X00517002Y00719998
X00517Y0071
Y007
X00507Y007
Y0071
X00497Y0071
X00497Y007
X00487Y007
Y0071
X00487Y0072
X00497
X00507
X00477002Y00719998
X00477Y0071
Y007
X00467Y007
X00457
X00457Y0071
X00457002Y00719998
X00467002
X00467Y0071
X00447Y0071
X00447Y00719999
X00447Y007
X00422Y00691
X00392Y0071
X00382Y0071
X00361Y0072
X00351Y00720001
X00341Y0071
X00349Y00746
X00359Y00769
X00329Y00769
X00329Y00789
X00355Y0081925
X00379Y00825
X00393929Y00806
X00392Y00784
X00387Y0078
Y00788
X00397Y0078
X00415Y00779
Y00788999
X00405Y0076
X00397Y00758
X00387
X00387Y00748
X00393Y00852
X00403Y00852
X00423Y00844
X00478Y00845
Y0077
X00350999Y00852
X00331001Y00844001
X0021Y00844
X002Y00852
X0019Y00852
X00147998Y00851999
X00128001Y00844
X00138Y00824
X00152Y0081925
X0018675Y0080525
X00184Y00788
Y0078
X00189Y00784
X00194Y0078
X00212002Y00781998
X00212Y00791999
X00204Y0076
X00194Y00758
X00184
X00184Y00748
X00183Y00734
X00193
X00212Y00712
X0024575Y0070235
X00174Y0069
X00156Y00769
X00126Y00789
T02
X00108Y00473
Y00483889
Y00494778
Y00505667
Y00516555
Y00527444
Y00538333
Y00549222
Y00560111
Y00571
X00145Y00571
Y00557
Y00543
Y00529
Y00515
X00145Y00501
X00145Y00487
X00145Y00473
X001695Y004935
X00218Y00478
X00844942Y00296389
T03
X00606899Y00409002
Y00421702
X00619601
X00632301
X00645001
X00657701
Y00409002
X00670401
Y00421702
X00683101
Y00409002
X00645001
X00632301
X00619601
X00556352Y00491001
X00543652
T05
X00497Y00062
X00517
X00537
X00557
Y00082
X00537
X00517
X00497
X00477
Y00062
X00457
X00437
Y00082
X00457
T06
X007145Y000387
X008045
X000597Y004712
X000343
Y004966
Y00522
X000597
Y005474
Y005728
X000343
Y005474
X000597Y004966
X001786Y004527
X00204Y004527
Y004273
X001786Y004273
X002294
Y004527
X007183Y00513
X007437
X00844942Y00504389
X00845942Y00450389
X00844942Y00397389
X00845942Y00343389
T07
X007445Y000482
Y000782
X007745
Y000482
X0031Y000922
X0028
X00181
X00151
X00897Y00584
Y00614
T08
X00121Y001118
X00211
X0025
X0034
X008774Y00554
Y00644
T09
X008868Y00892
X009376
X00836
X007852
X007344
X006836
X006328
X00582
X005312
X004804
X004296
X003788
X00328
X002772
X002264
X001756
X001248
X00074Y00892
X000232Y00892
T10
X00924Y00037
X00037Y0003702
X00924Y00833
X00037
M30
