G04*
G04 #@! TF.GenerationSoftware,Altium Limited,Altium Designer,22.0.2 (36)*
G04*
G04 Layer_Physical_Order=1*
G04 Layer_Color=255*
%FSLAX44Y44*%
%MOMM*%
G71*
G04*
G04 #@! TF.SameCoordinates,BB817302-6D05-45A6-82D7-9B19CF937CD1*
G04*
G04*
G04 #@! TF.FilePolarity,Positive*
G04*
G01*
G75*
%ADD10C,0.2500*%
%ADD11C,0.1500*%
%ADD12C,0.2000*%
%ADD14C,0.6000*%
%ADD15C,0.5000*%
%ADD19R,0.6500X1.3000*%
%ADD20R,0.7000X0.3000*%
%ADD21R,2.4000X5.8000*%
%ADD22R,2.3000X5.8000*%
G04:AMPARAMS|DCode=23|XSize=0.6mm|YSize=0.6mm|CornerRadius=0.075mm|HoleSize=0mm|Usage=FLASHONLY|Rotation=90.000|XOffset=0mm|YOffset=0mm|HoleType=Round|Shape=RoundedRectangle|*
%AMROUNDEDRECTD23*
21,1,0.6000,0.4500,0,0,90.0*
21,1,0.4500,0.6000,0,0,90.0*
1,1,0.1500,0.2250,0.2250*
1,1,0.1500,0.2250,-0.2250*
1,1,0.1500,-0.2250,-0.2250*
1,1,0.1500,-0.2250,0.2250*
%
%ADD23ROUNDEDRECTD23*%
G04:AMPARAMS|DCode=24|XSize=0.3mm|YSize=1.8mm|CornerRadius=0.075mm|HoleSize=0mm|Usage=FLASHONLY|Rotation=90.000|XOffset=0mm|YOffset=0mm|HoleType=Round|Shape=RoundedRectangle|*
%AMROUNDEDRECTD24*
21,1,0.3000,1.6500,0,0,90.0*
21,1,0.1500,1.8000,0,0,90.0*
1,1,0.1500,0.8250,0.0750*
1,1,0.1500,0.8250,-0.0750*
1,1,0.1500,-0.8250,-0.0750*
1,1,0.1500,-0.8250,0.0750*
%
%ADD24ROUNDEDRECTD24*%
G04:AMPARAMS|DCode=25|XSize=0.3mm|YSize=1.8mm|CornerRadius=0.075mm|HoleSize=0mm|Usage=FLASHONLY|Rotation=0.000|XOffset=0mm|YOffset=0mm|HoleType=Round|Shape=RoundedRectangle|*
%AMROUNDEDRECTD25*
21,1,0.3000,1.6500,0,0,0.0*
21,1,0.1500,1.8000,0,0,0.0*
1,1,0.1500,0.0750,-0.8250*
1,1,0.1500,-0.0750,-0.8250*
1,1,0.1500,-0.0750,0.8250*
1,1,0.1500,0.0750,0.8250*
%
%ADD25ROUNDEDRECTD25*%
%ADD26R,1.5000X0.8000*%
%ADD27R,1.4000X1.3000*%
%ADD28R,0.9500X1.0000*%
%ADD29R,1.9000X1.4000*%
G04:AMPARAMS|DCode=30|XSize=0.6mm|YSize=0.6mm|CornerRadius=0.075mm|HoleSize=0mm|Usage=FLASHONLY|Rotation=180.000|XOffset=0mm|YOffset=0mm|HoleType=Round|Shape=RoundedRectangle|*
%AMROUNDEDRECTD30*
21,1,0.6000,0.4500,0,0,180.0*
21,1,0.4500,0.6000,0,0,180.0*
1,1,0.1500,-0.2250,0.2250*
1,1,0.1500,0.2250,0.2250*
1,1,0.1500,0.2250,-0.2250*
1,1,0.1500,-0.2250,-0.2250*
%
%ADD30ROUNDEDRECTD30*%
%ADD31R,1.1000X0.3000*%
%ADD32C,2.0500*%
G04:AMPARAMS|DCode=33|XSize=0.6mm|YSize=1.45mm|CornerRadius=0.15mm|HoleSize=0mm|Usage=FLASHONLY|Rotation=90.000|XOffset=0mm|YOffset=0mm|HoleType=Round|Shape=RoundedRectangle|*
%AMROUNDEDRECTD33*
21,1,0.6000,1.1500,0,0,90.0*
21,1,0.3000,1.4500,0,0,90.0*
1,1,0.3000,0.5750,0.1500*
1,1,0.3000,0.5750,-0.1500*
1,1,0.3000,-0.5750,-0.1500*
1,1,0.3000,-0.5750,0.1500*
%
%ADD33ROUNDEDRECTD33*%
%ADD34R,5.3500X5.3500*%
%ADD35O,0.8500X0.2500*%
%ADD36O,0.2500X0.8500*%
G04:AMPARAMS|DCode=37|XSize=0.45mm|YSize=1.35mm|CornerRadius=0.1125mm|HoleSize=0mm|Usage=FLASHONLY|Rotation=270.000|XOffset=0mm|YOffset=0mm|HoleType=Round|Shape=RoundedRectangle|*
%AMROUNDEDRECTD37*
21,1,0.4500,1.1250,0,0,270.0*
21,1,0.2250,1.3500,0,0,270.0*
1,1,0.2250,-0.5625,-0.1125*
1,1,0.2250,-0.5625,0.1125*
1,1,0.2250,0.5625,0.1125*
1,1,0.2250,0.5625,-0.1125*
%
%ADD37ROUNDEDRECTD37*%
G04:AMPARAMS|DCode=38|XSize=0.4mm|YSize=0.7mm|CornerRadius=0.1mm|HoleSize=0mm|Usage=FLASHONLY|Rotation=90.000|XOffset=0mm|YOffset=0mm|HoleType=Round|Shape=RoundedRectangle|*
%AMROUNDEDRECTD38*
21,1,0.4000,0.5000,0,0,90.0*
21,1,0.2000,0.7000,0,0,90.0*
1,1,0.2000,0.2500,0.1000*
1,1,0.2000,0.2500,-0.1000*
1,1,0.2000,-0.2500,-0.1000*
1,1,0.2000,-0.2500,0.1000*
%
%ADD38ROUNDEDRECTD38*%
G04:AMPARAMS|DCode=39|XSize=0.6mm|YSize=0.9mm|CornerRadius=0.15mm|HoleSize=0mm|Usage=FLASHONLY|Rotation=0.000|XOffset=0mm|YOffset=0mm|HoleType=Round|Shape=RoundedRectangle|*
%AMROUNDEDRECTD39*
21,1,0.6000,0.6000,0,0,0.0*
21,1,0.3000,0.9000,0,0,0.0*
1,1,0.3000,0.1500,-0.3000*
1,1,0.3000,-0.1500,-0.3000*
1,1,0.3000,-0.1500,0.3000*
1,1,0.3000,0.1500,0.3000*
%
%ADD39ROUNDEDRECTD39*%
%ADD40R,0.9000X1.2000*%
G04:AMPARAMS|DCode=41|XSize=0.6mm|YSize=1mm|CornerRadius=0.15mm|HoleSize=0mm|Usage=FLASHONLY|Rotation=270.000|XOffset=0mm|YOffset=0mm|HoleType=Round|Shape=RoundedRectangle|*
%AMROUNDEDRECTD41*
21,1,0.6000,0.7000,0,0,270.0*
21,1,0.3000,1.0000,0,0,270.0*
1,1,0.3000,-0.3500,-0.1500*
1,1,0.3000,-0.3500,0.1500*
1,1,0.3000,0.3500,0.1500*
1,1,0.3000,0.3500,-0.1500*
%
%ADD41ROUNDEDRECTD41*%
G04:AMPARAMS|DCode=42|XSize=1mm|YSize=2.8mm|CornerRadius=0.125mm|HoleSize=0mm|Usage=FLASHONLY|Rotation=0.000|XOffset=0mm|YOffset=0mm|HoleType=Round|Shape=RoundedRectangle|*
%AMROUNDEDRECTD42*
21,1,1.0000,2.5500,0,0,0.0*
21,1,0.7500,2.8000,0,0,0.0*
1,1,0.2500,0.3750,-1.2750*
1,1,0.2500,-0.3750,-1.2750*
1,1,0.2500,-0.3750,1.2750*
1,1,0.2500,0.3750,1.2750*
%
%ADD42ROUNDEDRECTD42*%
G04:AMPARAMS|DCode=43|XSize=6.5mm|YSize=5.6mm|CornerRadius=0.7mm|HoleSize=0mm|Usage=FLASHONLY|Rotation=90.000|XOffset=0mm|YOffset=0mm|HoleType=Round|Shape=RoundedRectangle|*
%AMROUNDEDRECTD43*
21,1,6.5000,4.2000,0,0,90.0*
21,1,5.1000,5.6000,0,0,90.0*
1,1,1.4000,2.1000,2.5500*
1,1,1.4000,2.1000,-2.5500*
1,1,1.4000,-2.1000,-2.5500*
1,1,1.4000,-2.1000,2.5500*
%
%ADD43ROUNDEDRECTD43*%
G04:AMPARAMS|DCode=44|XSize=0.75mm|YSize=0.9mm|CornerRadius=0.0938mm|HoleSize=0mm|Usage=FLASHONLY|Rotation=180.000|XOffset=0mm|YOffset=0mm|HoleType=Round|Shape=RoundedRectangle|*
%AMROUNDEDRECTD44*
21,1,0.7500,0.7125,0,0,180.0*
21,1,0.5625,0.9000,0,0,180.0*
1,1,0.1875,-0.2813,0.3563*
1,1,0.1875,0.2813,0.3563*
1,1,0.1875,0.2813,-0.3563*
1,1,0.1875,-0.2813,-0.3563*
%
%ADD44ROUNDEDRECTD44*%
G04:AMPARAMS|DCode=45|XSize=0.75mm|YSize=0.9mm|CornerRadius=0.0938mm|HoleSize=0mm|Usage=FLASHONLY|Rotation=270.000|XOffset=0mm|YOffset=0mm|HoleType=Round|Shape=RoundedRectangle|*
%AMROUNDEDRECTD45*
21,1,0.7500,0.7125,0,0,270.0*
21,1,0.5625,0.9000,0,0,270.0*
1,1,0.1875,-0.3563,-0.2813*
1,1,0.1875,-0.3563,0.2813*
1,1,0.1875,0.3563,0.2813*
1,1,0.1875,0.3563,-0.2813*
%
%ADD45ROUNDEDRECTD45*%
G04:AMPARAMS|DCode=46|XSize=1.7mm|YSize=1.55mm|CornerRadius=0.1938mm|HoleSize=0mm|Usage=FLASHONLY|Rotation=90.000|XOffset=0mm|YOffset=0mm|HoleType=Round|Shape=RoundedRectangle|*
%AMROUNDEDRECTD46*
21,1,1.7000,1.1625,0,0,90.0*
21,1,1.3125,1.5500,0,0,90.0*
1,1,0.3875,0.5813,0.6563*
1,1,0.3875,0.5813,-0.6563*
1,1,0.3875,-0.5813,-0.6563*
1,1,0.3875,-0.5813,0.6563*
%
%ADD46ROUNDEDRECTD46*%
G04:AMPARAMS|DCode=47|XSize=0.3mm|YSize=1.4mm|CornerRadius=0.075mm|HoleSize=0mm|Usage=FLASHONLY|Rotation=180.000|XOffset=0mm|YOffset=0mm|HoleType=Round|Shape=RoundedRectangle|*
%AMROUNDEDRECTD47*
21,1,0.3000,1.2500,0,0,180.0*
21,1,0.1500,1.4000,0,0,180.0*
1,1,0.1500,-0.0750,0.6250*
1,1,0.1500,0.0750,0.6250*
1,1,0.1500,0.0750,-0.6250*
1,1,0.1500,-0.0750,-0.6250*
%
%ADD47ROUNDEDRECTD47*%
%ADD48R,0.6000X0.6000*%
%ADD49R,0.3000X0.8500*%
%ADD50R,0.8500X0.3000*%
G04:AMPARAMS|DCode=51|XSize=0.3mm|YSize=0.8mm|CornerRadius=0.075mm|HoleSize=0mm|Usage=FLASHONLY|Rotation=0.000|XOffset=0mm|YOffset=0mm|HoleType=Round|Shape=RoundedRectangle|*
%AMROUNDEDRECTD51*
21,1,0.3000,0.6500,0,0,0.0*
21,1,0.1500,0.8000,0,0,0.0*
1,1,0.1500,0.0750,-0.3250*
1,1,0.1500,-0.0750,-0.3250*
1,1,0.1500,-0.0750,0.3250*
1,1,0.1500,0.0750,0.3250*
%
%ADD51ROUNDEDRECTD51*%
%ADD52R,1.8000X1.5000*%
%ADD57C,0.6000*%
%ADD104R,1.0000X1.0000*%
%ADD105C,1.0000*%
%ADD106C,1.3000*%
%ADD107P,2.1994X8X202.5*%
G04:AMPARAMS|DCode=108|XSize=2.032mm|YSize=2.032mm|CornerRadius=0.508mm|HoleSize=0mm|Usage=FLASHONLY|Rotation=180.000|XOffset=0mm|YOffset=0mm|HoleType=Round|Shape=RoundedRectangle|*
%AMROUNDEDRECTD108*
21,1,2.0320,1.0160,0,0,180.0*
21,1,1.0160,2.0320,0,0,180.0*
1,1,1.0160,-0.5080,0.5080*
1,1,1.0160,0.5080,0.5080*
1,1,1.0160,0.5080,-0.5080*
1,1,1.0160,-0.5080,-0.5080*
%
%ADD108ROUNDEDRECTD108*%
G04:AMPARAMS|DCode=109|XSize=1.2192mm|YSize=1.7272mm|CornerRadius=0.3048mm|HoleSize=0mm|Usage=FLASHONLY|Rotation=0.000|XOffset=0mm|YOffset=0mm|HoleType=Round|Shape=RoundedRectangle|*
%AMROUNDEDRECTD109*
21,1,1.2192,1.1176,0,0,0.0*
21,1,0.6096,1.7272,0,0,0.0*
1,1,0.6096,0.3048,-0.5588*
1,1,0.6096,-0.3048,-0.5588*
1,1,0.6096,-0.3048,0.5588*
1,1,0.6096,0.3048,0.5588*
%
%ADD109ROUNDEDRECTD109*%
G04:AMPARAMS|DCode=110|XSize=1.2192mm|YSize=1.7272mm|CornerRadius=0mm|HoleSize=0mm|Usage=FLASHONLY|Rotation=0.000|XOffset=0mm|YOffset=0mm|HoleType=Round|Shape=Octagon|*
%AMOCTAGOND110*
4,1,8,-0.3048,0.8636,0.3048,0.8636,0.6096,0.5588,0.6096,-0.5588,0.3048,-0.8636,-0.3048,-0.8636,-0.6096,-0.5588,-0.6096,0.5588,-0.3048,0.8636,0.0*
%
%ADD110OCTAGOND110*%

%ADD111P,2.1994X8X112.5*%
G04:AMPARAMS|DCode=112|XSize=2.032mm|YSize=2.032mm|CornerRadius=0.508mm|HoleSize=0mm|Usage=FLASHONLY|Rotation=90.000|XOffset=0mm|YOffset=0mm|HoleType=Round|Shape=RoundedRectangle|*
%AMROUNDEDRECTD112*
21,1,2.0320,1.0160,0,0,90.0*
21,1,1.0160,2.0320,0,0,90.0*
1,1,1.0160,0.5080,0.5080*
1,1,1.0160,0.5080,-0.5080*
1,1,1.0160,-0.5080,-0.5080*
1,1,1.0160,-0.5080,0.5080*
%
%ADD112ROUNDEDRECTD112*%
%ADD113C,0.8000*%
G04:AMPARAMS|DCode=114|XSize=2mm|YSize=2mm|CornerRadius=0.5mm|HoleSize=0mm|Usage=FLASHONLY|Rotation=90.000|XOffset=0mm|YOffset=0mm|HoleType=Round|Shape=RoundedRectangle|*
%AMROUNDEDRECTD114*
21,1,2.0000,1.0000,0,0,90.0*
21,1,1.0000,2.0000,0,0,90.0*
1,1,1.0000,0.5000,0.5000*
1,1,1.0000,0.5000,-0.5000*
1,1,1.0000,-0.5000,-0.5000*
1,1,1.0000,-0.5000,0.5000*
%
%ADD114ROUNDEDRECTD114*%
%ADD115P,2.1648X8X112.5*%
%ADD116C,2.0000*%
%ADD117O,2.2000X1.0000*%
%ADD118O,1.8000X1.0000*%
%ADD119C,2.5000*%
%ADD120C,2.7000*%
%ADD121C,0.5000*%
G36*
X131750Y571000D02*
X126749Y565999D01*
X125750Y566000D01*
Y570250D01*
X124250D01*
X124250Y566000D01*
X123250D01*
X118250Y571000D01*
X123250Y576000D01*
X124250D01*
Y571750D01*
X125750D01*
Y576000D01*
X126750D01*
X131750Y571000D01*
D02*
G37*
G36*
X798800Y568200D02*
X774400D01*
Y589300D01*
X775031Y589841D01*
X775528Y590297D01*
X776012Y590767D01*
X776481Y591250D01*
X776937Y591748D01*
X777378Y592258D01*
X777803Y592780D01*
X778214Y593315D01*
X778609Y593862D01*
X778987Y594420D01*
X779350Y594988D01*
X779695Y595567D01*
X780024Y596156D01*
X780335Y596754D01*
X780629Y597361D01*
X780905Y597976D01*
X781163Y598599D01*
X781403Y599229D01*
X781624Y599866D01*
X781827Y600509D01*
X782011Y601158D01*
X782176Y601811D01*
X782322Y602470D01*
X782449Y603132D01*
X782556Y603798D01*
X782644Y604466D01*
X782712Y605137D01*
X782761Y605809D01*
X782791Y606483D01*
X782800Y607000D01*
X782791Y607517D01*
X782761Y608191D01*
X782712Y608863D01*
X782644Y609534D01*
X782556Y610203D01*
X782449Y610868D01*
X782322Y611530D01*
X782176Y612189D01*
X782011Y612842D01*
X781827Y613491D01*
X781624Y614134D01*
X781403Y614771D01*
X781163Y615401D01*
X780905Y616024D01*
X780629Y616639D01*
X780335Y617246D01*
X780024Y617844D01*
X779695Y618433D01*
X779350Y619012D01*
X778987Y619580D01*
X778609Y620138D01*
X778214Y620685D01*
X777803Y621220D01*
X777378Y621743D01*
X776937Y622253D01*
X776481Y622750D01*
X776012Y623233D01*
X775528Y623703D01*
X775031Y624159D01*
X774400Y624700D01*
Y630500D01*
Y645800D01*
X798800D01*
Y568200D01*
D02*
G37*
G36*
X745600Y624700D02*
X744969Y624159D01*
X744472Y623703D01*
X743989Y623233D01*
X743519Y622750D01*
X743063Y622253D01*
X742623Y621743D01*
X742197Y621220D01*
X741786Y620685D01*
X741392Y620138D01*
X741013Y619580D01*
X740651Y619012D01*
X740305Y618433D01*
X739976Y617844D01*
X739665Y617246D01*
X739371Y616639D01*
X739095Y616024D01*
X738837Y615401D01*
X738597Y614771D01*
X738376Y614134D01*
X738173Y613491D01*
X737989Y612842D01*
X737824Y612189D01*
X737678Y611530D01*
X737552Y610868D01*
X737444Y610203D01*
X737356Y609534D01*
X737288Y608863D01*
X737239Y608191D01*
X737209Y607517D01*
X737200Y607000D01*
X737209Y606483D01*
X737239Y605809D01*
X737288Y605137D01*
X737356Y604466D01*
X737444Y603798D01*
X737552Y603132D01*
X737678Y602470D01*
X737824Y601811D01*
X737989Y601158D01*
X738173Y600509D01*
X738376Y599866D01*
X738597Y599229D01*
X738837Y598599D01*
X739095Y597976D01*
X739371Y597361D01*
X739665Y596754D01*
X739976Y596156D01*
X740305Y595567D01*
X740651Y594988D01*
X741013Y594420D01*
X741392Y593862D01*
X741786Y593315D01*
X742197Y592780D01*
X742623Y592258D01*
X743063Y591748D01*
X743519Y591250D01*
X743989Y590767D01*
X744472Y590297D01*
X744969Y589841D01*
X745600Y589300D01*
Y568200D01*
X721200D01*
Y645800D01*
X745600D01*
Y624700D01*
D02*
G37*
G36*
X667800Y568200D02*
X643400D01*
Y589300D01*
X644031Y589841D01*
X644528Y590297D01*
X645012Y590767D01*
X645481Y591250D01*
X645937Y591748D01*
X646378Y592258D01*
X646804Y592780D01*
X647214Y593315D01*
X647609Y593862D01*
X647987Y594420D01*
X648350Y594988D01*
X648695Y595567D01*
X649024Y596156D01*
X649335Y596754D01*
X649629Y597361D01*
X649905Y597976D01*
X650163Y598599D01*
X650403Y599229D01*
X650624Y599866D01*
X650827Y600509D01*
X651011Y601158D01*
X651176Y601811D01*
X651322Y602470D01*
X651449Y603132D01*
X651556Y603798D01*
X651644Y604466D01*
X651712Y605137D01*
X651761Y605809D01*
X651791Y606483D01*
X651800Y607000D01*
X651791Y607517D01*
X651761Y608191D01*
X651712Y608863D01*
X651644Y609534D01*
X651556Y610203D01*
X651449Y610868D01*
X651322Y611530D01*
X651176Y612189D01*
X651011Y612842D01*
X650827Y613491D01*
X650624Y614134D01*
X650403Y614771D01*
X650163Y615401D01*
X649905Y616024D01*
X649629Y616639D01*
X649335Y617246D01*
X649024Y617844D01*
X648695Y618433D01*
X648350Y619012D01*
X647987Y619580D01*
X647609Y620138D01*
X647214Y620685D01*
X646804Y621220D01*
X646378Y621743D01*
X645937Y622253D01*
X645481Y622750D01*
X645012Y623233D01*
X644528Y623703D01*
X644031Y624159D01*
X643400Y624700D01*
Y630500D01*
Y645800D01*
X667800D01*
Y568200D01*
D02*
G37*
G36*
X614600Y624700D02*
X613969Y624159D01*
X613472Y623703D01*
X612989Y623233D01*
X612519Y622750D01*
X612063Y622253D01*
X611623Y621743D01*
X611197Y621220D01*
X610786Y620685D01*
X610392Y620138D01*
X610013Y619580D01*
X609651Y619012D01*
X609305Y618433D01*
X608976Y617844D01*
X608665Y617246D01*
X608371Y616639D01*
X608095Y616024D01*
X607837Y615401D01*
X607597Y614771D01*
X607376Y614134D01*
X607173Y613491D01*
X606989Y612842D01*
X606824Y612189D01*
X606678Y611530D01*
X606552Y610868D01*
X606444Y610203D01*
X606356Y609534D01*
X606288Y608863D01*
X606239Y608191D01*
X606209Y607517D01*
X606200Y607000D01*
X606209Y606483D01*
X606239Y605809D01*
X606288Y605137D01*
X606356Y604466D01*
X606444Y603798D01*
X606552Y603132D01*
X606678Y602470D01*
X606824Y601811D01*
X606989Y601158D01*
X607173Y600509D01*
X607376Y599866D01*
X607597Y599229D01*
X607837Y598599D01*
X608095Y597976D01*
X608371Y597361D01*
X608665Y596754D01*
X608976Y596156D01*
X609305Y595567D01*
X609651Y594988D01*
X610013Y594420D01*
X610392Y593862D01*
X610786Y593315D01*
X611197Y592780D01*
X611623Y592258D01*
X612063Y591748D01*
X612519Y591250D01*
X612989Y590767D01*
X613472Y590297D01*
X613969Y589841D01*
X614600Y589300D01*
Y568200D01*
X590200D01*
Y645800D01*
X614600D01*
Y624700D01*
D02*
G37*
G36*
X131750Y557000D02*
X126749Y552000D01*
X125750Y552000D01*
Y556250D01*
X124250D01*
X124250Y552000D01*
X123250D01*
X118250Y557000D01*
X123250Y562000D01*
X124250D01*
Y557750D01*
X125750D01*
Y562000D01*
X126750D01*
X131750Y557000D01*
D02*
G37*
G36*
Y543000D02*
X126749Y537999D01*
X125750Y538000D01*
Y542250D01*
X124250D01*
X124250Y538000D01*
X123250D01*
X118250Y543000D01*
X123250Y548000D01*
X124250D01*
Y543750D01*
X125750D01*
Y548000D01*
X126750D01*
X131750Y543000D01*
D02*
G37*
G36*
Y529000D02*
X126749Y523999D01*
X125750Y524000D01*
Y528250D01*
X124250D01*
X124250Y524000D01*
X123250D01*
X118250Y529000D01*
X123250Y534000D01*
X124250D01*
Y529750D01*
X125750D01*
Y534000D01*
X126750D01*
X131750Y529000D01*
D02*
G37*
G36*
Y515000D02*
X126749Y510000D01*
X125750Y510000D01*
Y514250D01*
X124250D01*
X124250Y510000D01*
X123250D01*
X118250Y515000D01*
X123250Y520000D01*
X124250D01*
Y515750D01*
X125750D01*
Y520000D01*
X126750D01*
X131750Y515000D01*
D02*
G37*
G36*
Y501000D02*
X126749Y495999D01*
X125750Y496000D01*
Y500250D01*
X124250D01*
X124250Y496000D01*
X123250D01*
X118250Y501000D01*
X123250Y506000D01*
X124250D01*
Y501750D01*
X125750D01*
Y506000D01*
X126750D01*
X131750Y501000D01*
D02*
G37*
G36*
Y487000D02*
X126749Y482000D01*
X125750Y482000D01*
Y486250D01*
X124250D01*
X124250Y482000D01*
X123250D01*
X118250Y487000D01*
X123250Y492000D01*
X124250D01*
Y487750D01*
X125750D01*
Y492000D01*
X126750D01*
X131750Y487000D01*
D02*
G37*
G36*
Y473000D02*
X126749Y467999D01*
X125750Y468000D01*
Y472250D01*
X124250D01*
X124250Y468000D01*
X123250D01*
X118250Y473000D01*
X123250Y478000D01*
X124250D01*
Y473750D01*
X125750D01*
Y478000D01*
X126750D01*
X131750Y473000D01*
D02*
G37*
D10*
X330432Y764568D02*
X349000Y746000D01*
X375000D02*
X387000Y758000D01*
X349000Y746000D02*
X375000D01*
X420709Y690250D02*
X421459Y691000D01*
X409000Y690250D02*
X420709D01*
X421459Y691000D02*
X422000D01*
X409000Y683750D02*
Y690250D01*
X126932Y764068D02*
Y768068D01*
X133000Y758000D02*
X184000D01*
X126000Y769000D02*
X126932Y768068D01*
Y764068D02*
X133000Y758000D01*
X329000Y769000D02*
X330432Y767568D01*
Y764568D02*
Y767568D01*
X795750Y761500D02*
X796500Y762250D01*
Y770000D01*
X795750Y759750D02*
Y761500D01*
X794000Y758000D02*
X795750Y759750D01*
X593500Y762250D02*
Y770000D01*
X592750Y761500D02*
X593500Y762250D01*
X592750Y759750D02*
Y761500D01*
X591000Y758000D02*
X592750Y759750D01*
X184000Y758000D02*
Y763550D01*
X186250Y765800D01*
Y769750D01*
X186500Y770000D01*
X389500Y760500D02*
Y770000D01*
X387000Y758000D02*
X389500Y760500D01*
D11*
X896000Y244000D02*
G03*
X896000Y234000I0J-5000D01*
G01*
Y161600D02*
G03*
X896000Y151600I0J-5000D01*
G01*
X749800Y921000D02*
X818800D01*
X547000Y921000D02*
X616000D01*
X343400Y921000D02*
X412400D01*
X140200D02*
X209200D01*
X961000Y141600D02*
Y151600D01*
X896000D02*
X961000D01*
X961000Y0D02*
X961000Y141600D01*
X0Y0D02*
X961000D01*
X961000Y254000D02*
X961000Y920000D01*
X896000Y244000D02*
X961000D01*
Y254000D01*
X896000Y161600D02*
Y234000D01*
X0Y920000D02*
X0Y0D01*
X0Y920000D02*
X961000D01*
D12*
X126750Y483000D02*
G03*
X126750Y491000I0J4000D01*
G01*
X123250D02*
G03*
X123250Y483000I0J-4000D01*
G01*
X126750Y469000D02*
G03*
X126750Y477000I0J4000D01*
G01*
X123250D02*
G03*
X123250Y469000I0J-4000D01*
G01*
X126750Y511000D02*
G03*
X126750Y519000I0J4000D01*
G01*
X123250D02*
G03*
X123250Y511000I0J-4000D01*
G01*
X126750Y497000D02*
G03*
X126750Y505000I0J4000D01*
G01*
X123250D02*
G03*
X123250Y497000I0J-4000D01*
G01*
X126750Y567000D02*
G03*
X126750Y575000I0J4000D01*
G01*
X123250D02*
G03*
X123250Y567000I0J-4000D01*
G01*
X126750Y539000D02*
G03*
X126750Y547000I0J4000D01*
G01*
X123250D02*
G03*
X123250Y539000I0J-4000D01*
G01*
X126750Y553000D02*
G03*
X126750Y561000I0J4000D01*
G01*
X123250D02*
G03*
X123250Y553000I0J-4000D01*
G01*
X126750Y525000D02*
G03*
X126750Y533000I0J4000D01*
G01*
X123250D02*
G03*
X123250Y525000I0J-4000D01*
G01*
X169500Y493500D02*
X176000Y500000D01*
X819000Y224000D02*
X824500Y218500D01*
Y210000D02*
Y218500D01*
X851000Y224000D02*
X855000Y220000D01*
X819000Y224000D02*
X851000D01*
X750000Y283000D02*
X791000Y242000D01*
Y237000D02*
Y242000D01*
X751000Y292000D02*
X801000Y242000D01*
X749550Y288500D02*
X797500Y240550D01*
X801000Y211000D02*
X807000Y205000D01*
X797500Y209550D02*
Y240550D01*
X801000Y211000D02*
Y242000D01*
X797500Y209550D02*
X807050Y200000D01*
X824500D01*
X807000Y205000D02*
X824500D01*
X865000Y200300D02*
X888500D01*
X841500D02*
X865000D01*
X841800Y205300D02*
X888500D01*
X280000Y92200D02*
Y124000D01*
X299000Y143000D01*
X335000D01*
X151000Y92200D02*
Y128000D01*
X166000Y143000D01*
X228000D01*
X517000Y64540D02*
X527000Y74540D01*
Y100000D01*
X517000Y62000D02*
Y64540D01*
X145000Y501000D02*
X152000D01*
X158000Y507000D02*
Y521000D01*
X152000Y501000D02*
X158000Y507000D01*
X208500Y576450D02*
X221000Y588950D01*
X203450Y576450D02*
X208500D01*
X203000Y576000D02*
X203450Y576450D01*
X221000Y588950D02*
X225250D01*
X128750Y501000D02*
X145000D01*
X145000Y501000D01*
X153000Y419000D02*
Y451000D01*
Y419000D02*
X164000Y408000D01*
X184700D02*
X204000Y427300D01*
X164000Y408000D02*
X184700D01*
X176000Y500000D02*
X238000D01*
X209000Y478000D02*
X267000D01*
X204000Y473000D02*
X209000Y478000D01*
X204000Y452700D02*
Y473000D01*
X438500Y544500D02*
X448000D01*
X128750Y473000D02*
X145000D01*
X145000Y473000D01*
X153175Y614175D02*
X170575D01*
X153000Y614000D02*
X153175Y614175D01*
X170575D02*
X170750Y614350D01*
X177277Y454024D02*
X178600Y452700D01*
X163976Y454024D02*
X177277D01*
X145000Y473000D02*
X163976Y454024D01*
X108000Y473000D02*
X108000Y473000D01*
X121250D01*
X118139Y483889D02*
X121250Y487000D01*
X108000Y483889D02*
X118139D01*
X115028Y494778D02*
X121250Y501000D01*
X108000Y494778D02*
X115028D01*
X108083Y505750D02*
X112000D01*
X108000Y505667D02*
X108083Y505750D01*
X112000D02*
X121250Y515000D01*
X108000Y527444D02*
X119694D01*
X121250Y529000D01*
X108000Y538333D02*
X116583D01*
X121250Y543000D01*
X108000Y549222D02*
X108472Y548750D01*
X113000D01*
X121250Y557000D01*
X108000Y571000D02*
X108000Y571000D01*
X121250D01*
X61500Y473000D02*
X108000D01*
X59700Y471200D02*
X61500Y473000D01*
X34300Y471200D02*
X46989Y483889D01*
X108000D01*
X59700Y496600D02*
X61522Y494778D01*
X108000D01*
X34300Y496600D02*
X46800Y509100D01*
X75954D01*
X79387Y505667D01*
X108000D01*
X59700Y522000D02*
X64422Y517278D01*
X107278D02*
X108000Y516555D01*
X64422Y517278D02*
X107278D01*
X34300Y522000D02*
X46800Y534500D01*
X74143D01*
X81199Y527444D01*
X108000D01*
X59700Y547400D02*
X61865D01*
X70932Y538333D02*
X108000D01*
X61865Y547400D02*
X70932Y538333D01*
X34300Y547400D02*
X46800Y559900D01*
X72332D01*
X83010Y549222D01*
X108000D01*
X59700Y572800D02*
X75200D01*
X87889Y560111D02*
X108000D01*
X75200Y572800D02*
X87889Y560111D01*
X35000Y573500D02*
Y589000D01*
X34300Y572800D02*
X35000Y573500D01*
X41000Y595000D02*
X84000D01*
X35000Y589000D02*
X41000Y595000D01*
X84000D02*
X108000Y571000D01*
X145000Y529000D02*
X204904D01*
X128750Y487000D02*
X145000D01*
X128750Y515000D02*
X145000D01*
X128750Y543000D02*
X145000D01*
X128750Y557000D02*
X145000D01*
X128750Y571000D02*
X145000D01*
X128750Y529000D02*
X145000D01*
X632000Y495000D02*
X642000Y505000D01*
X626000Y495000D02*
X632000D01*
X663000Y530000D02*
X680000Y513000D01*
X718300D01*
X527000Y496000D02*
X531999Y491001D01*
X543652D01*
X557883Y492532D02*
X563532D01*
X567000Y496000D02*
Y510000D01*
X563532Y492532D02*
X567000Y496000D01*
X556352Y491001D02*
X557883Y492532D01*
X516096Y524596D02*
X545596D01*
X545798Y524798D01*
X181000Y799000D02*
X181500Y798500D01*
Y798000D02*
Y798500D01*
X166000Y799000D02*
X181000D01*
Y769000D02*
X181500Y769500D01*
X166000Y769000D02*
X181000D01*
X181500Y769500D02*
Y770000D01*
X767000Y286000D02*
Y346000D01*
X720000Y393000D02*
X767000Y346000D01*
X720000Y393000D02*
Y454950D01*
X734000Y319000D02*
Y356000D01*
X705000Y385000D02*
Y455000D01*
Y385000D02*
X734000Y356000D01*
X710000Y387000D02*
Y455000D01*
X741000Y304000D02*
Y356000D01*
X710000Y387000D02*
X741000Y356000D01*
X750000Y301000D02*
Y355000D01*
X715000Y390000D02*
X750000Y355000D01*
X715000Y390000D02*
Y455000D01*
X728000Y210000D02*
Y233000D01*
X723500Y237500D02*
X728000Y233000D01*
X713500Y237500D02*
X723500D01*
X711042Y167000D02*
X719071Y158971D01*
X684000Y167000D02*
X711042D01*
X670000Y181000D02*
X684000Y167000D01*
X670000Y181000D02*
Y215000D01*
X686799Y173000D02*
X738772D01*
X675000Y184799D02*
Y215000D01*
Y184799D02*
X686799Y173000D01*
X665000Y177542D02*
X681880Y160663D01*
X685071Y157471D02*
Y158701D01*
X683109Y160663D02*
X685071Y158701D01*
X681880Y160663D02*
X683109D01*
X665000Y177542D02*
Y215000D01*
X713000Y185000D02*
Y233000D01*
X713000Y233000D01*
Y238000D02*
X713500Y237500D01*
X698000Y230188D02*
Y231000D01*
X695000Y227188D02*
X698000Y230188D01*
X680000Y190000D02*
Y215000D01*
X660000Y199000D02*
Y215000D01*
X627500Y166500D02*
X660000Y199000D01*
X593500Y166500D02*
X627500D01*
X655000Y204000D02*
Y215000D01*
X621000Y170000D02*
X655000Y204000D01*
X589000Y170000D02*
X621000D01*
X585000Y181000D02*
X620000D01*
X632000Y161000D02*
X658000Y187000D01*
X593879Y161000D02*
X632000D01*
X497000Y84770D02*
X587000Y174770D01*
Y175000D01*
X497000Y82000D02*
Y84770D01*
X517000Y98000D02*
X589000Y170000D01*
X517000Y82000D02*
Y98000D01*
X527000Y100000D02*
X593500Y166500D01*
X534000Y130000D02*
X585000Y181000D01*
X475000Y304330D02*
X589330Y190000D01*
X627000D01*
X634848Y197848D01*
X487000Y74540D02*
Y269000D01*
X477000Y82000D02*
Y270000D01*
X487000Y74540D02*
X497000Y64540D01*
X335000Y143000D02*
X476000Y284000D01*
X512000Y306000D02*
Y324000D01*
X542000Y100000D02*
X542808D01*
X547000Y95808D01*
Y74540D02*
Y95808D01*
X537000Y82000D02*
Y104121D01*
X593879Y161000D01*
X547000Y74540D02*
X557000Y64540D01*
X403000Y411000D02*
X490000Y324000D01*
Y304179D02*
Y324000D01*
X403000Y411000D02*
Y519000D01*
X480000Y304280D02*
Y321000D01*
X391000Y410000D02*
X480000Y321000D01*
X381000Y410000D02*
X391000D01*
X307394Y392891D02*
X402109D01*
X475000Y304330D02*
Y320000D01*
X402109Y392891D02*
X475000Y320000D01*
X470000Y300740D02*
Y319000D01*
Y300740D02*
X513870Y256870D01*
X427000Y362000D02*
X470000Y319000D01*
X485000Y304229D02*
Y323000D01*
X399000Y409000D02*
X485000Y323000D01*
Y304229D02*
X546229Y243000D01*
X480000Y304280D02*
X555280Y229000D01*
X490000Y304179D02*
X522554Y271625D01*
X559000Y249000D02*
X571000D01*
X555280Y229000D02*
X611596D01*
X522554Y271625D02*
X536375D01*
X503000Y303000D02*
X512000Y294000D01*
X546229Y243000D02*
X602000D01*
X399000Y409000D02*
Y523000D01*
X536375Y271625D02*
X559000Y249000D01*
X228000Y143000D02*
X430000Y345000D01*
X161000Y362000D02*
X427000D01*
X503000Y303000D02*
Y325000D01*
X555000Y377000D01*
X685000Y191000D02*
Y215000D01*
Y191000D02*
X688964Y187036D01*
X620000Y195000D02*
Y215000D01*
X738772Y173000D02*
X750800Y160971D01*
X650000Y215000D02*
X650000Y215000D01*
X650000Y215000D02*
Y230000D01*
X656000Y236000D02*
X675071D01*
X692071Y253000D01*
X617146Y239500D02*
X647521D01*
X646071Y243000D02*
X675000Y271929D01*
X682000Y273979D02*
Y299929D01*
X675000Y271929D02*
Y300000D01*
X615697Y243000D02*
X646071D01*
X647521Y239500D02*
X682000Y273979D01*
X611197Y238500D02*
X615697Y243000D01*
X611147Y233500D02*
X617146Y239500D01*
X618596Y236000D02*
X635071D01*
X644500Y226571D01*
Y215500D02*
Y226571D01*
X640000Y215000D02*
X640000Y215000D01*
X640000Y200000D02*
Y215000D01*
X634848Y197848D02*
Y214848D01*
X734000Y273000D02*
X738000Y277000D01*
X713000Y273000D02*
X734000D01*
X745426Y296426D02*
X750000Y301000D01*
X738574Y296426D02*
X745426D01*
X774000Y281000D02*
Y488000D01*
X712000Y343000D02*
X719000Y350000D01*
X724500Y300904D02*
Y357500D01*
X722096Y298500D02*
X724500Y300904D01*
X680500Y401500D02*
X724500Y357500D01*
X705000Y346000D02*
X715000Y356000D01*
X476000Y623000D02*
X480500Y627500D01*
X774000Y488000D02*
X810000Y524000D01*
X670400Y409000D02*
X672493D01*
X679993Y401500D01*
X680500D01*
X713000Y283000D02*
X750000D01*
X723500Y288500D02*
X749550D01*
X724000Y292000D02*
X751000D01*
X728000Y396000D02*
Y452000D01*
X712000Y317000D02*
Y343000D01*
X705000Y325000D02*
Y346000D01*
X622000Y558000D02*
X728000Y452000D01*
X735000Y390000D02*
Y450000D01*
X622000Y563000D02*
X735000Y450000D01*
X682000Y299929D02*
X682036Y299965D01*
X689000Y363188D02*
X690000Y362188D01*
Y326000D02*
Y362188D01*
X689000Y363188D02*
Y364000D01*
X695000Y326000D02*
Y369000D01*
X660007Y403993D02*
X695000Y369000D01*
X682000Y391000D02*
X699000Y374000D01*
Y316404D02*
Y374000D01*
X697096Y314500D02*
X699000Y316404D01*
X660007Y403993D02*
Y404528D01*
X657700Y406835D02*
Y409000D01*
Y406835D02*
X660007Y404528D01*
X602500Y233500D02*
X611147D01*
X602000Y233000D02*
X602500Y233500D01*
X602000Y238000D02*
X602500Y238500D01*
X611197D01*
X602000Y248000D02*
X618000D01*
X628000Y258000D02*
X644000D01*
X618000Y248000D02*
X628000Y258000D01*
X630188Y268000D02*
X644000D01*
X623000Y230188D02*
X625000Y228188D01*
X623000Y230188D02*
Y231000D01*
X625000Y215000D02*
Y228188D01*
X557000Y62000D02*
Y64540D01*
X562000Y261000D02*
X574000Y273000D01*
X584000D02*
X589000Y268000D01*
X574000Y273000D02*
X584000D01*
X589000Y268000D02*
X602000D01*
X584000Y279000D02*
X590000Y273000D01*
X579000Y279000D02*
X584000D01*
X590000Y273000D02*
X602000D01*
X579000Y267000D02*
X583000Y263000D01*
X602000D01*
X562000Y256000D02*
Y261000D01*
X581000Y248000D02*
X591000Y258000D01*
X602000D01*
X692071Y253000D02*
X713000D01*
X713000Y243000D02*
X713000Y243000D01*
X694000Y243000D02*
X713000D01*
X694000Y243000D02*
X694000Y243000D01*
X611596Y229000D02*
X618596Y236000D01*
X497000Y62000D02*
Y64540D01*
X512000Y324000D02*
X565000Y377000D01*
X560793Y429063D02*
X575000Y414856D01*
Y332674D02*
Y414856D01*
X552000Y423000D02*
Y431000D01*
X570000Y326000D02*
Y405000D01*
X552000Y423000D02*
X570000Y405000D01*
X552000Y431000D02*
X560000Y439000D01*
X630000Y326000D02*
Y350072D01*
X595000Y385072D02*
X630000Y350072D01*
X619000Y391000D02*
X650000Y360000D01*
Y326000D02*
Y360000D01*
X609106Y392894D02*
Y404627D01*
X645000Y326000D02*
Y357000D01*
X609106Y392894D02*
X645000Y357000D01*
X606898Y406835D02*
X609106Y404627D01*
X606898Y406835D02*
Y409000D01*
X583000Y374000D02*
X587000Y378000D01*
X583000Y314000D02*
Y374000D01*
X644500Y215500D02*
X645000Y215000D01*
X260000Y440286D02*
X307394Y392891D01*
X634848Y214848D02*
X635000Y215000D01*
X523188Y320000D02*
X530188Y327000D01*
X561000D01*
X585000Y303000D01*
X602000D01*
X409857Y496000D02*
X420108Y485749D01*
X410500Y534500D02*
X448000D01*
X399000Y523000D02*
X410500Y534500D01*
X403000Y519000D02*
X415000Y531000D01*
X420108Y485749D02*
Y485749D01*
X415000Y531000D02*
X443365D01*
X292829Y425965D02*
X308793Y410000D01*
X381000D01*
X602000Y278000D02*
X602500Y278500D01*
X612500D01*
X620000Y286000D01*
X595000Y396000D02*
X635000Y356000D01*
Y326000D02*
Y356000D01*
X616000Y450000D02*
X638000Y472000D01*
X524000Y450000D02*
X616000D01*
X602129Y454200D02*
X632965Y485036D01*
X500000Y474000D02*
X524000Y450000D01*
X529800Y454200D02*
X602129D01*
X510000Y474000D02*
X529800Y454200D01*
X622000Y538000D02*
X705000Y455000D01*
X575904Y538000D02*
X622000D01*
X590000Y563000D02*
X622000D01*
X675000Y499950D02*
Y500000D01*
X575954Y543000D02*
X622000D01*
X590000Y558000D02*
X622000D01*
X622000Y543000D02*
X710000Y455000D01*
X593000Y548000D02*
X622000D01*
X715000Y455000D01*
X591000Y553000D02*
X622000D01*
X675000Y500000D01*
Y499950D02*
X720000Y454950D01*
X482979Y753000D02*
X527000D01*
X469000Y766979D02*
X482979Y753000D01*
X469000Y766979D02*
Y821000D01*
X473000Y825000D01*
Y830500D01*
X690000Y292404D02*
X703904Y278500D01*
X690000Y292404D02*
Y309571D01*
X694929Y314500D01*
X698812Y308000D02*
X713000D01*
X697812Y309000D02*
X698812Y308000D01*
X697000Y309000D02*
X697812D01*
X694929Y314500D02*
X697096D01*
X703904Y278500D02*
X712500D01*
X713000Y278000D01*
X738000Y297000D02*
X738574Y296426D01*
X713000Y293000D02*
X723000D01*
Y288000D02*
X723500Y288500D01*
X713000Y288000D02*
X723000D01*
Y293000D02*
X724000Y292000D01*
X690000Y258000D02*
X713000D01*
X713000Y258000D01*
X690000Y258000D02*
X690000Y258000D01*
X660000Y326000D02*
X660000Y326000D01*
X660000Y326000D02*
Y344000D01*
X661000Y352000D02*
X665000Y348000D01*
X661000Y352000D02*
Y393000D01*
X665000Y346216D02*
Y348000D01*
Y326000D02*
Y341945D01*
Y346216D02*
X665064Y346152D01*
X665000Y341945D02*
X665064Y342010D01*
Y346152D01*
X666464Y354293D02*
X670000Y350757D01*
Y326000D02*
Y350757D01*
X666464Y354293D02*
Y355000D01*
X84000Y728000D02*
Y849000D01*
X23200Y892000D02*
X41000D01*
X84000Y849000D01*
X110000Y722000D02*
X172000Y660000D01*
X110000Y722000D02*
Y856000D01*
X74000Y892000D02*
X110000Y856000D01*
X84000Y728000D02*
X157000Y655000D01*
X36574Y345426D02*
X39074D01*
X36000Y346000D02*
X36574Y345426D01*
X36000Y356000D02*
X36574Y356574D01*
X39074D01*
X44500Y362000D01*
X48000Y340000D02*
X48000Y340000D01*
X44500Y340000D02*
X48000D01*
X39074Y345426D02*
X44500Y340000D01*
Y362000D02*
X48000D01*
X497000Y735000D02*
X504500Y742500D01*
X604596D01*
X713000Y248000D02*
X743000D01*
X713000Y248000D02*
X713000Y248000D01*
X743000D02*
X743000Y248000D01*
X893426Y249261D02*
X898165Y254000D01*
X888000Y231800D02*
Y243835D01*
X893426Y249261D02*
Y249261D01*
X888000Y243835D02*
X893426Y249261D01*
X898165Y254000D02*
X900000D01*
X888000Y231800D02*
X888500Y231300D01*
Y228300D02*
Y231300D01*
X877000Y182000D02*
X880300Y185300D01*
X888500D01*
X874000Y214000D02*
X874800Y214800D01*
X888000D02*
X888500Y215300D01*
X874800Y214800D02*
X888000D01*
X861700Y175300D02*
X888500D01*
X855000Y185000D02*
X855389Y184611D01*
Y181611D02*
X861700Y175300D01*
X855389Y181611D02*
Y184611D01*
X713500Y298500D02*
X722096D01*
X713000Y298000D02*
X713500Y298500D01*
X713000Y268000D02*
X737000D01*
X713000Y268000D02*
X713000Y268000D01*
X737000D02*
X737000Y268000D01*
X888350Y220150D02*
X888500Y220300D01*
X855150Y220150D02*
X888350D01*
X855000Y220000D02*
X855150Y220150D01*
X888500Y220300D02*
Y223300D01*
Y172300D02*
Y175300D01*
X865000Y190300D02*
X888500D01*
X873000Y195300D02*
X888500D01*
X896000Y141600D02*
X900000D01*
X888500Y149100D02*
Y164300D01*
Y149100D02*
X896000Y141600D01*
X888500Y164300D02*
Y167300D01*
X591500Y546500D02*
X593000Y548000D01*
X572500Y546500D02*
X591500D01*
X690000Y532000D02*
X690000D01*
X708000Y550000D01*
X760000Y550000D01*
X547000Y551000D02*
X589000D01*
X541000Y545000D02*
X547000Y551000D01*
X589000D02*
X591000Y553000D01*
X560500Y534500D02*
X572500Y546500D01*
X516000Y554500D02*
X527401D01*
X527901Y555000D02*
X587000D01*
X555688Y559500D02*
X558188Y562000D01*
X559000D01*
X527401Y554500D02*
X527901Y555000D01*
X587000D02*
X590000Y558000D01*
X516000Y559500D02*
X555688D01*
X552454Y519500D02*
X575954Y543000D01*
X552404Y514500D02*
X575904Y538000D01*
X526000Y545000D02*
X541000D01*
X523929Y550000D02*
X533000D01*
X522774Y569000D02*
X561000D01*
X519096Y565322D02*
X522774Y569000D01*
X562000Y591000D02*
X590000Y563000D01*
X511979Y591000D02*
X562000D01*
X511929Y586000D02*
X552000D01*
X516000Y539500D02*
X552500D01*
X557000Y544000D01*
X523429Y549500D02*
X523929Y550000D01*
X525596Y544596D02*
X526000Y545000D01*
X548071Y530000D02*
X548497Y529574D01*
X535173Y530000D02*
X548071D01*
X552426Y529574D02*
X553000Y529000D01*
X548497Y529574D02*
X552426D01*
X519096Y564731D02*
Y565322D01*
X516000Y564500D02*
X518865D01*
X519096Y564731D01*
X516000Y514500D02*
X552404D01*
X516000Y519500D02*
X552454D01*
X534673Y529500D02*
X535173Y530000D01*
X554000Y470000D02*
X560000Y464000D01*
X750800Y160971D02*
X753071Y158701D01*
X750800Y160971D02*
X750800D01*
X753071Y157471D02*
Y158701D01*
X719071Y157471D02*
Y158971D01*
X645000Y409000D02*
X661000Y393000D01*
X655000Y326000D02*
Y376000D01*
X713000Y263000D02*
X730000D01*
X730000Y263000D01*
X713000Y263000D02*
X713000Y263000D01*
X675000Y356000D02*
X675000Y356000D01*
Y326000D02*
Y356000D01*
X541197Y463000D02*
X550000D01*
X505750Y498447D02*
X541197Y463000D01*
X510095Y499905D02*
X540000Y470000D01*
X554000D01*
X505750Y498447D02*
Y498615D01*
X504500Y499865D02*
X505750Y498615D01*
X504500Y499865D02*
Y503000D01*
X509731Y499905D02*
X510095D01*
X509500Y500135D02*
X509731Y499905D01*
X509500Y500135D02*
Y503000D01*
X455700Y458000D02*
X508929D01*
X438557Y440857D02*
X455700Y458000D01*
X680000Y326000D02*
Y346000D01*
X685000Y326000D02*
Y340500D01*
Y326000D02*
X685000Y326000D01*
X551000Y293000D02*
X602000D01*
X625000Y494000D02*
X626000Y495000D01*
X608000Y494000D02*
X625000D01*
X584000D02*
Y494243D01*
X595001Y505001D02*
X626000D01*
X584000Y494243D02*
X591257Y501500D01*
X591500D01*
X595001Y505001D01*
X602500Y307500D02*
X611500D01*
X602000Y308000D02*
X602500Y307500D01*
X611500D02*
X619000Y300000D01*
X615188Y253000D02*
X630188Y268000D01*
X602000Y253000D02*
X615188D01*
X630000Y215000D02*
Y227188D01*
X633000Y230188D01*
Y231000D01*
X697000Y299188D02*
X700812Y303000D01*
X713000D01*
X625000Y314000D02*
Y326000D01*
Y314000D02*
X629000Y310000D01*
X620000Y311642D02*
Y326000D01*
X619000Y310642D02*
X620000Y311642D01*
X619000Y309830D02*
Y310642D01*
X695000Y215000D02*
Y227188D01*
X690000Y215000D02*
Y228188D01*
X688000Y230188D02*
X690000Y228188D01*
X688000Y230188D02*
Y231000D01*
X439965Y449965D02*
X451500Y461500D01*
X477500D01*
X490000Y474000D01*
X421000Y449000D02*
X430000D01*
X458000Y477000D01*
X438557Y438012D02*
Y440857D01*
X433750Y436050D02*
X436595D01*
X438557Y438012D01*
X425000Y454000D02*
X448000Y477000D01*
X425000Y454000D02*
Y454000D01*
X428500Y477357D02*
X437643D01*
X420108Y485749D02*
X428500Y477357D01*
X432429Y549500D02*
X448000D01*
X431503Y550426D02*
X432429Y549500D01*
X428574Y550426D02*
X431503D01*
X437643Y477357D02*
X438000Y477000D01*
X428000Y551000D02*
X428574Y550426D01*
X395000Y442000D02*
Y524000D01*
X411000Y540000D01*
X382000Y429000D02*
X395000Y442000D01*
X391000Y551000D02*
X400000Y560000D01*
X391000Y482000D02*
Y551000D01*
X386000Y477000D02*
X391000Y482000D01*
X411000Y540000D02*
X420000D01*
X443365Y531000D02*
X444865Y529500D01*
X448000D01*
X444513Y621513D02*
X446000Y623000D01*
X441684Y621513D02*
X444513D01*
X408000Y587828D02*
X441684Y621513D01*
X418829Y582829D02*
X419000Y583000D01*
X436000D01*
X403829Y582829D02*
X418829D01*
X382000Y561000D02*
X403829Y582829D01*
X387500Y561500D02*
X399000Y573000D01*
X426000D01*
X387500Y500500D02*
Y561500D01*
X400000Y560000D02*
X438599D01*
X400000Y546000D02*
X437000D01*
X438500Y544500D01*
X810000Y524000D02*
Y678000D01*
X846008Y714008D01*
Y851208D01*
X886800Y892000D01*
X473000Y767929D02*
X481929Y759000D01*
X533000D01*
X499000Y748000D02*
X535000D01*
X487000Y736000D02*
X499000Y748000D01*
X535000D02*
X551598Y764599D01*
X473000Y767929D02*
Y785500D01*
X478000Y770000D02*
Y785500D01*
X489596Y597500D02*
X489615Y597519D01*
X469500Y588500D02*
X478500Y597500D01*
X489596D01*
X516000Y524500D02*
X516096Y524596D01*
X516000Y529500D02*
X534673D01*
X516000Y539500D02*
X516000Y539500D01*
X499500Y578521D02*
X511979Y591000D01*
X504500Y578571D02*
X511929Y586000D01*
X512029Y596000D02*
X552000D01*
X496000Y579971D02*
X512029Y596000D01*
X407000Y655000D02*
X430000Y632000D01*
X157000Y655000D02*
X407000D01*
X410000Y660000D02*
X430000Y640000D01*
X172000Y660000D02*
X410000D01*
X429904Y648000D02*
X430000D01*
X175000Y665000D02*
X412904D01*
X429904Y648000D01*
X158000Y682000D02*
X175000Y665000D01*
X230000Y674000D02*
Y704000D01*
X222000Y712000D02*
X230000Y704000D01*
X520422Y508000D02*
X565000D01*
X567000Y510000D01*
X516000Y509500D02*
X518922D01*
X520422Y508000D01*
X365733Y624234D02*
X376500Y635000D01*
X372234Y620734D02*
X386500Y635000D01*
X347762Y624234D02*
X365733D01*
X346312Y620734D02*
X372234D01*
X344863Y617234D02*
X378733D01*
X343596Y618500D02*
X344863Y617234D01*
X346496Y625500D02*
X347762Y624234D01*
X294404Y618500D02*
X343596D01*
X204904Y529000D02*
X294404Y618500D01*
X262505Y596500D02*
X291505Y625500D01*
X378733Y617234D02*
X396500Y635000D01*
X291505Y625500D02*
X346496D01*
X345046Y622000D02*
X346312Y620734D01*
X292954Y622000D02*
X345046D01*
X239954Y569000D02*
X292954Y622000D01*
X516096Y544596D02*
X525596D01*
X516000Y549500D02*
X523429D01*
X516000Y544500D02*
X516096Y544596D01*
X438599Y560000D02*
X439099Y559500D01*
X434000Y555000D02*
X434389Y554611D01*
X437389D01*
X158000Y682000D02*
Y706000D01*
X238000Y500000D02*
X270000Y532000D01*
Y555000D01*
X203000Y641000D02*
X204402Y639599D01*
Y636599D02*
Y639599D01*
Y636599D02*
X213950Y627050D01*
X643000Y307000D02*
Y307812D01*
X640000Y310812D02*
Y326000D01*
Y310812D02*
X643000Y307812D01*
X526875Y284000D02*
X593500D01*
X594500Y283000D01*
X602000D01*
X535750Y288000D02*
X602000D01*
X531750Y292000D02*
X535750Y288000D01*
X522000Y279250D02*
X526375Y283625D01*
X574000Y298000D02*
X602000D01*
X551000Y321000D02*
X574000Y298000D01*
X158000Y706000D02*
X164000Y712000D01*
X387000Y748000D02*
X397000D01*
X516000Y534500D02*
X560500D01*
X496000Y578283D02*
Y579971D01*
X494596Y576878D02*
X496000Y578283D01*
X494596Y571096D02*
Y576878D01*
X494500Y571000D02*
X494596Y571096D01*
X499500Y571000D02*
Y578521D01*
X504500Y571000D02*
Y578571D01*
X498672Y597000D02*
X500000D01*
X506000Y603000D01*
X484500Y582829D02*
X498672Y597000D01*
X489596Y578949D02*
X489823Y579177D01*
X489596Y571096D02*
Y578949D01*
X567000Y520000D02*
X584000D01*
X463500Y652500D02*
X480500D01*
X483000Y655000D01*
X475500Y662500D02*
X483000Y655000D01*
X463500Y662500D02*
X475500D01*
X502500Y652500D02*
X502750Y652750D01*
X524750D01*
X525000Y653000D01*
X507286Y663000D02*
X511143Y666858D01*
X502500Y662500D02*
X503000Y663000D01*
X507286D01*
X511143Y666858D02*
Y667143D01*
X517000Y673000D01*
X511500Y657500D02*
X517000Y663000D01*
X502500Y657500D02*
X511500D01*
X502829Y667829D02*
Y670829D01*
X517000Y685000D02*
Y690000D01*
X502500Y667500D02*
X502829Y667829D01*
Y670829D02*
X517000Y685000D01*
X509500Y642500D02*
X515000Y637000D01*
X502500Y642500D02*
X509500D01*
X503000Y647000D02*
X509000D01*
X509000Y647000D01*
X515000D01*
X502500Y647500D02*
X503000Y647000D01*
X290000Y480000D02*
X296500Y486500D01*
X358952Y477000D02*
X386000D01*
X349452Y486500D02*
X358952Y477000D01*
X296500Y486500D02*
X349452D01*
X381975Y494975D02*
X387500Y500500D01*
X437500Y554500D02*
X448000D01*
X437389Y554611D02*
X437500Y554500D01*
X439099Y559500D02*
X448000D01*
X276000Y473900D02*
Y590000D01*
X229400Y427300D02*
X276000Y473900D01*
X225425Y601825D02*
X240175D01*
X245500Y596500D01*
X262505D01*
X288000Y546096D02*
Y573000D01*
X147000Y569000D02*
X239954D01*
X180000Y575000D02*
X206650Y601650D01*
X225250D01*
X175000Y588950D02*
X193000Y606950D01*
Y641000D01*
X213950Y627050D02*
X225250D01*
X156025Y627025D02*
X170725D01*
X156000Y627000D02*
X156025Y627025D01*
X170725D02*
X170750Y627050D01*
X292829Y425965D02*
Y436172D01*
X288000Y441000D02*
X292829Y436172D01*
X282500Y446500D02*
X288000Y441000D01*
X282500Y446500D02*
Y501500D01*
X288000Y507000D01*
X282500Y512500D02*
X288000Y507000D01*
X282500Y512500D02*
Y540596D01*
X288000Y546096D01*
X416000Y454000D02*
X421000Y449000D01*
X396500Y635000D02*
X406500D01*
X156175Y601825D02*
X170575D01*
X170750Y601650D01*
X156000Y602000D02*
X156175Y601825D01*
X225250Y601650D02*
X225425Y601825D01*
Y614175D02*
X239825D01*
X240000Y614000D01*
X225250Y614350D02*
X225425Y614175D01*
X203000Y641000D02*
Y641000D01*
X170750Y588950D02*
X175000D01*
X503798Y490202D02*
X510000Y484000D01*
X499500Y503000D02*
X499596Y502905D01*
Y497475D02*
Y502905D01*
Y497475D02*
X503798Y493273D01*
Y490202D02*
Y493273D01*
X489500Y493429D02*
X493215Y489715D01*
X494286D01*
X500000Y484000D01*
X489500Y493429D02*
Y503000D01*
X485000Y492929D02*
Y497071D01*
X484596Y489404D02*
X490000Y484000D01*
X484596Y497475D02*
X485000Y497071D01*
X484596Y492525D02*
X485000Y492929D01*
X484596Y489404D02*
Y492525D01*
X484500Y503000D02*
X484596Y502905D01*
Y497475D02*
Y502905D01*
X494596Y495404D02*
Y502905D01*
Y495404D02*
X495000Y495000D01*
X456053Y496250D02*
X458250Y498447D01*
X448000Y487000D02*
X450000Y489000D01*
Y490365D02*
X455885Y496250D01*
X450000Y489000D02*
Y490365D01*
X455885Y496250D02*
X456053D01*
X458250Y498447D02*
Y498615D01*
X459500Y499865D01*
Y503000D01*
X450904Y499905D02*
X454269D01*
X438000Y487000D02*
X450904Y499905D01*
X454269D02*
X454500Y500135D01*
Y503000D01*
X458000Y493000D02*
X464404Y499404D01*
X458000Y487000D02*
Y493000D01*
X464404Y499404D02*
Y502905D01*
X464500Y503000D01*
X468000Y487000D02*
Y492000D01*
X469500Y493500D02*
Y503000D01*
X468000Y492000D02*
X469500Y493500D01*
X446422Y564731D02*
Y567579D01*
X447769Y564731D02*
X448000Y564500D01*
X446422Y564731D02*
X447769D01*
X441000Y573000D02*
X446422Y567579D01*
X436000Y573000D02*
X441000D01*
X454404Y571096D02*
X454500Y571000D01*
X446000Y583000D02*
X454404Y574596D01*
Y571096D02*
Y574596D01*
X430000Y540000D02*
X430404Y539596D01*
X447904D02*
X448000Y539500D01*
X430404Y539596D02*
X447904D01*
X442071Y525000D02*
X442475Y524596D01*
X437536Y525000D02*
X442071D01*
X430000Y524000D02*
X436535D01*
X447904Y524596D02*
X448000Y524500D01*
X442475Y524596D02*
X447904D01*
X436535Y524000D02*
X437536Y525000D01*
X430000Y514000D02*
X430404Y514404D01*
X447904D02*
X448000Y514500D01*
X430404Y514404D02*
X447904D01*
X494500Y503000D02*
X494596Y502905D01*
X479596Y495404D02*
Y502905D01*
Y495404D02*
X480000Y495000D01*
X479500Y503000D02*
X479596Y502905D01*
X474500Y480501D02*
X480001Y475001D01*
X474500Y480501D02*
Y503000D01*
X484500Y571000D02*
Y582829D01*
X506000Y603000D02*
Y613000D01*
X511426Y578426D02*
X512000Y579000D01*
X509500Y571000D02*
Y574135D01*
X511426Y576061D01*
Y578426D01*
X489500Y571000D02*
X489596Y571096D01*
X474500Y571000D02*
Y585824D01*
X478676Y590000D01*
X479500Y571000D02*
Y582000D01*
X802468Y811250D02*
X806500Y807218D01*
X775250Y811250D02*
X802468D01*
X767402Y803402D02*
X775250Y811250D01*
X520484Y793413D02*
Y809484D01*
X503071Y776000D02*
X520484Y793413D01*
X489448Y776000D02*
X503071D01*
X483000Y830500D02*
Y851000D01*
X488000Y845000D02*
X488000Y845000D01*
Y830500D02*
Y845000D01*
X478000Y830500D02*
Y845000D01*
X597718Y812000D02*
X603500Y806218D01*
X564402Y803402D02*
X573000Y812000D01*
X597718D01*
X618000Y755904D02*
Y768000D01*
X604596Y742500D02*
X618000Y755904D01*
X611634Y774366D02*
X618000Y768000D01*
X368000Y811000D02*
X396000D01*
X399500Y807500D01*
Y798000D02*
Y807500D01*
X393904Y806000D02*
X393929D01*
X390000Y802096D02*
X393904Y806000D01*
X189950Y811000D02*
X196500Y804450D01*
X157402Y803402D02*
X165000Y811000D01*
X189950D01*
X447904Y519596D02*
X448000Y519500D01*
X440404Y519596D02*
X447904D01*
X440000Y520000D02*
X440404Y519596D01*
X440404Y509404D02*
X447904D01*
X440000Y509000D02*
X440404Y509404D01*
X447904D02*
X448000Y509500D01*
X464500Y601500D02*
X466000Y603000D01*
X464500Y571000D02*
Y601500D01*
X478676Y590000D02*
X479000D01*
X469500Y571000D02*
Y588500D01*
X489615Y597519D02*
X490519D01*
X496000Y603000D01*
X456000Y589318D02*
X459500Y585818D01*
X456000Y589318D02*
Y603000D01*
X459500Y571000D02*
Y585818D01*
X496000Y603000D02*
Y613000D01*
X466000Y603000D02*
Y613000D01*
X456000Y603000D02*
Y613000D01*
X447250Y624250D02*
Y629000D01*
X460750Y642500D01*
X463500D01*
X495500Y632750D02*
X496000Y632250D01*
X495500Y632750D02*
Y635500D01*
X496750Y632250D02*
X506000Y623000D01*
X496000Y632250D02*
X496750D01*
X490500Y635500D02*
X490750Y635250D01*
Y628250D02*
X496000Y623000D01*
X490750Y628250D02*
Y635250D01*
X485750Y623250D02*
Y635250D01*
X485500Y635500D02*
X485750Y635250D01*
Y623250D02*
X486000Y623000D01*
X480500Y627500D02*
Y635500D01*
X471500Y628500D02*
X472785D01*
X475000Y630715D02*
Y635000D01*
X466000Y623000D02*
X471500Y628500D01*
X472785D02*
X475000Y630715D01*
Y635000D02*
X475500Y635500D01*
X465250Y632250D02*
X470000D01*
X456000Y623000D02*
X465250Y632250D01*
X470500Y632750D02*
Y635500D01*
X470000Y632250D02*
X470500Y632750D01*
X884389Y296389D02*
X892000Y304000D01*
Y314000D02*
X892000D01*
X894750Y311250D02*
X906250D01*
X892000Y314000D02*
X894750Y311250D01*
X906500Y304000D02*
X907000Y303500D01*
X892000Y304000D02*
X906500D01*
X844942Y296389D02*
X884389D01*
X906250Y311250D02*
X907000Y310500D01*
X933000Y320000D02*
X940000D01*
X930500Y317500D02*
X933000Y320000D01*
X929000Y310500D02*
X929500Y310000D01*
X940000D01*
X934000Y300000D02*
X940000D01*
X930500Y303500D02*
X934000Y300000D01*
X929000Y303500D02*
X930500D01*
X929000Y317500D02*
X930500D01*
X409000Y677250D02*
X419750D01*
X423000Y674000D01*
X361000Y710000D02*
X367000D01*
X351000D02*
X361000D01*
X351000Y705000D02*
Y710000D01*
X358077Y697923D02*
X363827D01*
X351000Y705000D02*
X358077Y697923D01*
X363827D02*
X365000Y696750D01*
X341000Y720000D02*
X351000D01*
X288000Y798000D02*
X348000Y738000D01*
X454000D01*
X457000Y735000D01*
X387000Y748000D02*
Y748000D01*
X611000Y760000D02*
X612000D01*
X603500Y767500D02*
X611000Y760000D01*
X407000Y718000D02*
X430421Y694579D01*
X375000Y718000D02*
X407000D01*
X430421Y676294D02*
Y694579D01*
X367000Y710000D02*
X375000Y718000D01*
X463000Y648000D02*
X463500Y647500D01*
X458715Y648000D02*
X463000D01*
X430421Y676294D02*
X458715Y648000D01*
X447000Y678000D02*
X457504Y667497D01*
X463504D02*
X464000Y667000D01*
X447000Y678000D02*
Y690000D01*
Y700000D01*
X330497Y689650D02*
X336397Y683750D01*
X300250Y689650D02*
X330497D01*
X336397Y683750D02*
X365000D01*
Y690250D02*
Y696750D01*
X371549Y678423D02*
X382000Y688874D01*
Y710000D01*
X366173Y678423D02*
X371549D01*
X365000Y677250D02*
X366173Y678423D01*
X392000Y710000D02*
X403327Y698673D01*
Y697991D02*
Y698673D01*
X392000Y710000D02*
Y710000D01*
X403327Y697991D02*
X404568Y696750D01*
X409000D01*
X399500Y767500D02*
X404522Y762478D01*
Y760479D02*
Y762478D01*
X483000Y830500D02*
X483000Y830500D01*
X488000Y785500D02*
X488125Y785375D01*
Y777322D02*
X489448Y776000D01*
X488125Y777322D02*
Y785375D01*
X483000Y785500D02*
Y794000D01*
X492000Y803000D02*
X506000D01*
X483000Y794000D02*
X492000Y803000D01*
X520484Y809484D02*
X535000Y824000D01*
X493000Y785500D02*
X493500Y786000D01*
X506000D01*
X503000Y815000D02*
X504000D01*
X506000Y813000D01*
X493000Y825000D02*
Y830500D01*
Y825000D02*
X503000Y815000D01*
X355375Y825375D02*
X378625D01*
X355000Y825750D02*
X355375Y825375D01*
X378625D02*
X379000Y825000D01*
X196500Y798000D02*
X288000D01*
X204000Y760000D02*
X318000D01*
X348000Y730000D02*
X447000D01*
X318000Y760000D02*
X348000Y730000D01*
X174000Y722000D02*
X176000D01*
X164000Y712000D02*
X174000Y722000D01*
X164000Y690000D02*
Y702000D01*
X164000Y702000D02*
X176000D01*
X164000Y702000D02*
X164000Y702000D01*
X200000D02*
X212000D01*
X212000Y702000D01*
X222000D01*
X200000Y722000D02*
Y727000D01*
X193000Y734000D02*
X200000Y727000D01*
X178000Y712000D02*
X212000D01*
X183000Y725672D02*
X183500Y725172D01*
X178000Y712000D02*
X183500Y717500D01*
X183000Y725672D02*
Y734000D01*
X183500Y717500D02*
Y725172D01*
X176000Y712000D02*
X178000D01*
X470000Y677750D02*
X470500Y677250D01*
Y674500D02*
Y677250D01*
X457000Y690000D02*
X469250Y677750D01*
X470000D01*
X457000Y690000D02*
Y700000D01*
X457504Y667497D02*
X463504D01*
X505000Y686750D02*
Y688000D01*
X495500Y677250D02*
X505000Y686750D01*
Y688000D02*
X507000Y690000D01*
X495500Y674500D02*
Y677250D01*
X490500Y674500D02*
Y683500D01*
X497000Y690000D01*
X485500Y682500D02*
X487000Y684000D01*
X485500Y674500D02*
Y682500D01*
X477000Y690000D02*
X480500Y686500D01*
Y674500D02*
Y686500D01*
X467000Y690000D02*
X475500Y681500D01*
Y674500D02*
Y681500D01*
X728000Y738000D02*
X754598Y764599D01*
X507000Y735000D02*
X510000Y738000D01*
X728000D01*
X405000Y760000D02*
X421000Y744000D01*
X460000D02*
X467000Y737000D01*
X421000Y744000D02*
X460000D01*
X404522Y760479D02*
X405000Y760000D01*
X507000Y730000D02*
Y735000D01*
X497000Y730000D02*
Y735000D01*
X457000Y730000D02*
Y735000D01*
X467000Y730000D02*
Y737000D01*
X487000Y730000D02*
Y736000D01*
X800046Y730000D02*
X819750Y749704D01*
X517000Y730000D02*
X800046D01*
X418000Y798000D02*
X477000Y739000D01*
Y730000D02*
Y739000D01*
X517000Y690000D02*
Y700000D01*
Y690000D02*
X517000Y690000D01*
X517000Y700000D02*
X517000Y700000D01*
X507000Y700000D02*
X507000Y700000D01*
Y690000D02*
Y700000D01*
X497000Y690000D02*
Y700000D01*
X487000Y700000D02*
X487000Y700000D01*
Y690000D02*
Y700000D01*
X477000Y690000D02*
Y700000D01*
X467000Y690000D02*
Y700000D01*
X467000Y700000D02*
X467000Y700000D01*
X447000Y700000D02*
X447000Y700000D01*
X487000Y684000D02*
Y690000D01*
X152000Y838750D02*
X155192D01*
X156432Y839991D01*
Y850433D01*
X158000Y852000D01*
X355000Y838750D02*
X357760D01*
X359000Y839991D01*
Y850000D02*
X361000Y852000D01*
X359000Y839991D02*
Y850000D01*
X765931Y838750D02*
X767172Y839991D01*
X762000Y838750D02*
X765931D01*
X767172Y839991D02*
Y851172D01*
X768000Y852000D01*
X785200Y887123D02*
X794000Y878323D01*
Y838874D02*
Y878323D01*
Y838874D02*
X798874Y834000D01*
X767402Y800402D02*
Y803402D01*
X766000Y799000D02*
X767402Y800402D01*
X742000Y808000D02*
X767050D01*
X778300Y819250D01*
X806000D01*
X737402Y800402D02*
Y803402D01*
X736000Y799000D02*
X737402Y800402D01*
Y803402D02*
X742000Y808000D01*
X754598Y767599D02*
X756000Y769000D01*
X754598Y764599D02*
Y767599D01*
X819750Y749704D02*
Y768250D01*
X814634Y773366D02*
Y788402D01*
Y773366D02*
X819750Y768250D01*
X611634Y774366D02*
Y788402D01*
X551598Y767599D02*
X553000Y769000D01*
X551598Y764599D02*
Y767599D01*
X533000Y799000D02*
X534402Y800402D01*
Y803402D02*
X539000Y808000D01*
X564050D01*
X534402Y800402D02*
Y803402D01*
X564402Y800402D02*
Y803402D01*
X564050Y808000D02*
X575300Y819250D01*
X563000Y799000D02*
X564402Y800402D01*
X575300Y819250D02*
X603000D01*
X184000Y839683D02*
Y878066D01*
X175600Y886466D02*
X184000Y878066D01*
Y839683D02*
X186750Y836933D01*
Y836124D02*
Y836933D01*
X188874Y834000D02*
X189682D01*
X186750Y836124D02*
X188874Y834000D01*
X156000Y799000D02*
X157402Y800402D01*
Y803402D01*
X127402Y800402D02*
Y803402D01*
X134125Y810125D02*
X154752D01*
X126000Y799000D02*
X127402Y800402D01*
Y803402D02*
X134125Y810125D01*
X378400Y866600D02*
Y892000D01*
X387000Y836000D02*
Y858000D01*
X378400Y866600D02*
X387000Y858000D01*
X399500Y798000D02*
X418000D01*
X360402Y803402D02*
X368000Y811000D01*
X359000Y799000D02*
X360402Y800402D01*
Y803402D01*
X335000Y808000D02*
X360050D01*
X371300Y819250D01*
X394750D01*
X330402Y800402D02*
Y803402D01*
X335000Y808000D01*
X329000Y799000D02*
X330402Y800402D01*
X553000Y769000D02*
X563000D01*
X756000Y769000D02*
X756000Y769000D01*
X766000D01*
X603500Y795500D02*
Y798000D01*
X604000Y795000D02*
X605036D01*
X611634Y788402D01*
X603500Y795500D02*
X604000Y795000D01*
X806500Y795500D02*
X807000Y795000D01*
X808036D01*
X806500Y795500D02*
Y798000D01*
X808036Y795000D02*
X814634Y788402D01*
X595826Y806250D02*
X596000D01*
X593500Y798000D02*
Y803924D01*
X595826Y806250D01*
X390000Y798500D02*
Y802096D01*
X785200Y887123D02*
Y892000D01*
X798874Y834000D02*
X799682D01*
X801432Y832250D01*
X806000D01*
X796500Y798000D02*
X797000Y798500D01*
X799000Y805574D02*
Y806250D01*
X797000Y798500D02*
Y803574D01*
X799000Y805574D01*
X806500Y767500D02*
X814000Y760000D01*
X806500Y767500D02*
Y770000D01*
X738000Y824000D02*
X748000D01*
X750000Y826000D02*
X761750D01*
X762000Y825750D01*
X748000Y824000D02*
X750000Y826000D01*
X761750Y832000D02*
X762000Y832250D01*
X750000Y832000D02*
X761750D01*
X748000Y834000D02*
X750000Y832000D01*
X738000Y834000D02*
X748000D01*
X748000Y844000D02*
X748000Y844000D01*
Y834000D02*
Y844000D01*
Y834000D02*
X748000Y834000D01*
X768000Y852000D02*
X778000D01*
X788000Y831874D02*
X799451Y820423D01*
X788000Y831874D02*
Y852000D01*
X799451Y820423D02*
X804827D01*
X806000Y819250D01*
X818250Y825750D02*
X820000Y824000D01*
X806000Y825750D02*
X818250D01*
Y832250D02*
X820000Y834000D01*
X806000Y832250D02*
X818250D01*
X806000Y838750D02*
Y848000D01*
X810000Y852000D02*
X810000D01*
X808000Y850000D02*
X810000Y852000D01*
X808000Y850000D02*
Y850000D01*
X806000Y848000D02*
X808000Y850000D01*
X820000Y844000D02*
X830000D01*
X820000Y834000D02*
X830000D01*
X814750Y819250D02*
X820000Y814000D01*
X806000Y819250D02*
X814750D01*
X806500Y798000D02*
Y807218D01*
X801500Y786500D02*
Y798000D01*
X799000Y784000D02*
X801500Y786500D01*
X794000Y748000D02*
X804000D01*
X802000Y760000D02*
Y762500D01*
X801500Y763000D02*
Y770000D01*
X802000Y760000D02*
X804000Y758000D01*
X801500Y763000D02*
X802000Y762500D01*
X791000Y769000D02*
X791500Y769500D01*
X776000Y769000D02*
X791000D01*
X791500Y769500D02*
Y770000D01*
X776000Y769000D02*
Y779000D01*
Y799000D02*
X791000D01*
X791500Y798500D01*
Y798000D02*
Y798500D01*
X776000Y789000D02*
Y799000D01*
X736000Y789000D02*
X736000Y789000D01*
Y779000D02*
Y789000D01*
X756000Y799000D02*
X766000D01*
Y769000D02*
X766000Y769000D01*
X746000Y769000D02*
Y779000D01*
X756000D02*
X766000D01*
X746000D02*
X756000D01*
X746000Y789000D02*
Y799000D01*
X756000Y789000D02*
X766000D01*
X746000D02*
X756000D01*
X582000Y887323D02*
Y892000D01*
Y887323D02*
X591329Y877994D01*
Y838545D02*
Y877994D01*
Y838545D02*
X595874Y834000D01*
X596682D01*
X598432Y832250D01*
X603000D01*
X585000Y831874D02*
X596451Y820423D01*
X601827D01*
X603000Y819250D01*
X585000Y831874D02*
Y852000D01*
X603000Y819250D02*
X611750D01*
X617000Y814000D01*
X603500Y798000D02*
Y806218D01*
X598500Y786500D02*
Y798000D01*
X596000Y784000D02*
X598500Y786500D01*
X603500Y767500D02*
Y770000D01*
X591000Y748000D02*
X601000D01*
X599000Y760000D02*
Y762500D01*
X598500Y763000D02*
Y770000D01*
X599000Y760000D02*
X601000Y758000D01*
X598500Y763000D02*
X599000Y762500D01*
X533000Y779000D02*
Y789000D01*
X553000Y799000D02*
X563000D01*
X573000Y789000D02*
Y799000D01*
X588000D02*
X588500Y798500D01*
Y798000D02*
Y798500D01*
X573000Y799000D02*
X588000D01*
X573000Y769000D02*
X588000D01*
X588500Y769500D01*
Y770000D01*
X573000Y769000D02*
Y779000D01*
X553000Y769000D02*
X553000Y769000D01*
X543000Y779000D02*
X563000D01*
X543000Y769000D02*
Y779000D01*
X563000D02*
X563000Y779000D01*
X553000Y789000D02*
X563000D01*
X543000D02*
X553000D01*
X543000D02*
Y799000D01*
X607000Y839991D02*
Y852000D01*
X605760Y838750D02*
X607000Y839991D01*
X603000Y838750D02*
X605760D01*
X617001Y844000D02*
X627000D01*
X627000Y844000D01*
X617000Y843999D02*
X617001Y844000D01*
X617000Y834000D02*
X627000D01*
X627000Y834000D01*
X603000Y832250D02*
X603250Y832000D01*
X615000D01*
X617000Y834000D01*
X603000Y825750D02*
X603250Y826000D01*
X615000D02*
X617000Y824000D01*
X603250Y826000D02*
X615000D01*
X547000D02*
X558750D01*
X559000Y825750D01*
X545000Y824000D02*
X547000Y826000D01*
X535000Y824000D02*
X545000D01*
X565000Y852000D02*
X575000D01*
X559000Y838750D02*
X563432D01*
X565000Y840318D02*
Y852000D01*
X563432Y838750D02*
X565000Y840318D01*
X558750Y832000D02*
X559000Y832250D01*
X547000Y832000D02*
X558750D01*
X545000Y834000D02*
X547000Y832000D01*
X535000Y834000D02*
X545000D01*
Y844000D01*
X381000Y831874D02*
Y852000D01*
Y831874D02*
X389750Y823124D01*
Y823124D02*
Y823124D01*
Y823124D02*
X391874Y821000D01*
X392682D01*
X394750Y819250D02*
X403432D01*
X392682Y821000D02*
X394432Y819250D01*
X398833Y832417D02*
X399000Y832250D01*
X390583Y832417D02*
X398833D01*
X387000Y836000D02*
X390583Y832417D01*
X399000Y832250D02*
X399417Y832667D01*
X403432Y819250D02*
X404673Y818010D01*
Y817327D02*
X408000Y814000D01*
X413000D01*
X404673Y817327D02*
Y818010D01*
X403568Y825750D02*
X405318Y824000D01*
X413000D01*
X399000Y825750D02*
X403568D01*
X411667Y832667D02*
X413000Y834000D01*
X399417Y832667D02*
X411667D01*
X413000Y834000D02*
X423000D01*
X413000Y844000D02*
X423000D01*
X175600Y886466D02*
Y892000D01*
X189682Y834000D02*
X191432Y832250D01*
X196000D01*
X191500Y786500D02*
Y798000D01*
X189000Y784000D02*
X191500Y786500D01*
X178000Y831874D02*
X189451Y820423D01*
X194827D01*
X196000Y819250D01*
X178000Y831874D02*
Y852000D01*
X186500Y798000D02*
X186625Y798125D01*
Y805125D02*
X186750Y805250D01*
X186625Y798125D02*
Y805125D01*
X196500Y798000D02*
Y804450D01*
Y767500D02*
Y770000D01*
Y767500D02*
X204000Y760000D01*
X163876Y819250D02*
X196000D01*
X154752Y810125D02*
X163876Y819250D01*
X166000Y789000D02*
Y799000D01*
X146000D02*
X156000D01*
X136000Y789000D02*
Y799000D01*
X146000Y789000D02*
X156000D01*
X136000D02*
X146000D01*
X166000Y769000D02*
Y779000D01*
X146000Y769000D02*
X156000D01*
X146000Y769000D02*
X146000Y769000D01*
X136000Y779000D02*
X156000D01*
X156000Y779000D01*
X136000Y769000D02*
Y779000D01*
X192000Y760000D02*
Y762500D01*
X191500Y763000D02*
X192000Y762500D01*
X191500Y763000D02*
Y770000D01*
X192000Y760000D02*
X194000Y758000D01*
X184000Y748000D02*
X194000D01*
X151750Y826000D02*
X152000Y825750D01*
X140000Y826000D02*
X151750D01*
X138000Y824000D02*
X140000Y826000D01*
X128000Y824000D02*
X138000D01*
Y834000D02*
Y844000D01*
X145000Y832000D02*
X151750D01*
X152000Y832250D01*
X138000Y834000D02*
X143000D01*
X145000Y832000D01*
X128000Y834000D02*
X138000D01*
X158000Y852000D02*
X168000D01*
X196000Y819250D02*
X204750D01*
X210000Y814000D01*
X196875Y824875D02*
X209125D01*
X196000Y825750D02*
X196875Y824875D01*
X209125D02*
X210000Y824000D01*
Y834000D02*
X220000D01*
X196875Y833125D02*
X209125D01*
X210000Y834000D01*
X196000Y832250D02*
X196875Y833125D01*
X196000Y838750D02*
X198760D01*
X200000Y839991D02*
Y852000D01*
X198760Y838750D02*
X200000Y839991D01*
X210000Y844000D02*
X220000D01*
X126000Y789000D02*
X126000Y789000D01*
Y779000D02*
Y789000D01*
X329000Y779000D02*
Y789000D01*
X329000Y789000D02*
X329000Y789000D01*
X329000Y779000D02*
X329000Y779000D01*
X401760Y838750D02*
X403000Y839991D01*
X399000Y838750D02*
X401760D01*
X403000Y839991D02*
Y852000D01*
X389500Y798000D02*
X390000Y798500D01*
X399500Y767500D02*
Y770000D01*
X394500Y760500D02*
X397000Y758000D01*
X394500Y760500D02*
Y770000D01*
X392000Y784000D02*
X394500Y786500D01*
Y798000D01*
X369000Y799000D02*
X384000D01*
X384500Y798500D01*
Y798000D02*
Y798500D01*
X339000Y789000D02*
Y799000D01*
X349000Y789000D02*
X359000D01*
X339000D02*
X349000D01*
X349000Y799000D02*
X359000D01*
X349000Y799000D02*
X349000Y799000D01*
X369000Y789000D02*
X369000Y789000D01*
Y799000D01*
X384000Y769000D02*
X384500Y769500D01*
X369000Y769000D02*
X384000D01*
X384500Y769500D02*
Y770000D01*
X369000Y769000D02*
Y779000D01*
X349000Y769000D02*
X359000D01*
X349000Y769000D02*
X349000Y769000D01*
X339000D02*
Y779000D01*
X349000D02*
X349000Y779000D01*
X339000Y779000D02*
X349000D01*
X349000Y779000D02*
X359000D01*
X361000Y852000D02*
X371000D01*
X350432Y825750D02*
X355000D01*
X341000Y824000D02*
X348682D01*
X350432Y825750D01*
X331000Y824000D02*
X341000D01*
X354750Y832000D02*
X355000Y832250D01*
X341000Y834000D02*
X343000Y832000D01*
X354750D01*
X341000Y834000D02*
Y844000D01*
X341000Y844000D02*
X341000Y844000D01*
X331000Y834000D02*
X341000D01*
D14*
X895750Y615250D02*
Y666250D01*
X895000Y667000D02*
X895750Y666250D01*
Y615250D02*
X897000Y614000D01*
D15*
X677571Y115129D02*
X744500Y48200D01*
X711571Y111129D02*
X744500Y78200D01*
X745571Y107429D02*
X774650Y78350D01*
X709571Y123971D02*
Y125143D01*
Y123971D02*
X711571Y121971D01*
Y111129D02*
Y121971D01*
X709571Y125143D02*
X709571Y125143D01*
X709571Y125143D02*
Y134471D01*
X745571Y107429D02*
Y121971D01*
X675819Y123723D02*
Y126023D01*
Y123723D02*
X677571Y121971D01*
X675642Y126200D02*
Y127301D01*
X677571Y115129D02*
Y121971D01*
X675571Y127372D02*
Y134471D01*
Y127372D02*
X675642Y127301D01*
Y126200D02*
X675819Y126023D01*
X877000Y850000D02*
X914951Y887951D01*
X933551D01*
X877000Y706600D02*
Y850000D01*
X933551Y887951D02*
X937600Y892000D01*
X743571Y123971D02*
X745571Y121971D01*
X743571Y123971D02*
Y134471D01*
X498250Y397950D02*
X498275Y397975D01*
X512975D01*
X381912Y573913D02*
X382000Y574000D01*
X381825Y573825D02*
X381912Y573913D01*
X381913Y507913D02*
X382000Y508000D01*
X381825Y507825D02*
X381913Y507913D01*
X353950Y533050D02*
X367250D01*
X318000Y535000D02*
X330000Y547000D01*
X340000Y547000D02*
X353950Y533050D01*
X367425Y507825D02*
X381825D01*
X367250Y507650D02*
X367425Y507825D01*
X367250Y494950D02*
X367275Y494975D01*
X381975D01*
X295650Y517500D02*
X298500Y520350D01*
X302750D01*
X292950Y527500D02*
X298500Y533050D01*
X288500Y517500D02*
X295650D01*
X288500Y527500D02*
X292950D01*
X288000Y517000D02*
X288500Y517500D01*
X288000Y527000D02*
X288500Y527500D01*
X298500Y533050D02*
X302750D01*
Y494950D02*
X307000D01*
X318000Y505950D01*
Y535000D01*
X381825Y441825D02*
X382000Y442000D01*
X381975Y428975D02*
X382000Y429000D01*
X367425Y441825D02*
X381825D01*
X367250Y441650D02*
X367425Y441825D01*
X367275Y428975D02*
X381975D01*
X367250Y428950D02*
X367275Y428975D01*
X318500Y469500D02*
X330000Y481000D01*
X340000Y481000D02*
X353950Y467050D01*
X367250D01*
X298500D02*
X302750D01*
X318500Y440450D02*
Y469500D01*
X307000Y428950D02*
X318500Y440450D01*
X302750Y428950D02*
X307000D01*
X298500Y454350D02*
X302750D01*
X288500Y461500D02*
X292950D01*
X288500Y451500D02*
X295650D01*
X292950Y461500D02*
X298500Y467050D01*
X295650Y451500D02*
X298500Y454350D01*
X288000Y451000D02*
X288500Y451500D01*
X288000Y461000D02*
X288500Y461500D01*
X367250Y560950D02*
X367275Y560975D01*
X381975D01*
X382000Y561000D01*
X340000Y613000D02*
X353950Y599050D01*
X367250D01*
X367425Y573825D02*
X381825D01*
X367250Y573650D02*
X367425Y573825D01*
X288000Y593000D02*
X288500Y593500D01*
X298500Y599050D02*
X302750D01*
X292950Y593500D02*
X298500Y599050D01*
X288500Y593500D02*
X292950D01*
X288000Y583000D02*
X288500Y583500D01*
X298500Y586350D02*
X302750D01*
X295650Y583500D02*
X298500Y586350D01*
X288500Y583500D02*
X295650D01*
X302750Y560950D02*
X307000D01*
X318000Y571950D02*
Y601000D01*
X307000Y560950D02*
X318000Y571950D01*
Y601000D02*
X330000Y613000D01*
X438000Y397950D02*
X449000Y408950D01*
Y439000D02*
X460000Y450000D01*
X449000Y408950D02*
Y439000D01*
X498425Y410825D02*
X512825D01*
X513000Y411000D01*
X498250Y410650D02*
X498425Y410825D01*
X513000Y398000D02*
X513025Y397975D01*
X433750Y397950D02*
X438000D01*
X470000Y450000D02*
X483950Y436050D01*
X498250D01*
X419500Y430500D02*
X423950D01*
X429500Y436050D02*
X433750D01*
X419000Y430000D02*
X419500Y430500D01*
X423950D02*
X429500Y436050D01*
X419000Y420000D02*
X419500Y420500D01*
X426650D01*
X429500Y423350D01*
X433750D01*
X891250Y380000D02*
X892000D01*
X891250Y346000D02*
X892000D01*
X905500Y379500D02*
X906000Y379000D01*
X892000Y380000D02*
X892500Y379500D01*
X905500D01*
X904000Y344000D02*
X906000D01*
X892000Y346000D02*
X893250Y344750D01*
X903250D01*
X904000Y344000D01*
X940000Y531250D02*
Y532000D01*
X933200Y524450D02*
X940000Y531250D01*
X933200Y509500D02*
Y524450D01*
X930700Y507000D02*
X933200Y509500D01*
X935750Y389500D02*
X943250Y397000D01*
X944000D01*
X930000Y389000D02*
X930500Y389500D01*
X935750D01*
X943255Y381005D02*
X944000D01*
X930000Y379000D02*
X930500Y379500D01*
X941750D01*
X943255Y381005D01*
X930500Y344500D02*
X941750D01*
X943250Y346000D01*
X930000Y344000D02*
X930500Y344500D01*
X943250Y346000D02*
X944000D01*
X935750Y354500D02*
X943250Y362000D01*
X944000D01*
X930000Y354000D02*
X930500Y354500D01*
X935750D01*
X931662Y675088D02*
X939000Y667750D01*
Y667000D02*
Y667750D01*
X931662Y675088D02*
Y690038D01*
X929700Y692000D02*
X931662Y690038D01*
X896250Y669000D02*
X902704Y675454D01*
Y690404D02*
X904300Y692000D01*
X895000Y667000D02*
X896250Y668250D01*
Y669000D01*
X902704Y675454D02*
Y690404D01*
X877000Y706600D02*
X891600Y692000D01*
D19*
X833000Y205000D02*
D03*
D20*
X841500Y210000D02*
D03*
Y205000D02*
D03*
Y200000D02*
D03*
X824500D02*
D03*
Y205000D02*
D03*
Y210000D02*
D03*
D21*
X828600Y892000D02*
D03*
X741300D02*
D03*
X625800Y892000D02*
D03*
X538500D02*
D03*
X422200Y892000D02*
D03*
X334900D02*
D03*
X219000D02*
D03*
X131700D02*
D03*
D22*
X784800D02*
D03*
X582000Y892000D02*
D03*
X378400Y892000D02*
D03*
X175200D02*
D03*
D23*
X529000Y506000D02*
D03*
Y496000D02*
D03*
X382000Y518000D02*
D03*
Y508000D02*
D03*
Y485000D02*
D03*
Y495000D02*
D03*
X288000Y537000D02*
D03*
Y527000D02*
D03*
Y517000D02*
D03*
Y507000D02*
D03*
X382000Y419000D02*
D03*
Y429000D02*
D03*
Y452000D02*
D03*
Y442000D02*
D03*
X288000Y451000D02*
D03*
Y441000D02*
D03*
Y471000D02*
D03*
Y461000D02*
D03*
X288000Y603000D02*
D03*
Y593000D02*
D03*
Y583000D02*
D03*
Y573000D02*
D03*
X382000Y551000D02*
D03*
Y561000D02*
D03*
Y584000D02*
D03*
Y574000D02*
D03*
X351000Y720000D02*
D03*
Y710000D02*
D03*
X423000Y674000D02*
D03*
Y664000D02*
D03*
X341000Y720000D02*
D03*
X341000Y710000D02*
D03*
X447000Y720000D02*
D03*
Y730000D02*
D03*
X456000Y613000D02*
D03*
Y623000D02*
D03*
X513000Y411000D02*
D03*
Y421000D02*
D03*
X419000Y430000D02*
D03*
Y440000D02*
D03*
Y410000D02*
D03*
Y420000D02*
D03*
X438000Y477000D02*
D03*
Y487000D02*
D03*
X626000Y505000D02*
D03*
Y495000D02*
D03*
X567000Y520000D02*
D03*
Y510000D02*
D03*
X458000Y477000D02*
D03*
Y487000D02*
D03*
X448000Y477000D02*
D03*
Y487000D02*
D03*
X468000Y477000D02*
D03*
Y487000D02*
D03*
X490000Y474000D02*
D03*
Y484000D02*
D03*
X500000Y474000D02*
D03*
Y484000D02*
D03*
X510000Y474000D02*
D03*
Y484000D02*
D03*
X517000Y663000D02*
D03*
X517000Y673000D02*
D03*
X497000Y710000D02*
D03*
X497000Y700000D02*
D03*
X387000Y758000D02*
D03*
X387000Y748000D02*
D03*
X892000Y304000D02*
D03*
X892000Y314000D02*
D03*
X406500Y635000D02*
D03*
X406500Y645000D02*
D03*
X386500D02*
D03*
Y635000D02*
D03*
X396500Y645000D02*
D03*
Y635000D02*
D03*
X376500Y645000D02*
D03*
Y635000D02*
D03*
X366500Y645000D02*
D03*
Y635000D02*
D03*
X447000Y710000D02*
D03*
X447000Y700000D02*
D03*
X457000Y730000D02*
D03*
Y720000D02*
D03*
X457000Y700000D02*
D03*
X457000Y710000D02*
D03*
X467000Y730000D02*
D03*
Y720000D02*
D03*
X507000Y710000D02*
D03*
X507000Y700000D02*
D03*
X467000Y710000D02*
D03*
X467000Y700000D02*
D03*
X477000Y700000D02*
D03*
X477000Y710000D02*
D03*
X517000Y700000D02*
D03*
X517000Y710000D02*
D03*
X487000D02*
D03*
X487000Y700000D02*
D03*
X477000Y730000D02*
D03*
Y720000D02*
D03*
X487000Y730000D02*
D03*
Y720000D02*
D03*
X497000Y730000D02*
D03*
Y720000D02*
D03*
X507000Y730000D02*
D03*
Y720000D02*
D03*
X517000Y730000D02*
D03*
Y720000D02*
D03*
X413000Y844000D02*
D03*
Y834000D02*
D03*
X423000Y844000D02*
D03*
Y834000D02*
D03*
X331000Y824000D02*
D03*
X331000Y834000D02*
D03*
X341000D02*
D03*
Y824000D02*
D03*
X617000Y814000D02*
D03*
Y824000D02*
D03*
X553000Y769000D02*
D03*
Y779000D02*
D03*
X619000D02*
D03*
Y789000D02*
D03*
X591000Y758000D02*
D03*
X591000Y748000D02*
D03*
X601000Y758000D02*
D03*
X601000Y748000D02*
D03*
X617000Y834000D02*
D03*
Y844000D02*
D03*
X627000Y834000D02*
D03*
Y844000D02*
D03*
X553000Y799000D02*
D03*
Y789000D02*
D03*
X535000Y834000D02*
D03*
X535000Y824000D02*
D03*
X545000D02*
D03*
Y834000D02*
D03*
X820000Y814000D02*
D03*
Y824000D02*
D03*
X756000Y769000D02*
D03*
Y779000D02*
D03*
X822000D02*
D03*
Y789000D02*
D03*
X794000Y758000D02*
D03*
X794000Y748000D02*
D03*
X804000Y758000D02*
D03*
X804000Y748000D02*
D03*
X820000Y834000D02*
D03*
Y844000D02*
D03*
X830000Y834000D02*
D03*
Y844000D02*
D03*
X756000Y799000D02*
D03*
Y789000D02*
D03*
X748000Y834000D02*
D03*
X748000Y824000D02*
D03*
X738000D02*
D03*
Y834000D02*
D03*
X212000Y702000D02*
D03*
X212000Y712000D02*
D03*
X222000D02*
D03*
Y702000D02*
D03*
X413000Y814000D02*
D03*
Y824000D02*
D03*
X349000Y769000D02*
D03*
Y779000D02*
D03*
X415000D02*
D03*
Y789000D02*
D03*
X397000Y758000D02*
D03*
X397000Y748000D02*
D03*
X349000Y799000D02*
D03*
Y789000D02*
D03*
X361000Y720000D02*
D03*
X361000Y710000D02*
D03*
X515000Y637000D02*
D03*
X515000Y647000D02*
D03*
X466000Y613000D02*
D03*
Y623000D02*
D03*
X476000D02*
D03*
Y613000D02*
D03*
X486000Y623000D02*
D03*
Y613000D02*
D03*
X496000D02*
D03*
Y623000D02*
D03*
X446000D02*
D03*
Y613000D02*
D03*
X506000D02*
D03*
Y623000D02*
D03*
X525000Y643000D02*
D03*
X525000Y653000D02*
D03*
X138000Y824000D02*
D03*
Y834000D02*
D03*
X128000Y824000D02*
D03*
X128000Y834000D02*
D03*
X220000Y844000D02*
D03*
Y834000D02*
D03*
X212000Y782000D02*
D03*
Y792000D02*
D03*
X164000Y702000D02*
D03*
Y712000D02*
D03*
X506000Y813000D02*
D03*
X506000Y803000D02*
D03*
X210000Y834000D02*
D03*
Y844000D02*
D03*
Y814000D02*
D03*
Y824000D02*
D03*
X146000Y799000D02*
D03*
Y789000D02*
D03*
Y769000D02*
D03*
Y779000D02*
D03*
X184000Y748000D02*
D03*
X184000Y758000D02*
D03*
X194000Y748000D02*
D03*
X194000Y758000D02*
D03*
D24*
X602000Y308000D02*
D03*
Y303000D02*
D03*
Y298000D02*
D03*
Y293000D02*
D03*
Y288000D02*
D03*
Y283000D02*
D03*
Y278000D02*
D03*
Y273000D02*
D03*
Y268000D02*
D03*
Y263000D02*
D03*
Y258000D02*
D03*
Y253000D02*
D03*
Y248000D02*
D03*
Y243000D02*
D03*
Y238000D02*
D03*
Y233000D02*
D03*
X713000D02*
D03*
Y238000D02*
D03*
Y243000D02*
D03*
Y248000D02*
D03*
Y253000D02*
D03*
Y258000D02*
D03*
Y263000D02*
D03*
Y268000D02*
D03*
Y273000D02*
D03*
Y278000D02*
D03*
Y283000D02*
D03*
Y288000D02*
D03*
Y293000D02*
D03*
Y298000D02*
D03*
Y303000D02*
D03*
Y308000D02*
D03*
D25*
X620000Y215000D02*
D03*
X625000D02*
D03*
X630000D02*
D03*
X635000D02*
D03*
X640000D02*
D03*
X645000D02*
D03*
X650000D02*
D03*
X655000D02*
D03*
X660000D02*
D03*
X665000D02*
D03*
X670000D02*
D03*
X675000D02*
D03*
X680000D02*
D03*
X685000D02*
D03*
X690000D02*
D03*
X695000D02*
D03*
Y326000D02*
D03*
X690000D02*
D03*
X685000D02*
D03*
X680000D02*
D03*
X675000D02*
D03*
X670000D02*
D03*
X665000D02*
D03*
X660000D02*
D03*
X655000D02*
D03*
X650000D02*
D03*
X645000D02*
D03*
X640000D02*
D03*
X635000D02*
D03*
X630000D02*
D03*
X625000D02*
D03*
X620000D02*
D03*
D26*
X50000Y307000D02*
D03*
X54000Y318000D02*
D03*
X50000Y329000D02*
D03*
X48000Y340000D02*
D03*
X50000Y351000D02*
D03*
X48000Y362000D02*
D03*
X50000Y373000D02*
D03*
Y384000D02*
D03*
D27*
X158600Y375900D02*
D03*
Y318900D02*
D03*
D28*
X160850Y362000D02*
D03*
D29*
X27100Y391900D02*
D03*
X17100Y260400D02*
D03*
D30*
X864000Y214000D02*
D03*
X874000D02*
D03*
X867000Y182000D02*
D03*
X877000D02*
D03*
X436000Y573000D02*
D03*
X426000D02*
D03*
X330000Y547000D02*
D03*
X340000Y547000D02*
D03*
X330000Y481000D02*
D03*
X340000Y481000D02*
D03*
X330000Y613000D02*
D03*
X340000Y613000D02*
D03*
X923000Y328500D02*
D03*
X913000Y328500D02*
D03*
X711571Y121971D02*
D03*
X721571D02*
D03*
X677571Y121971D02*
D03*
X687571D02*
D03*
X745571Y121971D02*
D03*
X755571D02*
D03*
X513000Y398000D02*
D03*
X523000D02*
D03*
X470000Y450000D02*
D03*
X460000Y450000D02*
D03*
X420000Y514000D02*
D03*
X430000D02*
D03*
X506000Y603000D02*
D03*
X516000D02*
D03*
X496000D02*
D03*
X486000D02*
D03*
X466000D02*
D03*
X476000D02*
D03*
X456000D02*
D03*
X446000D02*
D03*
X436000Y583000D02*
D03*
X446000D02*
D03*
X420000Y524000D02*
D03*
X430000D02*
D03*
X420000Y540000D02*
D03*
X430000D02*
D03*
X203000Y641000D02*
D03*
X193000Y641000D02*
D03*
X950000Y320000D02*
D03*
X940000D02*
D03*
X950000Y310000D02*
D03*
X940000D02*
D03*
X950000Y300000D02*
D03*
X940000D02*
D03*
X250000Y602000D02*
D03*
X240000D02*
D03*
X250000Y614000D02*
D03*
X240000D02*
D03*
X146000Y627000D02*
D03*
X156000D02*
D03*
X146000Y602000D02*
D03*
X156000D02*
D03*
X447000Y690000D02*
D03*
X457000Y690000D02*
D03*
X467000Y690000D02*
D03*
X477000Y690000D02*
D03*
X359000Y769000D02*
D03*
X369000Y769000D02*
D03*
X507000Y690000D02*
D03*
X517000Y690000D02*
D03*
X487000Y690000D02*
D03*
X497000Y690000D02*
D03*
X381000Y852000D02*
D03*
X371000D02*
D03*
X331000Y844000D02*
D03*
X341000D02*
D03*
X573000Y769000D02*
D03*
X563000Y769000D02*
D03*
X543000Y779000D02*
D03*
X533000Y779000D02*
D03*
X563000D02*
D03*
X573000D02*
D03*
X543000Y769000D02*
D03*
X533000D02*
D03*
X573000Y789000D02*
D03*
X563000D02*
D03*
X543000Y799000D02*
D03*
X533000D02*
D03*
X573000Y799000D02*
D03*
X563000Y799000D02*
D03*
X533000Y789000D02*
D03*
X543000Y789000D02*
D03*
X545000Y844000D02*
D03*
X535000D02*
D03*
X575000Y852000D02*
D03*
X585000D02*
D03*
X607000Y852000D02*
D03*
X597000Y852000D02*
D03*
X555000D02*
D03*
X565000D02*
D03*
X776000Y769000D02*
D03*
X766000Y769000D02*
D03*
X746000Y779000D02*
D03*
X736000Y779000D02*
D03*
X766000Y779000D02*
D03*
X776000D02*
D03*
X746000Y769000D02*
D03*
X736000D02*
D03*
X776000Y789000D02*
D03*
X766000D02*
D03*
X746000Y799000D02*
D03*
X736000D02*
D03*
X776000Y799000D02*
D03*
X766000Y799000D02*
D03*
X736000Y789000D02*
D03*
X746000Y789000D02*
D03*
X748000Y844000D02*
D03*
X738000D02*
D03*
X778000Y852000D02*
D03*
X788000D02*
D03*
X810000D02*
D03*
X800000Y852000D02*
D03*
X758000Y852000D02*
D03*
X768000D02*
D03*
X339000Y779000D02*
D03*
X329000Y779000D02*
D03*
X359000D02*
D03*
X369000D02*
D03*
X339000Y769000D02*
D03*
X329000D02*
D03*
X369000Y789000D02*
D03*
X359000D02*
D03*
X339000Y799000D02*
D03*
X329000D02*
D03*
X369000D02*
D03*
X359000Y799000D02*
D03*
X329000Y789000D02*
D03*
X339000Y789000D02*
D03*
X403000Y852000D02*
D03*
X393000Y852000D02*
D03*
X351000Y852000D02*
D03*
X361000D02*
D03*
X382000Y710000D02*
D03*
X392000Y710000D02*
D03*
X138000Y844000D02*
D03*
X128000D02*
D03*
X200000Y852000D02*
D03*
X190000Y852000D02*
D03*
X166000Y779000D02*
D03*
X156000D02*
D03*
X148000Y852000D02*
D03*
X158000D02*
D03*
X168000D02*
D03*
X178000D02*
D03*
X174000Y690000D02*
D03*
X164000D02*
D03*
X193000Y734000D02*
D03*
X183000Y734000D02*
D03*
X156000Y799000D02*
D03*
X166000Y799000D02*
D03*
Y789000D02*
D03*
X156000D02*
D03*
X136000Y799000D02*
D03*
X126000D02*
D03*
X136000Y789000D02*
D03*
X126000Y789000D02*
D03*
Y779000D02*
D03*
X136000Y779000D02*
D03*
Y769000D02*
D03*
X126000D02*
D03*
X156000D02*
D03*
X166000Y769000D02*
D03*
D31*
X888500Y164300D02*
D03*
Y172300D02*
D03*
Y185300D02*
D03*
Y195300D02*
D03*
Y200300D02*
D03*
Y210300D02*
D03*
Y223300D02*
D03*
Y231300D02*
D03*
Y228300D02*
D03*
Y220300D02*
D03*
Y215300D02*
D03*
Y205300D02*
D03*
Y190300D02*
D03*
Y180300D02*
D03*
Y175300D02*
D03*
Y167300D02*
D03*
D32*
X629000Y607000D02*
D03*
X760000D02*
D03*
D33*
X302750Y533050D02*
D03*
Y520350D02*
D03*
Y507650D02*
D03*
Y494950D02*
D03*
X367250Y533050D02*
D03*
Y520350D02*
D03*
Y507650D02*
D03*
Y494950D02*
D03*
X302750Y467050D02*
D03*
Y454350D02*
D03*
Y441650D02*
D03*
Y428950D02*
D03*
X367250Y467050D02*
D03*
Y454350D02*
D03*
Y441650D02*
D03*
Y428950D02*
D03*
X302750Y599050D02*
D03*
Y586350D02*
D03*
Y573650D02*
D03*
Y560950D02*
D03*
X367250Y599050D02*
D03*
Y586350D02*
D03*
Y573650D02*
D03*
Y560950D02*
D03*
X498250Y397950D02*
D03*
Y410650D02*
D03*
Y423350D02*
D03*
Y436050D02*
D03*
X433750Y397950D02*
D03*
Y410650D02*
D03*
Y423350D02*
D03*
Y436050D02*
D03*
X300250Y676950D02*
D03*
Y689650D02*
D03*
Y702350D02*
D03*
Y715050D02*
D03*
X245750Y676950D02*
D03*
Y689650D02*
D03*
Y702350D02*
D03*
Y715050D02*
D03*
X170750Y627050D02*
D03*
Y614350D02*
D03*
Y601650D02*
D03*
Y588950D02*
D03*
X225250Y627050D02*
D03*
Y614350D02*
D03*
Y601650D02*
D03*
Y588950D02*
D03*
D34*
X482000Y537000D02*
D03*
D35*
X516000Y564500D02*
D03*
Y559500D02*
D03*
Y554500D02*
D03*
Y549500D02*
D03*
Y544500D02*
D03*
Y539500D02*
D03*
Y534500D02*
D03*
Y529500D02*
D03*
Y524500D02*
D03*
Y519500D02*
D03*
Y514500D02*
D03*
Y509500D02*
D03*
X448000D02*
D03*
Y514500D02*
D03*
Y519500D02*
D03*
Y524500D02*
D03*
Y529500D02*
D03*
Y534500D02*
D03*
Y539500D02*
D03*
Y544500D02*
D03*
Y549500D02*
D03*
Y554500D02*
D03*
Y559500D02*
D03*
Y564500D02*
D03*
D36*
X509500Y503000D02*
D03*
X504500D02*
D03*
X499500D02*
D03*
X494500D02*
D03*
X489500D02*
D03*
X484500D02*
D03*
X479500D02*
D03*
X474500D02*
D03*
X469500D02*
D03*
X464500D02*
D03*
X459500D02*
D03*
X454500D02*
D03*
Y571000D02*
D03*
X459500D02*
D03*
X464500D02*
D03*
X469500D02*
D03*
X474500D02*
D03*
X479500D02*
D03*
X484500D02*
D03*
X489500D02*
D03*
X494500D02*
D03*
X499500D02*
D03*
X504500D02*
D03*
X509500D02*
D03*
D37*
X152000Y838750D02*
D03*
Y832250D02*
D03*
Y825750D02*
D03*
Y819250D02*
D03*
X196000Y838750D02*
D03*
Y832250D02*
D03*
Y825750D02*
D03*
Y819250D02*
D03*
X409000Y677250D02*
D03*
Y683750D02*
D03*
Y690250D02*
D03*
Y696750D02*
D03*
X365000Y677250D02*
D03*
Y683750D02*
D03*
Y690250D02*
D03*
Y696750D02*
D03*
X603000Y819250D02*
D03*
Y825750D02*
D03*
Y832250D02*
D03*
Y838750D02*
D03*
X559000Y819250D02*
D03*
Y825750D02*
D03*
Y832250D02*
D03*
Y838750D02*
D03*
X806000Y819250D02*
D03*
Y825750D02*
D03*
Y832250D02*
D03*
Y838750D02*
D03*
X762000Y819250D02*
D03*
Y825750D02*
D03*
Y832250D02*
D03*
Y838750D02*
D03*
X399000Y819250D02*
D03*
Y825750D02*
D03*
Y832250D02*
D03*
Y838750D02*
D03*
X355000Y819250D02*
D03*
Y825750D02*
D03*
Y832250D02*
D03*
Y838750D02*
D03*
D38*
X929000Y303500D02*
D03*
X907000D02*
D03*
Y310500D02*
D03*
Y317500D02*
D03*
X929000D02*
D03*
Y310500D02*
D03*
D39*
X753071Y157471D02*
D03*
X734071D02*
D03*
X743571Y134471D02*
D03*
X685071Y157471D02*
D03*
X666071D02*
D03*
X675571Y134471D02*
D03*
X719071Y157471D02*
D03*
X700071D02*
D03*
X709571Y134471D02*
D03*
D40*
X794071Y132971D02*
D03*
X779571D02*
D03*
X794071Y160971D02*
D03*
X779571D02*
D03*
D41*
X906000Y344000D02*
D03*
X930000D02*
D03*
Y354000D02*
D03*
Y364000D02*
D03*
X906000D02*
D03*
X906000Y379000D02*
D03*
X930000D02*
D03*
Y389000D02*
D03*
Y399000D02*
D03*
X906000D02*
D03*
X200000Y722000D02*
D03*
X176000D02*
D03*
Y712000D02*
D03*
Y702000D02*
D03*
X200000D02*
D03*
D42*
X943400Y507000D02*
D03*
X930700D02*
D03*
X905300D02*
D03*
X892600D02*
D03*
X891600Y692000D02*
D03*
X904300D02*
D03*
X929700D02*
D03*
X942400D02*
D03*
D43*
X918000Y443000D02*
D03*
X917000Y756000D02*
D03*
D44*
X896000Y532000D02*
D03*
X912000D02*
D03*
X940000D02*
D03*
X924000D02*
D03*
X939000Y667000D02*
D03*
X923000D02*
D03*
X895000D02*
D03*
X911000D02*
D03*
D45*
X892000Y346000D02*
D03*
Y362000D02*
D03*
X944000Y346000D02*
D03*
Y362000D02*
D03*
X892000Y380000D02*
D03*
Y396000D02*
D03*
X944000Y381000D02*
D03*
Y397000D02*
D03*
D46*
X608000Y494000D02*
D03*
Y520000D02*
D03*
X584000D02*
D03*
Y494000D02*
D03*
D47*
X473000Y785500D02*
D03*
X478000D02*
D03*
X483000D02*
D03*
X488000D02*
D03*
X493000D02*
D03*
X473000Y830500D02*
D03*
X478000D02*
D03*
X483000D02*
D03*
X488000D02*
D03*
X493000D02*
D03*
D48*
X483000Y655000D02*
D03*
D49*
X495500Y635500D02*
D03*
X490500D02*
D03*
X485500D02*
D03*
X480500D02*
D03*
X475500D02*
D03*
X470500D02*
D03*
Y674500D02*
D03*
X475500D02*
D03*
X480500D02*
D03*
X485500D02*
D03*
X490500D02*
D03*
X495500D02*
D03*
D50*
X463500Y642500D02*
D03*
Y647500D02*
D03*
Y652500D02*
D03*
Y657500D02*
D03*
Y662500D02*
D03*
Y667500D02*
D03*
X502500D02*
D03*
Y662500D02*
D03*
Y657500D02*
D03*
Y652500D02*
D03*
Y647500D02*
D03*
Y642500D02*
D03*
D51*
X603500Y770000D02*
D03*
X598500D02*
D03*
X593500D02*
D03*
X588500D02*
D03*
X603500Y798000D02*
D03*
X598500D02*
D03*
X593500D02*
D03*
X588500D02*
D03*
X791500D02*
D03*
X796500D02*
D03*
X801500D02*
D03*
X806500D02*
D03*
X791500Y770000D02*
D03*
X796500D02*
D03*
X801500D02*
D03*
X806500D02*
D03*
X384500Y798000D02*
D03*
X389500D02*
D03*
X394500D02*
D03*
X399500D02*
D03*
X384500Y770000D02*
D03*
X389500D02*
D03*
X394500D02*
D03*
X399500D02*
D03*
X196500D02*
D03*
X191500D02*
D03*
X186500D02*
D03*
X181500D02*
D03*
X196500Y798000D02*
D03*
X191500D02*
D03*
X186500D02*
D03*
X181500D02*
D03*
D52*
X596000Y784000D02*
D03*
X799000D02*
D03*
X392000D02*
D03*
X189000D02*
D03*
D57*
X128750Y487000D02*
D03*
X121250D02*
D03*
X128750Y473000D02*
D03*
X121250D02*
D03*
X128750Y515000D02*
D03*
X121250D02*
D03*
X128750Y501000D02*
D03*
X121250D02*
D03*
X128750Y571000D02*
D03*
X121250D02*
D03*
X128750Y543000D02*
D03*
X121250D02*
D03*
X128750Y557000D02*
D03*
X121250D02*
D03*
X128750Y529000D02*
D03*
X121250D02*
D03*
D104*
X598000Y607000D02*
D03*
X660000D02*
D03*
X791000D02*
D03*
X729000D02*
D03*
D105*
X657701Y409002D02*
D03*
X670401Y421702D02*
D03*
X657701D02*
D03*
X670401Y409002D02*
D03*
X619601Y421702D02*
D03*
X645001D02*
D03*
X632301D02*
D03*
X619601Y409002D02*
D03*
X645001D02*
D03*
X632301D02*
D03*
X606899D02*
D03*
Y421702D02*
D03*
X683101D02*
D03*
Y409002D02*
D03*
X804500Y38700D02*
D03*
X714500D02*
D03*
X556352Y491001D02*
D03*
X543652D02*
D03*
D106*
X877400Y644000D02*
D03*
Y554000D02*
D03*
X211000Y111800D02*
D03*
X121000D02*
D03*
X340000D02*
D03*
X250000D02*
D03*
D107*
X897000Y584000D02*
D03*
X744500Y78200D02*
D03*
D108*
X897000Y614000D02*
D03*
X744500Y48200D02*
D03*
X774500Y78200D02*
D03*
Y48200D02*
D03*
D109*
X557000Y62000D02*
D03*
X517000D02*
D03*
X537000D02*
D03*
X477000D02*
D03*
X437000D02*
D03*
X457000D02*
D03*
X517000Y82000D02*
D03*
X537000D02*
D03*
X477000D02*
D03*
X437000D02*
D03*
X457000D02*
D03*
X497000Y62000D02*
D03*
Y82000D02*
D03*
D110*
X557000D02*
D03*
D111*
X151000Y92200D02*
D03*
X280000D02*
D03*
D112*
X181000D02*
D03*
X310000D02*
D03*
D113*
X145000Y501000D02*
D03*
Y473000D02*
D03*
X108000Y538333D02*
D03*
Y549222D02*
D03*
X145000Y487000D02*
D03*
X169500Y493500D02*
D03*
X145000Y543000D02*
D03*
Y557000D02*
D03*
Y529000D02*
D03*
Y515000D02*
D03*
Y571000D02*
D03*
X108000Y560111D02*
D03*
Y527444D02*
D03*
Y516555D02*
D03*
Y505667D02*
D03*
Y494778D02*
D03*
Y571000D02*
D03*
X218000Y478000D02*
D03*
X108000Y473000D02*
D03*
Y483889D02*
D03*
X844942Y296389D02*
D03*
D114*
X59700Y572800D02*
D03*
Y522000D02*
D03*
Y547400D02*
D03*
Y471200D02*
D03*
X34300Y522000D02*
D03*
Y547400D02*
D03*
Y471200D02*
D03*
X59700Y496600D02*
D03*
X34300D02*
D03*
D115*
Y572800D02*
D03*
D116*
X743700Y513000D02*
D03*
X718300D02*
D03*
X178600Y452700D02*
D03*
X204000Y452700D02*
D03*
X229400Y452700D02*
D03*
Y427300D02*
D03*
X204000Y427300D02*
D03*
X178600Y427300D02*
D03*
D117*
X940000Y254000D02*
D03*
Y141600D02*
D03*
D118*
X900000Y254000D02*
D03*
Y141600D02*
D03*
D119*
X844942Y397389D02*
D03*
X845942Y343389D02*
D03*
X844942Y504389D02*
D03*
X845942Y450389D02*
D03*
D120*
X124800Y892000D02*
D03*
X937600D02*
D03*
X886800D02*
D03*
X836000D02*
D03*
X785200D02*
D03*
X734400D02*
D03*
X632800D02*
D03*
X683600D02*
D03*
X582000D02*
D03*
X531200D02*
D03*
X277200D02*
D03*
X74000Y892000D02*
D03*
X23200Y892000D02*
D03*
X226400D02*
D03*
X175600D02*
D03*
X429600D02*
D03*
X480400D02*
D03*
X378800D02*
D03*
X328000D02*
D03*
D121*
X833000Y202000D02*
D03*
Y208000D02*
D03*
X791000Y237000D02*
D03*
X819000Y224000D02*
D03*
X809001Y224000D02*
D03*
X158000Y521000D02*
D03*
X203000Y576000D02*
D03*
X153000Y451000D02*
D03*
X267000Y478000D02*
D03*
X180000Y575000D02*
D03*
X153000Y614000D02*
D03*
X145999Y602000D02*
D03*
X146000Y627000D02*
D03*
X642000Y505000D02*
D03*
X663000Y530000D02*
D03*
X545798Y524798D02*
D03*
X728000Y210000D02*
D03*
X713000Y185000D02*
D03*
X698000Y231000D02*
D03*
X680000Y190000D02*
D03*
X620000Y181000D02*
D03*
X658000Y187000D02*
D03*
X587000Y175000D02*
D03*
X487000Y269000D02*
D03*
X477000Y270000D02*
D03*
X476000Y284000D02*
D03*
X512000Y306000D02*
D03*
X542000Y100000D02*
D03*
X534000Y130000D02*
D03*
X514000Y257000D02*
D03*
X512000Y294000D02*
D03*
X430000Y345000D02*
D03*
X688964Y187036D02*
D03*
X620000Y195000D02*
D03*
X650000Y230000D02*
D03*
X656000Y236000D02*
D03*
X640000Y200000D02*
D03*
X738000Y277000D02*
D03*
X741000Y304000D02*
D03*
X774000Y281000D02*
D03*
X734000Y319000D02*
D03*
X719000Y350000D02*
D03*
X715000Y356000D02*
D03*
X767000Y286000D02*
D03*
X728000Y396000D02*
D03*
X735000Y390000D02*
D03*
X712000Y317000D02*
D03*
X705000Y325000D02*
D03*
X682036Y299965D02*
D03*
X675000Y300000D02*
D03*
X689000Y364000D02*
D03*
X644000Y258000D02*
D03*
X654000Y268000D02*
D03*
X644000Y268000D02*
D03*
X623000Y231000D02*
D03*
X562000Y256000D02*
D03*
X579000Y267000D02*
D03*
Y279000D02*
D03*
X571000Y249000D02*
D03*
X581000Y248000D02*
D03*
X694000Y243000D02*
D03*
X565000Y377000D02*
D03*
X555000D02*
D03*
X560793Y429063D02*
D03*
X595000Y385072D02*
D03*
X619000Y391000D02*
D03*
X587000Y378000D02*
D03*
X531875Y266625D02*
D03*
X523188Y320000D02*
D03*
X570000Y326000D02*
D03*
X575000Y332674D02*
D03*
X560000Y439000D02*
D03*
X409857Y496000D02*
D03*
X548000Y335000D02*
D03*
X381000Y410000D02*
D03*
X583000Y314000D02*
D03*
X620000Y286000D02*
D03*
X595000Y396000D02*
D03*
X638000Y472000D02*
D03*
X632965Y485036D02*
D03*
X527000Y753000D02*
D03*
X697000Y309000D02*
D03*
X682000Y391000D02*
D03*
X738000Y297000D02*
D03*
X690000Y258000D02*
D03*
X660000Y344000D02*
D03*
X666464Y355000D02*
D03*
X150999Y362001D02*
D03*
X36000Y346000D02*
D03*
Y356000D02*
D03*
X36999Y373000D02*
D03*
X36999Y307001D02*
D03*
X37000Y329000D02*
D03*
X40999Y318001D02*
D03*
X46999Y373000D02*
D03*
X46999Y329001D02*
D03*
Y384001D02*
D03*
X47000Y307000D02*
D03*
X50000Y351000D02*
D03*
X51000Y318000D02*
D03*
X161000Y362000D02*
D03*
X743000Y248000D02*
D03*
X864000Y214000D02*
D03*
X866999Y182000D02*
D03*
X737000Y268000D02*
D03*
X855000Y220000D02*
D03*
Y185000D02*
D03*
X873000Y195300D02*
D03*
Y205300D02*
D03*
X865000Y190300D02*
D03*
Y200300D02*
D03*
X629001Y607001D02*
D03*
X760001D02*
D03*
X760000Y550000D02*
D03*
X690000Y532000D02*
D03*
X533000Y550000D02*
D03*
X561000Y569000D02*
D03*
X559000Y562000D02*
D03*
X609999Y582000D02*
D03*
X552000Y586000D02*
D03*
X557000Y544000D02*
D03*
X553000Y529000D02*
D03*
X560000Y464000D02*
D03*
X554034Y479035D02*
D03*
X779571Y160971D02*
D03*
X655000Y376000D02*
D03*
X730000Y263000D02*
D03*
X675000Y356000D02*
D03*
X550000Y463000D02*
D03*
X508929Y458000D02*
D03*
X680000Y346000D02*
D03*
X685000Y340500D02*
D03*
X521875Y304625D02*
D03*
X814000Y438000D02*
D03*
X891625Y380000D02*
D03*
X891250Y346000D02*
D03*
X814000Y403000D02*
D03*
X896000Y532000D02*
D03*
X905300Y507000D02*
D03*
X619000Y309830D02*
D03*
X439965Y449965D02*
D03*
X382000Y518000D02*
D03*
X428000Y551000D02*
D03*
X420000Y514000D02*
D03*
X408000Y587828D02*
D03*
X400000Y546000D02*
D03*
X533000Y759000D02*
D03*
X478000Y770000D02*
D03*
X486000Y613001D02*
D03*
X475998Y613001D02*
D03*
X486001Y603000D02*
D03*
X552000Y596000D02*
D03*
X485750Y623250D02*
D03*
X430000Y632000D02*
D03*
Y640000D02*
D03*
Y648000D02*
D03*
X230000Y674000D02*
D03*
X366571Y645072D02*
D03*
X368036Y636536D02*
D03*
X526000Y545000D02*
D03*
X434000Y555000D02*
D03*
X419999Y524000D02*
D03*
X382000Y584000D02*
D03*
X288000Y603000D02*
D03*
X260000Y440286D02*
D03*
X270000Y555000D02*
D03*
X654000Y258000D02*
D03*
X629000Y300000D02*
D03*
X619000D02*
D03*
X688000Y231000D02*
D03*
X633000Y231000D02*
D03*
X697000Y299000D02*
D03*
X629000Y310000D02*
D03*
X653000Y297000D02*
D03*
X643000Y296999D02*
D03*
Y307000D02*
D03*
X522000Y279250D02*
D03*
X531750Y292000D02*
D03*
X548000Y279000D02*
D03*
X551000Y293000D02*
D03*
Y321000D02*
D03*
X721570Y121971D02*
D03*
X794071Y160971D02*
D03*
Y132971D02*
D03*
X779571D02*
D03*
X734071Y157471D02*
D03*
X700071Y157471D02*
D03*
X666071D02*
D03*
X755570Y121971D02*
D03*
X687571Y121971D02*
D03*
X245750Y676950D02*
D03*
Y702350D02*
D03*
X739999Y560000D02*
D03*
X791000Y607000D02*
D03*
X729000D02*
D03*
X660001Y607001D02*
D03*
X598000Y607000D02*
D03*
X489823Y579177D02*
D03*
X608000Y520000D02*
D03*
X626000Y505000D02*
D03*
X525000Y643000D02*
D03*
X525000Y653000D02*
D03*
X517000Y663000D02*
D03*
Y673000D02*
D03*
X515000Y637000D02*
D03*
X515000Y647000D02*
D03*
X522999Y398000D02*
D03*
X513025Y397975D02*
D03*
X512975Y421000D02*
D03*
X382000Y419000D02*
D03*
X288036Y470965D02*
D03*
X290000Y480000D02*
D03*
X302750Y573650D02*
D03*
X433750Y436050D02*
D03*
X302750Y467050D02*
D03*
X302750Y533050D02*
D03*
X302750Y599050D02*
D03*
X381964Y485036D02*
D03*
X302750Y441650D02*
D03*
X367250Y454350D02*
D03*
X382000Y551001D02*
D03*
X276000Y590000D02*
D03*
X376499Y635001D02*
D03*
X170750Y627050D02*
D03*
X419001Y410000D02*
D03*
X425000Y454000D02*
D03*
X416000D02*
D03*
X367250Y520350D02*
D03*
X419000Y440000D02*
D03*
X475998Y623002D02*
D03*
X468000Y476999D02*
D03*
X458000Y477000D02*
D03*
X438000D02*
D03*
X448000D02*
D03*
X498250Y423350D02*
D03*
X512825Y410825D02*
D03*
X381825Y441825D02*
D03*
X381913Y507913D02*
D03*
X381912Y573913D02*
D03*
X340000Y547000D02*
D03*
X288001Y537000D02*
D03*
X302750Y507650D02*
D03*
X330000Y547000D02*
D03*
X340000Y481000D02*
D03*
X382000Y452000D02*
D03*
X330000Y481000D02*
D03*
X367250Y586350D02*
D03*
X340000Y613000D02*
D03*
X330000Y613000D02*
D03*
X386500Y635000D02*
D03*
X406500D02*
D03*
X376500Y645001D02*
D03*
X386499Y645001D02*
D03*
X396499D02*
D03*
X406500Y645000D02*
D03*
X193000Y641000D02*
D03*
X203000D02*
D03*
X250000Y602000D02*
D03*
Y614000D02*
D03*
X495000Y495000D02*
D03*
X480001Y475001D02*
D03*
X480000Y495000D02*
D03*
X460000Y515000D02*
D03*
Y526000D02*
D03*
Y537000D02*
D03*
Y548000D02*
D03*
Y559000D02*
D03*
X471000Y515000D02*
D03*
Y526000D02*
D03*
Y537000D02*
D03*
Y548000D02*
D03*
Y559000D02*
D03*
X482000Y515000D02*
D03*
Y526000D02*
D03*
Y537000D02*
D03*
Y548000D02*
D03*
Y559000D02*
D03*
X493000Y515000D02*
D03*
Y526000D02*
D03*
Y537000D02*
D03*
Y548000D02*
D03*
Y559000D02*
D03*
X504000Y515000D02*
D03*
Y526000D02*
D03*
Y537000D02*
D03*
Y548000D02*
D03*
Y559000D02*
D03*
X479500Y582000D02*
D03*
X799000Y806250D02*
D03*
X814000Y760000D02*
D03*
X506000Y786000D02*
D03*
X483000Y851000D02*
D03*
X488000Y845000D02*
D03*
X478000D02*
D03*
X393929Y806000D02*
D03*
X440000Y520000D02*
D03*
X516000Y603000D02*
D03*
X446000Y613000D02*
D03*
X446000Y603000D02*
D03*
X475999D02*
D03*
X479000Y590000D02*
D03*
X433750Y410650D02*
D03*
X460000Y450000D02*
D03*
X470000Y450000D02*
D03*
X512000Y579000D02*
D03*
X440000Y509000D02*
D03*
X939000Y667000D02*
D03*
X935000Y738000D02*
D03*
X899000Y738000D02*
D03*
X917000Y738000D02*
D03*
X935000Y774000D02*
D03*
X899000Y774000D02*
D03*
X917000Y774000D02*
D03*
X935000Y756000D02*
D03*
X899000Y756000D02*
D03*
X917000Y756000D02*
D03*
X911000Y667000D02*
D03*
X923000D02*
D03*
X351000Y720001D02*
D03*
X517000Y710000D02*
D03*
X507000Y710000D02*
D03*
X497000Y710000D02*
D03*
X487000Y710000D02*
D03*
X477000D02*
D03*
X497000Y700000D02*
D03*
X457000Y710000D02*
D03*
X447000Y710000D02*
D03*
X212000Y712000D02*
D03*
X349000Y746000D02*
D03*
X387000Y748000D02*
D03*
X387000Y758000D02*
D03*
X329000Y769000D02*
D03*
X184000Y758000D02*
D03*
X591000D02*
D03*
X612000Y760000D02*
D03*
X794000Y758000D02*
D03*
X736001Y769000D02*
D03*
X533001D02*
D03*
X422000Y691000D02*
D03*
X423000Y674000D02*
D03*
X423000Y664000D02*
D03*
X361000Y720000D02*
D03*
X341000Y710000D02*
D03*
X382000Y710000D02*
D03*
X392000Y710000D02*
D03*
X405000Y760000D02*
D03*
X174000Y690000D02*
D03*
X559000Y819250D02*
D03*
X738000Y823999D02*
D03*
X506000Y813000D02*
D03*
X506000Y803000D02*
D03*
X379000Y825000D02*
D03*
X138000Y824000D02*
D03*
X183000Y734000D02*
D03*
X193000D02*
D03*
X483000Y655000D02*
D03*
X467000Y710000D02*
D03*
X517000Y700000D02*
D03*
X507000Y700000D02*
D03*
X487000D02*
D03*
X477000Y700000D02*
D03*
X467000Y700000D02*
D03*
X457000D02*
D03*
X447000Y700000D02*
D03*
X517002Y719998D02*
D03*
X507000Y720000D02*
D03*
X497000D02*
D03*
X487000D02*
D03*
X477002Y719998D02*
D03*
X467002D02*
D03*
X457002D02*
D03*
X447000Y719999D02*
D03*
X359000Y769000D02*
D03*
X596000Y806250D02*
D03*
X804000Y758000D02*
D03*
X601000D02*
D03*
X194000D02*
D03*
X397000D02*
D03*
X738001Y844000D02*
D03*
X736000Y789000D02*
D03*
X766000Y769000D02*
D03*
X794000Y748000D02*
D03*
X822000Y779000D02*
D03*
Y788999D02*
D03*
X820000Y844000D02*
D03*
X810000Y852000D02*
D03*
X800000D02*
D03*
X757999Y852000D02*
D03*
X762000Y819250D02*
D03*
X619001Y789000D02*
D03*
X619000Y778999D02*
D03*
X591000Y748000D02*
D03*
X563000Y769000D02*
D03*
X533000Y789000D02*
D03*
X617000Y843999D02*
D03*
X597000Y852000D02*
D03*
X555000Y852000D02*
D03*
X607000D02*
D03*
X535000Y844000D02*
D03*
X794000Y788000D02*
D03*
X804000Y780000D02*
D03*
X794000D02*
D03*
X799000Y784000D02*
D03*
X591000Y788000D02*
D03*
X601000Y780000D02*
D03*
X591000D02*
D03*
X596000Y784000D02*
D03*
X212000Y791999D02*
D03*
X186750Y805250D02*
D03*
X184000Y788000D02*
D03*
X194000Y780000D02*
D03*
X184000D02*
D03*
X189000Y784000D02*
D03*
X156000Y769000D02*
D03*
X204000Y760000D02*
D03*
X184000Y748000D02*
D03*
X212002Y781998D02*
D03*
X147998Y851999D02*
D03*
X128001Y844000D02*
D03*
X152000Y819250D02*
D03*
X190000Y852000D02*
D03*
X210000Y844000D02*
D03*
X200000Y852000D02*
D03*
X126000Y789000D02*
D03*
X423000Y844000D02*
D03*
X403000Y852000D02*
D03*
X415000Y788999D02*
D03*
Y779000D02*
D03*
X392000Y784000D02*
D03*
X387000Y780000D02*
D03*
X397000D02*
D03*
X387000Y788000D02*
D03*
X329000Y789000D02*
D03*
X393000Y852000D02*
D03*
X355000Y819250D02*
D03*
X350999Y852000D02*
D03*
X331001Y844001D02*
D03*
X943400Y507000D02*
D03*
X930000Y399000D02*
D03*
X918000Y443000D02*
D03*
X918000Y425000D02*
D03*
X918000Y461000D02*
D03*
X923000Y328500D02*
D03*
X930000Y364000D02*
D03*
X892000Y304000D02*
D03*
X891600Y692000D02*
D03*
X940001Y300000D02*
D03*
X940001Y310001D02*
D03*
X940000Y320000D02*
D03*
X892000Y314000D02*
D03*
X913000Y328500D02*
D03*
X907000Y317500D02*
D03*
X950001Y300000D02*
D03*
Y310000D02*
D03*
Y320000D02*
D03*
X892000Y362000D02*
D03*
Y396000D02*
D03*
X900000Y461000D02*
D03*
X936000Y461000D02*
D03*
X936000Y425000D02*
D03*
X900000Y425000D02*
D03*
X900000Y443000D02*
D03*
X936000Y443000D02*
D03*
X924000Y532000D02*
D03*
X911995D02*
D03*
X940000D02*
D03*
X944000Y397000D02*
D03*
Y381005D02*
D03*
Y346000D02*
D03*
Y362000D02*
D03*
M02*
